{"glyphs":{"0":{"ha":404,"x_min":43,"x_max":568,"o":"m 525 529 q 558 518 549 529 q 568 482 568 507 q 542 397 568 446 q 473 292 517 347 q 377 183 429 236 q 270 86 325 129 q 167 17 215 43 q 82 -8 118 -8 q 52 4 61 -8 q 43 50 43 17 q 66 149 43 96 q 127 255 89 201 q 215 358 165 308 q 319 446 265 407 q 426 507 372 485 q 525 529 479 529 m 558 482 q 529 519 558 519 q 449 494 496 519 q 349 425 401 468 q 246 328 297 382 q 153 219 194 275 q 86 114 111 164 q 60 26 61 64 q 65 5 60 11 q 86 -1 71 -1 q 165 25 118 -1 q 266 94 213 51 q 371 191 319 138 q 465 298 422 244 q 533 400 508 351 q 558 482 558 449 z "},"1":{"ha":371,"x_min":-28,"x_max":578,"o":"m -28 67 l -18 88 q 84 147 28 111 q 199 226 140 183 q 313 313 257 269 q 414 396 368 357 q 490 461 460 435 q 528 497 521 488 l 536 490 q 498 455 529 482 q 420 388 467 428 q 317 303 374 349 q 198 215 260 258 q 78 132 136 171 q -28 67 21 93 m 558 526 l 578 526 l 138 0 l 54 0 q 126 62 94 33 q 192 124 158 90 q 271 206 226 158 q 377 323 315 253 q 528 497 439 393 l 558 526 z "},"2":{"ha":425,"x_min":-43,"x_max":554,"o":"m 554 447 q 519 353 554 396 q 427 272 485 310 q 301 200 369 233 q 167 135 233 167 q 47 73 100 104 q -37 8 -7 42 l -37 11 q -17 31 -26 24 q 14 38 -7 38 q 74 28 42 38 q 138 11 106 19 q 197 3 169 3 q 270 20 236 3 q 340 82 304 38 l 344 75 q 276 12 315 29 q 196 -6 238 -6 q 136 3 168 -6 q 72 19 104 11 q 11 28 40 28 q -23 19 -11 28 q -43 0 -35 11 l -43 10 q 26 69 -22 36 q 139 138 75 101 q 269 215 203 175 q 392 298 335 254 q 484 388 449 342 q 519 481 519 433 q 461 529 519 529 q 387 508 426 529 q 308 449 347 486 q 238 363 269 411 q 186 263 206 315 l 178 263 q 228 366 196 317 q 300 454 260 415 q 382 515 340 493 q 461 538 424 538 q 530 515 506 538 q 554 447 554 492 z "},"3":{"ha":417,"x_min":-85,"x_max":550,"o":"m 297 342 q 371 308 344 342 q 396 213 397 274 q 358 103 394 158 q 265 1 322 47 q 140 -72 208 -44 q 6 -100 72 -100 q -60 -81 -36 -100 q -83 -29 -85 -62 q -63 26 -83 -4 q -12 86 -43 57 q 56 138 19 115 q 128 167 92 160 l 129 161 q 59 131 94 153 q -7 81 24 110 q -56 24 -37 53 q -74 -29 -74 -4 q 1 -92 -74 -92 q 94 -69 44 -92 q 192 -8 143 -46 q 281 77 242 31 q 345 172 321 124 q 371 263 369 221 q 297 333 374 333 q 265 326 275 333 q 260 311 254 318 q 290 304 265 304 q 363 322 324 304 q 438 366 403 339 q 496 424 474 393 q 518 482 518 456 q 472 529 518 529 q 392 503 438 529 q 313 435 346 476 l 318 451 q 365 494 338 475 q 424 526 393 514 q 478 538 454 538 q 529 516 508 538 q 549 461 550 494 q 524 402 549 432 q 463 348 500 372 q 378 309 425 324 q 286 294 332 294 q 250 306 257 294 q 256 330 243 318 q 297 342 269 342 z "},"4":{"ha":428,"x_min":-51,"x_max":669,"o":"m 660 593 l 669 593 l 114 -83 l 31 -83 q 139 17 81 -42 q 272 156 197 75 q 441 346 346 238 q 660 593 536 454 m -31 53 q -22 54 -29 54 l 299 54 l 297 46 l -29 46 q -49 43 -37 46 l -51 50 q 6 93 -32 61 q 92 170 44 125 q 189 267 139 215 q 285 371 239 319 q 367 466 331 422 q 419 538 403 510 l 436 538 q 372 453 415 504 q 274 344 328 403 q 164 230 221 286 q 56 126 107 174 q -31 53 4 79 z "},"5":{"ha":417,"x_min":-83,"x_max":551,"o":"m 388 504 l 399 533 q 435 521 411 525 q 486 517 460 517 q 525 521 507 517 q 551 531 543 525 l 550 525 q 504 503 535 511 q 440 496 474 496 q 388 504 404 496 m 313 369 q 413 256 413 369 q 386 156 411 206 q 319 60 361 106 q 226 -22 278 14 q 117 -79 174 -58 q 6 -100 60 -100 q -59 -83 -35 -100 q -83 -33 -83 -65 q -64 24 -83 -7 q -12 85 -44 54 q 56 138 19 115 q 128 167 92 160 l 129 161 q 58 131 93 153 q -8 81 22 110 q -56 24 -37 53 q -74 -29 -74 -6 q 1 -92 -74 -92 q 98 -67 46 -92 q 200 1 150 -42 q 292 94 250 43 q 359 198 333 144 q 386 297 385 251 q 311 363 386 363 q 288 360 297 363 q 271 349 279 357 l 267 354 q 307 394 285 369 q 348 447 329 419 q 378 498 367 474 q 390 533 390 522 l 400 533 q 385 493 400 521 q 347 432 371 465 q 290 365 322 399 q 313 369 297 369 z "},"6":{"ha":454,"x_min":17,"x_max":744,"o":"m 740 665 l 744 660 q 606 620 682 654 q 450 533 529 586 q 298 416 371 481 q 167 285 225 351 q 76 156 110 218 q 42 43 42 93 q 99 -10 42 -10 q 181 13 136 -10 q 270 72 225 35 q 353 153 315 110 q 413 242 390 197 q 436 321 436 286 q 392 365 436 365 q 321 344 360 365 q 247 290 282 324 q 185 219 211 257 q 153 143 160 181 l 143 143 q 180 224 153 183 q 244 298 207 264 q 322 353 282 332 q 396 374 361 374 q 463 292 463 374 q 440 208 463 251 q 381 124 418 164 q 296 51 343 83 q 197 0 249 19 q 99 -19 146 -19 q 17 71 17 -19 q 48 190 17 126 q 134 317 79 253 q 260 440 189 381 q 413 547 332 499 q 578 626 494 594 q 740 665 663 657 z "},"7":{"ha":361,"x_min":-78,"x_max":601,"o":"m 596 532 l 601 532 q 426 372 524 471 q 219 145 328 272 q -4 -131 110 18 l -78 -131 q 284 247 115 79 q 578 522 453 414 l 596 532 m 592 532 l 597 532 q 583 518 593 526 q 546 510 572 510 q 502 514 529 510 q 447 522 475 518 q 400 525 419 525 q 235 406 306 525 l 232 413 q 306 500 260 467 q 401 533 351 533 q 447 530 419 533 q 502 522 475 526 q 547 518 529 518 q 592 532 578 518 z "},"8":{"ha":419,"x_min":7,"x_max":592,"o":"m 107 -11 q 213 24 169 -11 q 286 117 257 60 q 328 233 315 174 q 347 347 340 282 q 358 465 354 411 q 388 590 364 536 q 447 673 411 643 q 526 703 483 703 q 576 684 560 703 q 592 635 592 665 q 569 566 592 600 q 512 502 546 532 q 441 448 478 472 q 378 410 404 424 l 375 415 q 444 458 408 433 q 512 512 481 482 q 563 574 543 542 q 582 638 582 606 q 569 678 582 663 q 525 693 556 693 q 447 660 479 693 q 396 580 414 628 q 376 483 378 532 q 381 388 376 433 q 385 297 385 342 q 365 179 385 236 q 308 78 344 122 q 223 6 272 33 q 114 -21 174 -21 q 40 1 72 -21 q 7 78 7 22 q 32 157 7 117 q 98 235 57 197 q 188 306 139 272 q 284 366 236 339 q 369 411 332 393 l 374 407 q 288 360 335 388 q 192 298 240 332 q 105 226 144 264 q 41 150 65 189 q 17 75 17 111 q 40 12 17 35 q 107 -11 63 -11 z "},"9":{"ha":454,"x_min":-174,"x_max":556,"o":"m -168 -146 l -174 -140 q -33 -101 -110 -135 q 122 -14 43 -67 q 274 103 201 39 q 405 235 347 168 q 497 364 463 301 q 531 476 531 426 q 474 529 531 529 q 392 506 436 529 q 302 447 347 483 q 219 365 257 410 q 159 277 182 321 q 136 199 136 233 q 181 154 136 154 q 251 174 213 154 q 325 228 289 194 q 387 300 361 261 q 419 375 413 339 l 429 375 q 392 295 419 336 q 328 220 365 254 q 251 165 290 186 q 176 144 211 144 q 110 226 110 144 q 132 312 110 268 q 192 396 154 356 q 276 468 229 436 q 374 519 324 500 q 474 538 425 538 q 535 516 515 538 q 556 447 556 494 q 524 329 556 392 q 438 203 493 267 q 311 80 382 139 q 158 -27 240 21 q -7 -106 76 -75 q -168 -146 -90 -137 z "},"A":{"ha":1910,"x_min":-67,"x_max":2669,"o":"m 1844 -374 q 1732 -339 1779 -374 q 1659 -244 1685 -304 q 1633 -108 1633 -183 q 1658 54 1633 -31 q 1721 224 1682 139 q 1805 386 1760 308 q 1894 529 1850 464 q 1971 639 1938 594 q 2088 787 2022 710 q 2229 932 2153 864 q 2390 1042 2306 1000 q 2563 1083 2475 1083 q 2644 1072 2619 1083 q 2669 1040 2669 1061 q 2649 1017 2669 1026 q 2589 1007 2628 1007 q 2388 1038 2490 1007 q 2174 1115 2285 1069 q 1942 1207 2063 1161 q 1688 1284 1821 1253 q 1407 1315 1556 1315 q 1127 1278 1250 1315 q 919 1178 1004 1240 q 788 1041 833 1117 q 743 889 743 965 q 793 731 743 806 q 945 610 843 657 q 1201 564 1047 564 q 1407 606 1324 564 q 1533 710 1490 647 q 1576 835 1576 772 q 1550 927 1576 885 q 1470 995 1524 969 q 1333 1021 1417 1021 q 1210 1004 1268 1021 q 1113 958 1153 988 l 1104 965 q 1206 1012 1146 994 q 1333 1029 1265 1029 q 1474 1002 1418 1029 q 1557 932 1529 975 q 1585 838 1585 889 q 1541 706 1585 771 q 1412 599 1497 642 q 1200 556 1326 556 q 938 604 1043 556 q 782 731 833 653 q 731 896 731 808 q 774 1052 731 975 q 904 1193 818 1129 q 1114 1294 990 1257 q 1396 1332 1238 1332 q 1670 1300 1538 1332 q 1926 1222 1803 1268 q 2165 1128 2050 1175 q 2384 1050 2279 1082 q 2585 1018 2489 1018 q 2635 1026 2622 1018 q 2649 1044 2649 1035 q 2629 1065 2649 1056 q 2572 1074 2610 1074 q 2387 1028 2475 1074 q 2220 910 2299 983 q 2074 749 2142 836 q 1949 575 2006 661 q 1815 344 1876 467 q 1715 103 1753 222 q 1676 -118 1676 -15 q 1695 -240 1676 -183 q 1751 -332 1714 -297 q 1844 -367 1788 -367 q 1895 -357 1874 -367 q 1933 -331 1917 -347 l 1935 -337 q 1898 -364 1919 -354 q 1844 -374 1876 -374 m 688 -328 q 386 -281 524 -328 q 147 -149 249 -233 q -10 52 46 -64 q -67 306 -67 168 q -7 570 -67 449 q 161 781 53 692 q 415 921 269 871 q 732 971 561 971 q 1045 913 910 971 q 1253 750 1181 856 l 1246 743 q 1040 906 1174 849 q 732 963 907 963 q 418 913 563 963 q 167 775 274 864 q 1 567 60 686 q -58 306 -58 447 q -3 56 -58 171 q 153 -142 53 -58 q 390 -273 253 -226 q 688 -319 526 -319 q 951 -285 831 -319 q 1162 -190 1072 -251 q 1302 -44 1251 -128 q 1353 136 1353 39 q 1284 315 1353 236 q 1096 438 1215 393 q 822 482 976 482 q 609 442 690 482 q 528 338 528 403 q 717 224 528 224 q 867 244 793 224 q 1003 301 942 264 q 1100 389 1064 338 q 1136 503 1136 440 q 1100 608 1136 564 q 1008 678 1064 651 q 890 717 953 704 q 772 729 826 729 q 546 695 647 729 q 373 603 444 661 q 262 472 301 546 q 222 317 222 397 q 276 142 222 215 q 425 30 331 69 q 643 -10 519 -10 q 878 27 764 -10 q 1101 129 993 64 q 1312 279 1208 194 q 1517 460 1415 364 q 1722 655 1619 556 q 1928 847 1824 754 q 2008 912 1956 872 q 2133 990 2061 951 q 2286 1050 2204 1029 l 2322 1049 q 2156 991 2233 1031 q 2022 910 2079 951 q 1933 839 1965 868 q 1776 676 1851 765 q 1626 491 1701 586 q 1473 306 1551 396 q 1304 146 1394 217 q 1130 35 1228 85 q 920 -43 1032 -14 q 690 -72 808 -72 q 422 -19 528 -72 q 265 122 315 33 q 214 317 214 211 q 253 476 214 400 q 365 610 292 551 q 541 703 438 669 q 774 738 644 738 q 888 726 824 738 q 1010 687 951 714 q 1106 613 1068 660 q 1144 500 1144 567 q 1107 383 1144 435 q 1008 294 1069 331 q 870 237 946 257 q 717 215 794 217 q 519 338 519 215 q 603 449 519 407 q 822 490 688 490 q 1100 445 978 490 q 1292 319 1222 400 q 1361 136 1361 239 q 1310 -48 1361 36 q 1168 -195 1260 -132 q 954 -293 1076 -258 q 688 -328 832 -328 m 1354 369 l 1361 379 l 1985 379 l 1985 369 l 1354 369 z "},"Á":{"ha":1910,"x_min":-67,"x_max":2669,"o":"m 1844 -374 q 1732 -339 1779 -374 q 1659 -244 1685 -304 q 1633 -108 1633 -183 q 1658 54 1633 -31 q 1721 224 1682 139 q 1805 386 1760 308 q 1894 529 1850 464 q 1971 639 1938 594 q 2088 787 2022 710 q 2229 932 2153 864 q 2390 1042 2306 1000 q 2563 1083 2475 1083 q 2644 1072 2619 1083 q 2669 1040 2669 1061 q 2649 1017 2669 1026 q 2589 1007 2628 1007 q 2388 1038 2490 1007 q 2174 1115 2285 1069 q 1942 1207 2063 1161 q 1688 1284 1821 1253 q 1407 1315 1556 1315 q 1127 1278 1250 1315 q 919 1178 1004 1240 q 788 1041 833 1117 q 743 889 743 965 q 793 731 743 806 q 945 610 843 657 q 1201 564 1047 564 q 1407 606 1324 564 q 1533 710 1490 647 q 1576 835 1576 772 q 1550 927 1576 885 q 1470 995 1524 969 q 1333 1021 1417 1021 q 1210 1004 1268 1021 q 1113 958 1153 988 l 1104 965 q 1206 1012 1146 994 q 1333 1029 1265 1029 q 1474 1002 1418 1029 q 1557 932 1529 975 q 1585 838 1585 889 q 1541 706 1585 771 q 1412 599 1497 642 q 1200 556 1326 556 q 938 604 1043 556 q 782 731 833 653 q 731 896 731 808 q 774 1052 731 975 q 904 1193 818 1129 q 1114 1294 990 1257 q 1396 1332 1238 1332 q 1670 1300 1538 1332 q 1926 1222 1803 1268 q 2165 1128 2050 1175 q 2384 1050 2279 1082 q 2585 1018 2489 1018 q 2635 1026 2622 1018 q 2649 1044 2649 1035 q 2629 1065 2649 1056 q 2572 1074 2610 1074 q 2387 1028 2475 1074 q 2220 910 2299 983 q 2074 749 2142 836 q 1949 575 2006 661 q 1815 344 1876 467 q 1715 103 1753 222 q 1676 -118 1676 -15 q 1695 -240 1676 -183 q 1751 -332 1714 -297 q 1844 -367 1788 -367 q 1895 -357 1874 -367 q 1933 -331 1917 -347 l 1935 -337 q 1898 -364 1919 -354 q 1844 -374 1876 -374 m 688 -328 q 386 -281 524 -328 q 147 -149 249 -233 q -10 52 46 -64 q -67 306 -67 168 q -7 570 -67 449 q 161 781 53 692 q 415 921 269 871 q 732 971 561 971 q 1045 913 910 971 q 1253 750 1181 856 l 1246 743 q 1040 906 1174 849 q 732 963 907 963 q 418 913 563 963 q 167 775 274 864 q 1 567 60 686 q -58 306 -58 447 q -3 56 -58 171 q 153 -142 53 -58 q 390 -273 253 -226 q 688 -319 526 -319 q 951 -285 831 -319 q 1162 -190 1072 -251 q 1302 -44 1251 -128 q 1353 136 1353 39 q 1284 315 1353 236 q 1096 438 1215 393 q 822 482 976 482 q 609 442 690 482 q 528 338 528 403 q 717 224 528 224 q 867 244 793 224 q 1003 301 942 264 q 1100 389 1064 338 q 1136 503 1136 440 q 1100 608 1136 564 q 1008 678 1064 651 q 890 717 953 704 q 772 729 826 729 q 546 695 647 729 q 373 603 444 661 q 262 472 301 546 q 222 317 222 397 q 276 142 222 215 q 425 30 331 69 q 643 -10 519 -10 q 878 27 764 -10 q 1101 129 993 64 q 1312 279 1208 194 q 1517 460 1415 364 q 1722 655 1619 556 q 1928 847 1824 754 q 2008 912 1956 872 q 2133 990 2061 951 q 2286 1050 2204 1029 l 2322 1049 q 2156 991 2233 1031 q 2022 910 2079 951 q 1933 839 1965 868 q 1776 676 1851 765 q 1626 491 1701 586 q 1473 306 1551 396 q 1304 146 1394 217 q 1130 35 1228 85 q 920 -43 1032 -14 q 690 -72 808 -72 q 422 -19 528 -72 q 265 122 315 33 q 214 317 214 211 q 253 476 214 400 q 365 610 292 551 q 541 703 438 669 q 774 738 644 738 q 888 726 824 738 q 1010 687 951 714 q 1106 613 1068 660 q 1144 500 1144 567 q 1107 383 1144 435 q 1008 294 1069 331 q 870 237 946 257 q 717 215 794 217 q 519 338 519 215 q 603 449 519 407 q 822 490 688 490 q 1100 445 978 490 q 1292 319 1222 400 q 1361 136 1361 239 q 1310 -48 1361 36 q 1168 -195 1260 -132 q 954 -293 1076 -258 q 688 -328 832 -328 m 1354 369 l 1361 379 l 1985 379 l 1985 369 l 1354 369 m 2293 1240 l 2290 1246 l 2453 1354 q 2483 1364 2468 1364 q 2506 1344 2506 1364 q 2485 1319 2506 1328 l 2293 1240 z "},"Ă":{"ha":1910,"x_min":-67,"x_max":2669,"o":"m 1844 -374 q 1732 -339 1779 -374 q 1659 -244 1685 -304 q 1633 -108 1633 -183 q 1658 54 1633 -31 q 1721 224 1682 139 q 1805 386 1760 308 q 1894 529 1850 464 q 1971 639 1938 594 q 2088 787 2022 710 q 2229 932 2153 864 q 2390 1042 2306 1000 q 2563 1083 2475 1083 q 2644 1072 2619 1083 q 2669 1040 2669 1061 q 2649 1017 2669 1026 q 2589 1007 2628 1007 q 2388 1038 2490 1007 q 2174 1115 2285 1069 q 1942 1207 2063 1161 q 1688 1284 1821 1253 q 1407 1315 1556 1315 q 1127 1278 1250 1315 q 919 1178 1004 1240 q 788 1041 833 1117 q 743 889 743 965 q 793 731 743 806 q 945 610 843 657 q 1201 564 1047 564 q 1407 606 1324 564 q 1533 710 1490 647 q 1576 835 1576 772 q 1550 927 1576 885 q 1470 995 1524 969 q 1333 1021 1417 1021 q 1210 1004 1268 1021 q 1113 958 1153 988 l 1104 965 q 1206 1012 1146 994 q 1333 1029 1265 1029 q 1474 1002 1418 1029 q 1557 932 1529 975 q 1585 838 1585 889 q 1541 706 1585 771 q 1412 599 1497 642 q 1200 556 1326 556 q 938 604 1043 556 q 782 731 833 653 q 731 896 731 808 q 774 1052 731 975 q 904 1193 818 1129 q 1114 1294 990 1257 q 1396 1332 1238 1332 q 1670 1300 1538 1332 q 1926 1222 1803 1268 q 2165 1128 2050 1175 q 2384 1050 2279 1082 q 2585 1018 2489 1018 q 2635 1026 2622 1018 q 2649 1044 2649 1035 q 2629 1065 2649 1056 q 2572 1074 2610 1074 q 2387 1028 2475 1074 q 2220 910 2299 983 q 2074 749 2142 836 q 1949 575 2006 661 q 1815 344 1876 467 q 1715 103 1753 222 q 1676 -118 1676 -15 q 1695 -240 1676 -183 q 1751 -332 1714 -297 q 1844 -367 1788 -367 q 1895 -357 1874 -367 q 1933 -331 1917 -347 l 1935 -337 q 1898 -364 1919 -354 q 1844 -374 1876 -374 m 688 -328 q 386 -281 524 -328 q 147 -149 249 -233 q -10 52 46 -64 q -67 306 -67 168 q -7 570 -67 449 q 161 781 53 692 q 415 921 269 871 q 732 971 561 971 q 1045 913 910 971 q 1253 750 1181 856 l 1246 743 q 1040 906 1174 849 q 732 963 907 963 q 418 913 563 963 q 167 775 274 864 q 1 567 60 686 q -58 306 -58 447 q -3 56 -58 171 q 153 -142 53 -58 q 390 -273 253 -226 q 688 -319 526 -319 q 951 -285 831 -319 q 1162 -190 1072 -251 q 1302 -44 1251 -128 q 1353 136 1353 39 q 1284 315 1353 236 q 1096 438 1215 393 q 822 482 976 482 q 609 442 690 482 q 528 338 528 403 q 717 224 528 224 q 867 244 793 224 q 1003 301 942 264 q 1100 389 1064 338 q 1136 503 1136 440 q 1100 608 1136 564 q 1008 678 1064 651 q 890 717 953 704 q 772 729 826 729 q 546 695 647 729 q 373 603 444 661 q 262 472 301 546 q 222 317 222 397 q 276 142 222 215 q 425 30 331 69 q 643 -10 519 -10 q 878 27 764 -10 q 1101 129 993 64 q 1312 279 1208 194 q 1517 460 1415 364 q 1722 655 1619 556 q 1928 847 1824 754 q 2008 912 1956 872 q 2133 990 2061 951 q 2286 1050 2204 1029 l 2322 1049 q 2156 991 2233 1031 q 2022 910 2079 951 q 1933 839 1965 868 q 1776 676 1851 765 q 1626 491 1701 586 q 1473 306 1551 396 q 1304 146 1394 217 q 1130 35 1228 85 q 920 -43 1032 -14 q 690 -72 808 -72 q 422 -19 528 -72 q 265 122 315 33 q 214 317 214 211 q 253 476 214 400 q 365 610 292 551 q 541 703 438 669 q 774 738 644 738 q 888 726 824 738 q 1010 687 951 714 q 1106 613 1068 660 q 1144 500 1144 567 q 1107 383 1144 435 q 1008 294 1069 331 q 870 237 946 257 q 717 215 794 217 q 519 338 519 215 q 603 449 519 407 q 822 490 688 490 q 1100 445 978 490 q 1292 319 1222 400 q 1361 136 1361 239 q 1310 -48 1361 36 q 1168 -195 1260 -132 q 954 -293 1076 -258 q 688 -328 832 -328 m 1354 369 l 1361 379 l 1985 379 l 1985 369 l 1354 369 m 2488 1356 l 2536 1356 q 2492 1309 2521 1329 q 2431 1277 2463 1289 q 2372 1265 2400 1265 q 2320 1278 2338 1265 q 2303 1310 2303 1290 q 2307 1333 2303 1321 q 2318 1356 2311 1344 l 2360 1356 q 2351 1333 2354 1344 q 2347 1310 2347 1321 q 2378 1275 2347 1275 q 2438 1299 2406 1275 q 2488 1356 2469 1322 z "},"Ắ":{"ha":1910,"x_min":-67,"x_max":2669,"o":"m 1844 -374 q 1732 -339 1779 -374 q 1659 -244 1685 -304 q 1633 -108 1633 -183 q 1658 54 1633 -31 q 1721 224 1682 139 q 1805 386 1760 308 q 1894 529 1850 464 q 1971 639 1938 594 q 2088 787 2022 710 q 2229 932 2153 864 q 2390 1042 2306 1000 q 2563 1083 2475 1083 q 2644 1072 2619 1083 q 2669 1040 2669 1061 q 2649 1017 2669 1026 q 2589 1007 2628 1007 q 2388 1038 2490 1007 q 2174 1115 2285 1069 q 1942 1207 2063 1161 q 1688 1284 1821 1253 q 1407 1315 1556 1315 q 1127 1278 1250 1315 q 919 1178 1004 1240 q 788 1041 833 1117 q 743 889 743 965 q 793 731 743 806 q 945 610 843 657 q 1201 564 1047 564 q 1407 606 1324 564 q 1533 710 1490 647 q 1576 835 1576 772 q 1550 927 1576 885 q 1470 995 1524 969 q 1333 1021 1417 1021 q 1210 1004 1268 1021 q 1113 958 1153 988 l 1104 965 q 1206 1012 1146 994 q 1333 1029 1265 1029 q 1474 1002 1418 1029 q 1557 932 1529 975 q 1585 838 1585 889 q 1541 706 1585 771 q 1412 599 1497 642 q 1200 556 1326 556 q 938 604 1043 556 q 782 731 833 653 q 731 896 731 808 q 774 1052 731 975 q 904 1193 818 1129 q 1114 1294 990 1257 q 1396 1332 1238 1332 q 1670 1300 1538 1332 q 1926 1222 1803 1268 q 2165 1128 2050 1175 q 2384 1050 2279 1082 q 2585 1018 2489 1018 q 2635 1026 2622 1018 q 2649 1044 2649 1035 q 2629 1065 2649 1056 q 2572 1074 2610 1074 q 2387 1028 2475 1074 q 2220 910 2299 983 q 2074 749 2142 836 q 1949 575 2006 661 q 1815 344 1876 467 q 1715 103 1753 222 q 1676 -118 1676 -15 q 1695 -240 1676 -183 q 1751 -332 1714 -297 q 1844 -367 1788 -367 q 1895 -357 1874 -367 q 1933 -331 1917 -347 l 1935 -337 q 1898 -364 1919 -354 q 1844 -374 1876 -374 m 688 -328 q 386 -281 524 -328 q 147 -149 249 -233 q -10 52 46 -64 q -67 306 -67 168 q -7 570 -67 449 q 161 781 53 692 q 415 921 269 871 q 732 971 561 971 q 1045 913 910 971 q 1253 750 1181 856 l 1246 743 q 1040 906 1174 849 q 732 963 907 963 q 418 913 563 963 q 167 775 274 864 q 1 567 60 686 q -58 306 -58 447 q -3 56 -58 171 q 153 -142 53 -58 q 390 -273 253 -226 q 688 -319 526 -319 q 951 -285 831 -319 q 1162 -190 1072 -251 q 1302 -44 1251 -128 q 1353 136 1353 39 q 1284 315 1353 236 q 1096 438 1215 393 q 822 482 976 482 q 609 442 690 482 q 528 338 528 403 q 717 224 528 224 q 867 244 793 224 q 1003 301 942 264 q 1100 389 1064 338 q 1136 503 1136 440 q 1100 608 1136 564 q 1008 678 1064 651 q 890 717 953 704 q 772 729 826 729 q 546 695 647 729 q 373 603 444 661 q 262 472 301 546 q 222 317 222 397 q 276 142 222 215 q 425 30 331 69 q 643 -10 519 -10 q 878 27 764 -10 q 1101 129 993 64 q 1312 279 1208 194 q 1517 460 1415 364 q 1722 655 1619 556 q 1928 847 1824 754 q 2008 912 1956 872 q 2133 990 2061 951 q 2286 1050 2204 1029 l 2322 1049 q 2156 991 2233 1031 q 2022 910 2079 951 q 1933 839 1965 868 q 1776 676 1851 765 q 1626 491 1701 586 q 1473 306 1551 396 q 1304 146 1394 217 q 1130 35 1228 85 q 920 -43 1032 -14 q 690 -72 808 -72 q 422 -19 528 -72 q 265 122 315 33 q 214 317 214 211 q 253 476 214 400 q 365 610 292 551 q 541 703 438 669 q 774 738 644 738 q 888 726 824 738 q 1010 687 951 714 q 1106 613 1068 660 q 1144 500 1144 567 q 1107 383 1144 435 q 1008 294 1069 331 q 870 237 946 257 q 717 215 794 217 q 519 338 519 215 q 603 449 519 407 q 822 490 688 490 q 1100 445 978 490 q 1292 319 1222 400 q 1361 136 1361 239 q 1310 -48 1361 36 q 1168 -195 1260 -132 q 954 -293 1076 -258 q 688 -328 832 -328 m 1354 369 l 1361 379 l 1985 379 l 1985 369 l 1354 369 m 2488 1356 l 2536 1356 q 2492 1309 2521 1329 q 2431 1277 2463 1289 q 2372 1265 2400 1265 q 2320 1278 2338 1265 q 2303 1310 2303 1290 q 2307 1333 2303 1321 q 2318 1356 2311 1344 l 2360 1356 q 2351 1333 2354 1344 q 2347 1310 2347 1321 q 2378 1275 2347 1275 q 2438 1299 2406 1275 q 2488 1356 2469 1322 m 2394 1410 l 2392 1415 l 2554 1524 q 2585 1533 2569 1533 q 2607 1514 2607 1533 q 2586 1489 2607 1497 l 2394 1410 z "},"Ặ":{"ha":1910,"x_min":-67,"x_max":2669,"o":"m 1844 -374 q 1732 -339 1779 -374 q 1659 -244 1685 -304 q 1633 -108 1633 -183 q 1658 54 1633 -31 q 1721 224 1682 139 q 1805 386 1760 308 q 1894 529 1850 464 q 1971 639 1938 594 q 2088 787 2022 710 q 2229 932 2153 864 q 2390 1042 2306 1000 q 2563 1083 2475 1083 q 2644 1072 2619 1083 q 2669 1040 2669 1061 q 2649 1017 2669 1026 q 2589 1007 2628 1007 q 2388 1038 2490 1007 q 2174 1115 2285 1069 q 1942 1207 2063 1161 q 1688 1284 1821 1253 q 1407 1315 1556 1315 q 1127 1278 1250 1315 q 919 1178 1004 1240 q 788 1041 833 1117 q 743 889 743 965 q 793 731 743 806 q 945 610 843 657 q 1201 564 1047 564 q 1407 606 1324 564 q 1533 710 1490 647 q 1576 835 1576 772 q 1550 927 1576 885 q 1470 995 1524 969 q 1333 1021 1417 1021 q 1210 1004 1268 1021 q 1113 958 1153 988 l 1104 965 q 1206 1012 1146 994 q 1333 1029 1265 1029 q 1474 1002 1418 1029 q 1557 932 1529 975 q 1585 838 1585 889 q 1541 706 1585 771 q 1412 599 1497 642 q 1200 556 1326 556 q 938 604 1043 556 q 782 731 833 653 q 731 896 731 808 q 774 1052 731 975 q 904 1193 818 1129 q 1114 1294 990 1257 q 1396 1332 1238 1332 q 1670 1300 1538 1332 q 1926 1222 1803 1268 q 2165 1128 2050 1175 q 2384 1050 2279 1082 q 2585 1018 2489 1018 q 2635 1026 2622 1018 q 2649 1044 2649 1035 q 2629 1065 2649 1056 q 2572 1074 2610 1074 q 2387 1028 2475 1074 q 2220 910 2299 983 q 2074 749 2142 836 q 1949 575 2006 661 q 1815 344 1876 467 q 1715 103 1753 222 q 1676 -118 1676 -15 q 1695 -240 1676 -183 q 1751 -332 1714 -297 q 1844 -367 1788 -367 q 1895 -357 1874 -367 q 1933 -331 1917 -347 l 1935 -337 q 1898 -364 1919 -354 q 1844 -374 1876 -374 m 688 -328 q 386 -281 524 -328 q 147 -149 249 -233 q -10 52 46 -64 q -67 306 -67 168 q -7 570 -67 449 q 161 781 53 692 q 415 921 269 871 q 732 971 561 971 q 1045 913 910 971 q 1253 750 1181 856 l 1246 743 q 1040 906 1174 849 q 732 963 907 963 q 418 913 563 963 q 167 775 274 864 q 1 567 60 686 q -58 306 -58 447 q -3 56 -58 171 q 153 -142 53 -58 q 390 -273 253 -226 q 688 -319 526 -319 q 951 -285 831 -319 q 1162 -190 1072 -251 q 1302 -44 1251 -128 q 1353 136 1353 39 q 1284 315 1353 236 q 1096 438 1215 393 q 822 482 976 482 q 609 442 690 482 q 528 338 528 403 q 717 224 528 224 q 867 244 793 224 q 1003 301 942 264 q 1100 389 1064 338 q 1136 503 1136 440 q 1100 608 1136 564 q 1008 678 1064 651 q 890 717 953 704 q 772 729 826 729 q 546 695 647 729 q 373 603 444 661 q 262 472 301 546 q 222 317 222 397 q 276 142 222 215 q 425 30 331 69 q 643 -10 519 -10 q 878 27 764 -10 q 1101 129 993 64 q 1312 279 1208 194 q 1517 460 1415 364 q 1722 655 1619 556 q 1928 847 1824 754 q 2008 912 1956 872 q 2133 990 2061 951 q 2286 1050 2204 1029 l 2322 1049 q 2156 991 2233 1031 q 2022 910 2079 951 q 1933 839 1965 868 q 1776 676 1851 765 q 1626 491 1701 586 q 1473 306 1551 396 q 1304 146 1394 217 q 1130 35 1228 85 q 920 -43 1032 -14 q 690 -72 808 -72 q 422 -19 528 -72 q 265 122 315 33 q 214 317 214 211 q 253 476 214 400 q 365 610 292 551 q 541 703 438 669 q 774 738 644 738 q 888 726 824 738 q 1010 687 951 714 q 1106 613 1068 660 q 1144 500 1144 567 q 1107 383 1144 435 q 1008 294 1069 331 q 870 237 946 257 q 717 215 794 217 q 519 338 519 215 q 603 449 519 407 q 822 490 688 490 q 1100 445 978 490 q 1292 319 1222 400 q 1361 136 1361 239 q 1310 -48 1361 36 q 1168 -195 1260 -132 q 954 -293 1076 -258 q 688 -328 832 -328 m 1354 369 l 1361 379 l 1985 379 l 1985 369 l 1354 369 m 1436 -139 q 1450 -149 1450 -139 q 1430 -185 1450 -164 q 1384 -224 1410 -207 q 1339 -240 1358 -240 q 1328 -231 1328 -240 q 1348 -194 1328 -215 q 1394 -156 1368 -172 q 1436 -139 1419 -139 m 2488 1356 l 2536 1356 q 2492 1309 2521 1329 q 2431 1277 2463 1289 q 2372 1265 2400 1265 q 2320 1278 2338 1265 q 2303 1310 2303 1290 q 2307 1333 2303 1321 q 2318 1356 2311 1344 l 2360 1356 q 2351 1333 2354 1344 q 2347 1310 2347 1321 q 2378 1275 2347 1275 q 2438 1299 2406 1275 q 2488 1356 2469 1322 z "},"Ằ":{"ha":1910,"x_min":-67,"x_max":2669,"o":"m 1844 -374 q 1732 -339 1779 -374 q 1659 -244 1685 -304 q 1633 -108 1633 -183 q 1658 54 1633 -31 q 1721 224 1682 139 q 1805 386 1760 308 q 1894 529 1850 464 q 1971 639 1938 594 q 2088 787 2022 710 q 2229 932 2153 864 q 2390 1042 2306 1000 q 2563 1083 2475 1083 q 2644 1072 2619 1083 q 2669 1040 2669 1061 q 2649 1017 2669 1026 q 2589 1007 2628 1007 q 2388 1038 2490 1007 q 2174 1115 2285 1069 q 1942 1207 2063 1161 q 1688 1284 1821 1253 q 1407 1315 1556 1315 q 1127 1278 1250 1315 q 919 1178 1004 1240 q 788 1041 833 1117 q 743 889 743 965 q 793 731 743 806 q 945 610 843 657 q 1201 564 1047 564 q 1407 606 1324 564 q 1533 710 1490 647 q 1576 835 1576 772 q 1550 927 1576 885 q 1470 995 1524 969 q 1333 1021 1417 1021 q 1210 1004 1268 1021 q 1113 958 1153 988 l 1104 965 q 1206 1012 1146 994 q 1333 1029 1265 1029 q 1474 1002 1418 1029 q 1557 932 1529 975 q 1585 838 1585 889 q 1541 706 1585 771 q 1412 599 1497 642 q 1200 556 1326 556 q 938 604 1043 556 q 782 731 833 653 q 731 896 731 808 q 774 1052 731 975 q 904 1193 818 1129 q 1114 1294 990 1257 q 1396 1332 1238 1332 q 1670 1300 1538 1332 q 1926 1222 1803 1268 q 2165 1128 2050 1175 q 2384 1050 2279 1082 q 2585 1018 2489 1018 q 2635 1026 2622 1018 q 2649 1044 2649 1035 q 2629 1065 2649 1056 q 2572 1074 2610 1074 q 2387 1028 2475 1074 q 2220 910 2299 983 q 2074 749 2142 836 q 1949 575 2006 661 q 1815 344 1876 467 q 1715 103 1753 222 q 1676 -118 1676 -15 q 1695 -240 1676 -183 q 1751 -332 1714 -297 q 1844 -367 1788 -367 q 1895 -357 1874 -367 q 1933 -331 1917 -347 l 1935 -337 q 1898 -364 1919 -354 q 1844 -374 1876 -374 m 688 -328 q 386 -281 524 -328 q 147 -149 249 -233 q -10 52 46 -64 q -67 306 -67 168 q -7 570 -67 449 q 161 781 53 692 q 415 921 269 871 q 732 971 561 971 q 1045 913 910 971 q 1253 750 1181 856 l 1246 743 q 1040 906 1174 849 q 732 963 907 963 q 418 913 563 963 q 167 775 274 864 q 1 567 60 686 q -58 306 -58 447 q -3 56 -58 171 q 153 -142 53 -58 q 390 -273 253 -226 q 688 -319 526 -319 q 951 -285 831 -319 q 1162 -190 1072 -251 q 1302 -44 1251 -128 q 1353 136 1353 39 q 1284 315 1353 236 q 1096 438 1215 393 q 822 482 976 482 q 609 442 690 482 q 528 338 528 403 q 717 224 528 224 q 867 244 793 224 q 1003 301 942 264 q 1100 389 1064 338 q 1136 503 1136 440 q 1100 608 1136 564 q 1008 678 1064 651 q 890 717 953 704 q 772 729 826 729 q 546 695 647 729 q 373 603 444 661 q 262 472 301 546 q 222 317 222 397 q 276 142 222 215 q 425 30 331 69 q 643 -10 519 -10 q 878 27 764 -10 q 1101 129 993 64 q 1312 279 1208 194 q 1517 460 1415 364 q 1722 655 1619 556 q 1928 847 1824 754 q 2008 912 1956 872 q 2133 990 2061 951 q 2286 1050 2204 1029 l 2322 1049 q 2156 991 2233 1031 q 2022 910 2079 951 q 1933 839 1965 868 q 1776 676 1851 765 q 1626 491 1701 586 q 1473 306 1551 396 q 1304 146 1394 217 q 1130 35 1228 85 q 920 -43 1032 -14 q 690 -72 808 -72 q 422 -19 528 -72 q 265 122 315 33 q 214 317 214 211 q 253 476 214 400 q 365 610 292 551 q 541 703 438 669 q 774 738 644 738 q 888 726 824 738 q 1010 687 951 714 q 1106 613 1068 660 q 1144 500 1144 567 q 1107 383 1144 435 q 1008 294 1069 331 q 870 237 946 257 q 717 215 794 217 q 519 338 519 215 q 603 449 519 407 q 822 490 688 490 q 1100 445 978 490 q 1292 319 1222 400 q 1361 136 1361 239 q 1310 -48 1361 36 q 1168 -195 1260 -132 q 954 -293 1076 -258 q 688 -328 832 -328 m 1354 369 l 1361 379 l 1985 379 l 1985 369 l 1354 369 m 2488 1356 l 2536 1356 q 2492 1309 2521 1329 q 2431 1277 2463 1289 q 2372 1265 2400 1265 q 2320 1278 2338 1265 q 2303 1310 2303 1290 q 2307 1333 2303 1321 q 2318 1356 2311 1344 l 2360 1356 q 2351 1333 2354 1344 q 2347 1310 2347 1321 q 2378 1275 2347 1275 q 2438 1299 2406 1275 q 2488 1356 2469 1322 m 2658 1410 l 2468 1489 q 2446 1514 2446 1497 q 2469 1533 2446 1533 q 2483 1531 2476 1533 q 2499 1524 2490 1529 l 2661 1415 l 2658 1410 z "},"Ẳ":{"ha":1910,"x_min":-67,"x_max":2669,"o":"m 1844 -374 q 1732 -339 1779 -374 q 1659 -244 1685 -304 q 1633 -108 1633 -183 q 1658 54 1633 -31 q 1721 224 1682 139 q 1805 386 1760 308 q 1894 529 1850 464 q 1971 639 1938 594 q 2088 787 2022 710 q 2229 932 2153 864 q 2390 1042 2306 1000 q 2563 1083 2475 1083 q 2644 1072 2619 1083 q 2669 1040 2669 1061 q 2649 1017 2669 1026 q 2589 1007 2628 1007 q 2388 1038 2490 1007 q 2174 1115 2285 1069 q 1942 1207 2063 1161 q 1688 1284 1821 1253 q 1407 1315 1556 1315 q 1127 1278 1250 1315 q 919 1178 1004 1240 q 788 1041 833 1117 q 743 889 743 965 q 793 731 743 806 q 945 610 843 657 q 1201 564 1047 564 q 1407 606 1324 564 q 1533 710 1490 647 q 1576 835 1576 772 q 1550 927 1576 885 q 1470 995 1524 969 q 1333 1021 1417 1021 q 1210 1004 1268 1021 q 1113 958 1153 988 l 1104 965 q 1206 1012 1146 994 q 1333 1029 1265 1029 q 1474 1002 1418 1029 q 1557 932 1529 975 q 1585 838 1585 889 q 1541 706 1585 771 q 1412 599 1497 642 q 1200 556 1326 556 q 938 604 1043 556 q 782 731 833 653 q 731 896 731 808 q 774 1052 731 975 q 904 1193 818 1129 q 1114 1294 990 1257 q 1396 1332 1238 1332 q 1670 1300 1538 1332 q 1926 1222 1803 1268 q 2165 1128 2050 1175 q 2384 1050 2279 1082 q 2585 1018 2489 1018 q 2635 1026 2622 1018 q 2649 1044 2649 1035 q 2629 1065 2649 1056 q 2572 1074 2610 1074 q 2387 1028 2475 1074 q 2220 910 2299 983 q 2074 749 2142 836 q 1949 575 2006 661 q 1815 344 1876 467 q 1715 103 1753 222 q 1676 -118 1676 -15 q 1695 -240 1676 -183 q 1751 -332 1714 -297 q 1844 -367 1788 -367 q 1895 -357 1874 -367 q 1933 -331 1917 -347 l 1935 -337 q 1898 -364 1919 -354 q 1844 -374 1876 -374 m 688 -328 q 386 -281 524 -328 q 147 -149 249 -233 q -10 52 46 -64 q -67 306 -67 168 q -7 570 -67 449 q 161 781 53 692 q 415 921 269 871 q 732 971 561 971 q 1045 913 910 971 q 1253 750 1181 856 l 1246 743 q 1040 906 1174 849 q 732 963 907 963 q 418 913 563 963 q 167 775 274 864 q 1 567 60 686 q -58 306 -58 447 q -3 56 -58 171 q 153 -142 53 -58 q 390 -273 253 -226 q 688 -319 526 -319 q 951 -285 831 -319 q 1162 -190 1072 -251 q 1302 -44 1251 -128 q 1353 136 1353 39 q 1284 315 1353 236 q 1096 438 1215 393 q 822 482 976 482 q 609 442 690 482 q 528 338 528 403 q 717 224 528 224 q 867 244 793 224 q 1003 301 942 264 q 1100 389 1064 338 q 1136 503 1136 440 q 1100 608 1136 564 q 1008 678 1064 651 q 890 717 953 704 q 772 729 826 729 q 546 695 647 729 q 373 603 444 661 q 262 472 301 546 q 222 317 222 397 q 276 142 222 215 q 425 30 331 69 q 643 -10 519 -10 q 878 27 764 -10 q 1101 129 993 64 q 1312 279 1208 194 q 1517 460 1415 364 q 1722 655 1619 556 q 1928 847 1824 754 q 2008 912 1956 872 q 2133 990 2061 951 q 2286 1050 2204 1029 l 2322 1049 q 2156 991 2233 1031 q 2022 910 2079 951 q 1933 839 1965 868 q 1776 676 1851 765 q 1626 491 1701 586 q 1473 306 1551 396 q 1304 146 1394 217 q 1130 35 1228 85 q 920 -43 1032 -14 q 690 -72 808 -72 q 422 -19 528 -72 q 265 122 315 33 q 214 317 214 211 q 253 476 214 400 q 365 610 292 551 q 541 703 438 669 q 774 738 644 738 q 888 726 824 738 q 1010 687 951 714 q 1106 613 1068 660 q 1144 500 1144 567 q 1107 383 1144 435 q 1008 294 1069 331 q 870 237 946 257 q 717 215 794 217 q 519 338 519 215 q 603 449 519 407 q 822 490 688 490 q 1100 445 978 490 q 1292 319 1222 400 q 1361 136 1361 239 q 1310 -48 1361 36 q 1168 -195 1260 -132 q 954 -293 1076 -258 q 688 -328 832 -328 m 1354 369 l 1361 379 l 1985 379 l 1985 369 l 1354 369 m 2488 1356 l 2536 1356 q 2492 1309 2521 1329 q 2432 1277 2464 1289 q 2372 1265 2400 1265 q 2320 1278 2338 1265 q 2303 1310 2303 1290 q 2307 1333 2303 1321 q 2317 1356 2311 1344 l 2360 1356 q 2351 1333 2354 1344 q 2347 1310 2347 1321 q 2378 1275 2347 1275 q 2438 1299 2406 1275 q 2488 1356 2469 1322 m 2460 1486 l 2461 1496 q 2494 1511 2475 1506 q 2535 1517 2513 1517 q 2572 1490 2572 1517 q 2533 1422 2572 1460 q 2436 1361 2494 1383 l 2436 1365 q 2481 1397 2458 1376 q 2517 1442 2503 1418 q 2531 1481 2531 1465 q 2506 1501 2531 1501 q 2480 1497 2493 1501 q 2460 1486 2467 1492 z "},"Ẵ":{"ha":1910,"x_min":-67,"x_max":2669,"o":"m 1844 -374 q 1732 -339 1779 -374 q 1659 -244 1685 -304 q 1633 -108 1633 -183 q 1658 54 1633 -31 q 1721 224 1682 139 q 1805 386 1760 308 q 1894 529 1850 464 q 1971 639 1938 594 q 2088 787 2022 710 q 2229 932 2153 864 q 2390 1042 2306 1000 q 2563 1083 2475 1083 q 2644 1072 2619 1083 q 2669 1040 2669 1061 q 2649 1017 2669 1026 q 2589 1007 2628 1007 q 2388 1038 2490 1007 q 2174 1115 2285 1069 q 1942 1207 2063 1161 q 1688 1284 1821 1253 q 1407 1315 1556 1315 q 1127 1278 1250 1315 q 919 1178 1004 1240 q 788 1041 833 1117 q 743 889 743 965 q 793 731 743 806 q 945 610 843 657 q 1201 564 1047 564 q 1407 606 1324 564 q 1533 710 1490 647 q 1576 835 1576 772 q 1550 927 1576 885 q 1470 995 1524 969 q 1333 1021 1417 1021 q 1210 1004 1268 1021 q 1113 958 1153 988 l 1104 965 q 1206 1012 1146 994 q 1333 1029 1265 1029 q 1474 1002 1418 1029 q 1557 932 1529 975 q 1585 838 1585 889 q 1541 706 1585 771 q 1412 599 1497 642 q 1200 556 1326 556 q 938 604 1043 556 q 782 731 833 653 q 731 896 731 808 q 774 1052 731 975 q 904 1193 818 1129 q 1114 1294 990 1257 q 1396 1332 1238 1332 q 1670 1300 1538 1332 q 1926 1222 1803 1268 q 2165 1128 2050 1175 q 2384 1050 2279 1082 q 2585 1018 2489 1018 q 2635 1026 2622 1018 q 2649 1044 2649 1035 q 2629 1065 2649 1056 q 2572 1074 2610 1074 q 2387 1028 2475 1074 q 2220 910 2299 983 q 2074 749 2142 836 q 1949 575 2006 661 q 1815 344 1876 467 q 1715 103 1753 222 q 1676 -118 1676 -15 q 1695 -240 1676 -183 q 1751 -332 1714 -297 q 1844 -367 1788 -367 q 1895 -357 1874 -367 q 1933 -331 1917 -347 l 1935 -337 q 1898 -364 1919 -354 q 1844 -374 1876 -374 m 688 -328 q 386 -281 524 -328 q 147 -149 249 -233 q -10 52 46 -64 q -67 306 -67 168 q -7 570 -67 449 q 161 781 53 692 q 415 921 269 871 q 732 971 561 971 q 1045 913 910 971 q 1253 750 1181 856 l 1246 743 q 1040 906 1174 849 q 732 963 907 963 q 418 913 563 963 q 167 775 274 864 q 1 567 60 686 q -58 306 -58 447 q -3 56 -58 171 q 153 -142 53 -58 q 390 -273 253 -226 q 688 -319 526 -319 q 951 -285 831 -319 q 1162 -190 1072 -251 q 1302 -44 1251 -128 q 1353 136 1353 39 q 1284 315 1353 236 q 1096 438 1215 393 q 822 482 976 482 q 609 442 690 482 q 528 338 528 403 q 717 224 528 224 q 867 244 793 224 q 1003 301 942 264 q 1100 389 1064 338 q 1136 503 1136 440 q 1100 608 1136 564 q 1008 678 1064 651 q 890 717 953 704 q 772 729 826 729 q 546 695 647 729 q 373 603 444 661 q 262 472 301 546 q 222 317 222 397 q 276 142 222 215 q 425 30 331 69 q 643 -10 519 -10 q 878 27 764 -10 q 1101 129 993 64 q 1312 279 1208 194 q 1517 460 1415 364 q 1722 655 1619 556 q 1928 847 1824 754 q 2008 912 1956 872 q 2133 990 2061 951 q 2286 1050 2204 1029 l 2322 1049 q 2156 991 2233 1031 q 2022 910 2079 951 q 1933 839 1965 868 q 1776 676 1851 765 q 1626 491 1701 586 q 1473 306 1551 396 q 1304 146 1394 217 q 1130 35 1228 85 q 920 -43 1032 -14 q 690 -72 808 -72 q 422 -19 528 -72 q 265 122 315 33 q 214 317 214 211 q 253 476 214 400 q 365 610 292 551 q 541 703 438 669 q 774 738 644 738 q 888 726 824 738 q 1010 687 951 714 q 1106 613 1068 660 q 1144 500 1144 567 q 1107 383 1144 435 q 1008 294 1069 331 q 870 237 946 257 q 717 215 794 217 q 519 338 519 215 q 603 449 519 407 q 822 490 688 490 q 1100 445 978 490 q 1292 319 1222 400 q 1361 136 1361 239 q 1310 -48 1361 36 q 1168 -195 1260 -132 q 954 -293 1076 -258 q 688 -328 832 -328 m 1354 369 l 1361 379 l 1985 379 l 1985 369 l 1354 369 m 2488 1356 l 2536 1356 q 2492 1309 2521 1329 q 2431 1277 2463 1289 q 2372 1265 2400 1265 q 2320 1278 2338 1265 q 2303 1310 2303 1290 q 2307 1333 2303 1321 q 2318 1356 2311 1344 l 2360 1356 q 2351 1333 2354 1344 q 2347 1310 2347 1321 q 2378 1275 2347 1275 q 2438 1299 2406 1275 q 2488 1356 2469 1322 m 2346 1438 l 2343 1444 q 2394 1497 2360 1479 q 2467 1514 2429 1514 q 2515 1501 2494 1514 q 2557 1478 2536 1489 q 2604 1467 2578 1467 q 2635 1474 2619 1467 q 2657 1508 2651 1482 l 2661 1501 q 2628 1452 2656 1472 q 2563 1432 2600 1432 q 2513 1442 2536 1432 q 2467 1462 2490 1453 q 2410 1471 2443 1471 q 2346 1438 2367 1471 z "},"Â":{"ha":1910,"x_min":-67,"x_max":2669,"o":"m 1844 -374 q 1732 -339 1779 -374 q 1659 -244 1685 -304 q 1633 -108 1633 -183 q 1658 54 1633 -31 q 1721 224 1682 139 q 1805 386 1760 308 q 1894 529 1850 464 q 1971 639 1938 594 q 2088 787 2022 710 q 2229 932 2153 864 q 2390 1042 2306 1000 q 2563 1083 2475 1083 q 2644 1072 2619 1083 q 2669 1040 2669 1061 q 2649 1017 2669 1026 q 2589 1007 2628 1007 q 2388 1038 2490 1007 q 2174 1115 2285 1069 q 1942 1207 2063 1161 q 1688 1284 1821 1253 q 1407 1315 1556 1315 q 1127 1278 1250 1315 q 919 1178 1004 1240 q 788 1041 833 1117 q 743 889 743 965 q 793 731 743 806 q 945 610 843 657 q 1201 564 1047 564 q 1407 606 1324 564 q 1533 710 1490 647 q 1576 835 1576 772 q 1550 927 1576 885 q 1470 995 1524 969 q 1333 1021 1417 1021 q 1210 1004 1268 1021 q 1113 958 1153 988 l 1104 965 q 1206 1012 1146 994 q 1333 1029 1265 1029 q 1474 1002 1418 1029 q 1557 932 1529 975 q 1585 838 1585 889 q 1541 706 1585 771 q 1412 599 1497 642 q 1200 556 1326 556 q 938 604 1043 556 q 782 731 833 653 q 731 896 731 808 q 774 1052 731 975 q 904 1193 818 1129 q 1114 1294 990 1257 q 1396 1332 1238 1332 q 1670 1300 1538 1332 q 1926 1222 1803 1268 q 2165 1128 2050 1175 q 2384 1050 2279 1082 q 2585 1018 2489 1018 q 2635 1026 2622 1018 q 2649 1044 2649 1035 q 2629 1065 2649 1056 q 2572 1074 2610 1074 q 2387 1028 2475 1074 q 2220 910 2299 983 q 2074 749 2142 836 q 1949 575 2006 661 q 1815 344 1876 467 q 1715 103 1753 222 q 1676 -118 1676 -15 q 1695 -240 1676 -183 q 1751 -332 1714 -297 q 1844 -367 1788 -367 q 1895 -357 1874 -367 q 1933 -331 1917 -347 l 1935 -337 q 1898 -364 1919 -354 q 1844 -374 1876 -374 m 688 -328 q 386 -281 524 -328 q 147 -149 249 -233 q -10 52 46 -64 q -67 306 -67 168 q -7 570 -67 449 q 161 781 53 692 q 415 921 269 871 q 732 971 561 971 q 1045 913 910 971 q 1253 750 1181 856 l 1246 743 q 1040 906 1174 849 q 732 963 907 963 q 418 913 563 963 q 167 775 274 864 q 1 567 60 686 q -58 306 -58 447 q -3 56 -58 171 q 153 -142 53 -58 q 390 -273 253 -226 q 688 -319 526 -319 q 951 -285 831 -319 q 1162 -190 1072 -251 q 1302 -44 1251 -128 q 1353 136 1353 39 q 1284 315 1353 236 q 1096 438 1215 393 q 822 482 976 482 q 609 442 690 482 q 528 338 528 403 q 717 224 528 224 q 867 244 793 224 q 1003 301 942 264 q 1100 389 1064 338 q 1136 503 1136 440 q 1100 608 1136 564 q 1008 678 1064 651 q 890 717 953 704 q 772 729 826 729 q 546 695 647 729 q 373 603 444 661 q 262 472 301 546 q 222 317 222 397 q 276 142 222 215 q 425 30 331 69 q 643 -10 519 -10 q 878 27 764 -10 q 1101 129 993 64 q 1312 279 1208 194 q 1517 460 1415 364 q 1722 655 1619 556 q 1928 847 1824 754 q 2008 912 1956 872 q 2133 990 2061 951 q 2286 1050 2204 1029 l 2322 1049 q 2156 991 2233 1031 q 2022 910 2079 951 q 1933 839 1965 868 q 1776 676 1851 765 q 1626 491 1701 586 q 1473 306 1551 396 q 1304 146 1394 217 q 1130 35 1228 85 q 920 -43 1032 -14 q 690 -72 808 -72 q 422 -19 528 -72 q 265 122 315 33 q 214 317 214 211 q 253 476 214 400 q 365 610 292 551 q 541 703 438 669 q 774 738 644 738 q 888 726 824 738 q 1010 687 951 714 q 1106 613 1068 660 q 1144 500 1144 567 q 1107 383 1144 435 q 1008 294 1069 331 q 870 237 946 257 q 717 215 794 217 q 519 338 519 215 q 603 449 519 407 q 822 490 688 490 q 1100 445 978 490 q 1292 319 1222 400 q 1361 136 1361 239 q 1310 -48 1361 36 q 1168 -195 1260 -132 q 954 -293 1076 -258 q 688 -328 832 -328 m 1354 369 l 1361 379 l 1985 379 l 1985 369 l 1354 369 m 2258 1240 l 2257 1246 q 2313 1271 2275 1253 q 2394 1310 2351 1289 q 2470 1349 2436 1332 q 2515 1374 2504 1367 q 2526 1360 2526 1374 q 2515 1313 2521 1340 q 2508 1260 2508 1285 q 2508 1249 2508 1254 q 2510 1238 2508 1244 q 2504 1235 2510 1235 q 2499 1239 2501 1235 q 2481 1278 2489 1260 q 2469 1321 2474 1297 l 2258 1240 z "},"Ấ":{"ha":1910,"x_min":-67,"x_max":2669,"o":"m 1844 -374 q 1732 -339 1779 -374 q 1659 -244 1685 -304 q 1633 -108 1633 -183 q 1658 54 1633 -31 q 1721 224 1682 139 q 1805 386 1760 308 q 1894 529 1850 464 q 1971 639 1938 594 q 2088 787 2022 710 q 2229 932 2153 864 q 2390 1042 2306 1000 q 2563 1083 2475 1083 q 2644 1072 2619 1083 q 2669 1040 2669 1061 q 2649 1017 2669 1026 q 2589 1007 2628 1007 q 2388 1038 2490 1007 q 2174 1115 2285 1069 q 1942 1207 2063 1161 q 1688 1284 1821 1253 q 1407 1315 1556 1315 q 1127 1278 1250 1315 q 919 1178 1004 1240 q 788 1041 833 1117 q 743 889 743 965 q 793 731 743 806 q 945 610 843 657 q 1201 564 1047 564 q 1407 606 1324 564 q 1533 710 1490 647 q 1576 835 1576 772 q 1550 927 1576 885 q 1470 995 1524 969 q 1333 1021 1417 1021 q 1210 1004 1268 1021 q 1113 958 1153 988 l 1104 965 q 1206 1012 1146 994 q 1333 1029 1265 1029 q 1474 1002 1418 1029 q 1557 932 1529 975 q 1585 838 1585 889 q 1541 706 1585 771 q 1412 599 1497 642 q 1200 556 1326 556 q 938 604 1043 556 q 782 731 833 653 q 731 896 731 808 q 774 1052 731 975 q 904 1193 818 1129 q 1114 1294 990 1257 q 1396 1332 1238 1332 q 1670 1300 1538 1332 q 1926 1222 1803 1268 q 2165 1128 2050 1175 q 2384 1050 2279 1082 q 2585 1018 2489 1018 q 2635 1026 2622 1018 q 2649 1044 2649 1035 q 2629 1065 2649 1056 q 2572 1074 2610 1074 q 2387 1028 2475 1074 q 2220 910 2299 983 q 2074 749 2142 836 q 1949 575 2006 661 q 1815 344 1876 467 q 1715 103 1753 222 q 1676 -118 1676 -15 q 1695 -240 1676 -183 q 1751 -332 1714 -297 q 1844 -367 1788 -367 q 1895 -357 1874 -367 q 1933 -331 1917 -347 l 1935 -337 q 1898 -364 1919 -354 q 1844 -374 1876 -374 m 688 -328 q 386 -281 524 -328 q 147 -149 249 -233 q -10 52 46 -64 q -67 306 -67 168 q -7 570 -67 449 q 161 781 53 692 q 415 921 269 871 q 732 971 561 971 q 1045 913 910 971 q 1253 750 1181 856 l 1246 743 q 1040 906 1174 849 q 732 963 907 963 q 418 913 563 963 q 167 775 274 864 q 1 567 60 686 q -58 306 -58 447 q -3 56 -58 171 q 153 -142 53 -58 q 390 -273 253 -226 q 688 -319 526 -319 q 951 -285 831 -319 q 1162 -190 1072 -251 q 1302 -44 1251 -128 q 1353 136 1353 39 q 1284 315 1353 236 q 1096 438 1215 393 q 822 482 976 482 q 609 442 690 482 q 528 338 528 403 q 717 224 528 224 q 867 244 793 224 q 1003 301 942 264 q 1100 389 1064 338 q 1136 503 1136 440 q 1100 608 1136 564 q 1008 678 1064 651 q 890 717 953 704 q 772 729 826 729 q 546 695 647 729 q 373 603 444 661 q 262 472 301 546 q 222 317 222 397 q 276 142 222 215 q 425 30 331 69 q 643 -10 519 -10 q 878 27 764 -10 q 1101 129 993 64 q 1312 279 1208 194 q 1517 460 1415 364 q 1722 655 1619 556 q 1928 847 1824 754 q 2008 912 1956 872 q 2133 990 2061 951 q 2286 1050 2204 1029 l 2322 1049 q 2156 991 2233 1031 q 2022 910 2079 951 q 1933 839 1965 868 q 1776 676 1851 765 q 1626 491 1701 586 q 1473 306 1551 396 q 1304 146 1394 217 q 1130 35 1228 85 q 920 -43 1032 -14 q 690 -72 808 -72 q 422 -19 528 -72 q 265 122 315 33 q 214 317 214 211 q 253 476 214 400 q 365 610 292 551 q 541 703 438 669 q 774 738 644 738 q 888 726 824 738 q 1010 687 951 714 q 1106 613 1068 660 q 1144 500 1144 567 q 1107 383 1144 435 q 1008 294 1069 331 q 870 237 946 257 q 717 215 794 217 q 519 338 519 215 q 603 449 519 407 q 822 490 688 490 q 1100 445 978 490 q 1292 319 1222 400 q 1361 136 1361 239 q 1310 -48 1361 36 q 1168 -195 1260 -132 q 954 -293 1076 -258 q 688 -328 832 -328 m 1354 369 l 1361 379 l 1985 379 l 1985 369 l 1354 369 m 2258 1240 l 2257 1246 q 2313 1271 2275 1253 q 2394 1310 2351 1289 q 2470 1349 2436 1332 q 2515 1374 2504 1367 q 2526 1360 2526 1374 q 2515 1313 2521 1340 q 2508 1260 2508 1285 q 2508 1249 2508 1254 q 2510 1238 2508 1244 q 2504 1235 2510 1235 q 2499 1239 2501 1235 q 2481 1278 2489 1260 q 2469 1321 2474 1297 l 2258 1240 m 2431 1410 l 2428 1415 l 2590 1524 q 2621 1533 2606 1533 q 2643 1514 2643 1533 q 2622 1489 2643 1497 l 2431 1410 z "},"Ậ":{"ha":1910,"x_min":-67,"x_max":2669,"o":"m 1844 -374 q 1732 -339 1779 -374 q 1659 -244 1685 -304 q 1633 -108 1633 -183 q 1658 54 1633 -31 q 1721 224 1682 139 q 1805 386 1760 308 q 1894 529 1850 464 q 1971 639 1938 594 q 2088 787 2022 710 q 2229 932 2153 864 q 2390 1042 2306 1000 q 2563 1083 2475 1083 q 2644 1072 2619 1083 q 2669 1040 2669 1061 q 2649 1017 2669 1026 q 2589 1007 2628 1007 q 2388 1038 2490 1007 q 2174 1115 2285 1069 q 1942 1207 2063 1161 q 1688 1284 1821 1253 q 1407 1315 1556 1315 q 1127 1278 1250 1315 q 919 1178 1004 1240 q 788 1041 833 1117 q 743 889 743 965 q 793 731 743 806 q 945 610 843 657 q 1201 564 1047 564 q 1407 606 1324 564 q 1533 710 1490 647 q 1576 835 1576 772 q 1550 927 1576 885 q 1470 995 1524 969 q 1333 1021 1417 1021 q 1210 1004 1268 1021 q 1113 958 1153 988 l 1104 965 q 1206 1012 1146 994 q 1333 1029 1265 1029 q 1474 1002 1418 1029 q 1557 932 1529 975 q 1585 838 1585 889 q 1541 706 1585 771 q 1412 599 1497 642 q 1200 556 1326 556 q 938 604 1043 556 q 782 731 833 653 q 731 896 731 808 q 774 1052 731 975 q 904 1193 818 1129 q 1114 1294 990 1257 q 1396 1332 1238 1332 q 1670 1300 1538 1332 q 1926 1222 1803 1268 q 2165 1128 2050 1175 q 2384 1050 2279 1082 q 2585 1018 2489 1018 q 2635 1026 2622 1018 q 2649 1044 2649 1035 q 2629 1065 2649 1056 q 2572 1074 2610 1074 q 2387 1028 2475 1074 q 2220 910 2299 983 q 2074 749 2142 836 q 1949 575 2006 661 q 1815 344 1876 467 q 1715 103 1753 222 q 1676 -118 1676 -15 q 1695 -240 1676 -183 q 1751 -332 1714 -297 q 1844 -367 1788 -367 q 1895 -357 1874 -367 q 1933 -331 1917 -347 l 1935 -337 q 1898 -364 1919 -354 q 1844 -374 1876 -374 m 688 -328 q 386 -281 524 -328 q 147 -149 249 -233 q -10 52 46 -64 q -67 306 -67 168 q -7 570 -67 449 q 161 781 53 692 q 415 921 269 871 q 732 971 561 971 q 1045 913 910 971 q 1253 750 1181 856 l 1246 743 q 1040 906 1174 849 q 732 963 907 963 q 418 913 563 963 q 167 775 274 864 q 1 567 60 686 q -58 306 -58 447 q -3 56 -58 171 q 153 -142 53 -58 q 390 -273 253 -226 q 688 -319 526 -319 q 951 -285 831 -319 q 1162 -190 1072 -251 q 1302 -44 1251 -128 q 1353 136 1353 39 q 1284 315 1353 236 q 1096 438 1215 393 q 822 482 976 482 q 609 442 690 482 q 528 338 528 403 q 717 224 528 224 q 867 244 793 224 q 1003 301 942 264 q 1100 389 1064 338 q 1136 503 1136 440 q 1100 608 1136 564 q 1008 678 1064 651 q 890 717 953 704 q 772 729 826 729 q 546 695 647 729 q 373 603 444 661 q 262 472 301 546 q 222 317 222 397 q 276 142 222 215 q 425 30 331 69 q 643 -10 519 -10 q 878 27 764 -10 q 1101 129 993 64 q 1312 279 1208 194 q 1517 460 1415 364 q 1722 655 1619 556 q 1928 847 1824 754 q 2008 912 1956 872 q 2133 990 2061 951 q 2286 1050 2204 1029 l 2322 1049 q 2156 991 2233 1031 q 2022 910 2079 951 q 1933 839 1965 868 q 1776 676 1851 765 q 1626 491 1701 586 q 1473 306 1551 396 q 1304 146 1394 217 q 1130 35 1228 85 q 920 -43 1032 -14 q 690 -72 808 -72 q 422 -19 528 -72 q 265 122 315 33 q 214 317 214 211 q 253 476 214 400 q 365 610 292 551 q 541 703 438 669 q 774 738 644 738 q 888 726 824 738 q 1010 687 951 714 q 1106 613 1068 660 q 1144 500 1144 567 q 1107 383 1144 435 q 1008 294 1069 331 q 870 237 946 257 q 717 215 794 217 q 519 338 519 215 q 603 449 519 407 q 822 490 688 490 q 1100 445 978 490 q 1292 319 1222 400 q 1361 136 1361 239 q 1310 -48 1361 36 q 1168 -195 1260 -132 q 954 -293 1076 -258 q 688 -328 832 -328 m 1354 369 l 1361 379 l 1985 379 l 1985 369 l 1354 369 m 1436 -139 q 1450 -149 1450 -139 q 1430 -185 1450 -164 q 1384 -224 1410 -207 q 1339 -240 1358 -240 q 1328 -231 1328 -240 q 1348 -194 1328 -215 q 1394 -156 1368 -172 q 1436 -139 1419 -139 m 2258 1240 l 2257 1246 q 2313 1271 2275 1253 q 2394 1310 2351 1289 q 2470 1349 2436 1332 q 2515 1374 2504 1367 q 2526 1360 2526 1374 q 2515 1313 2521 1340 q 2508 1260 2508 1285 q 2508 1249 2508 1254 q 2510 1238 2508 1244 q 2504 1235 2510 1235 q 2499 1239 2501 1235 q 2481 1278 2489 1260 q 2469 1321 2474 1297 l 2258 1240 z "},"Ầ":{"ha":1910,"x_min":-67,"x_max":2699,"o":"m 1844 -374 q 1732 -339 1779 -374 q 1659 -244 1685 -304 q 1633 -108 1633 -183 q 1658 54 1633 -31 q 1721 224 1682 139 q 1805 386 1760 308 q 1894 529 1850 464 q 1971 639 1938 594 q 2088 787 2022 710 q 2229 932 2153 864 q 2390 1042 2306 1000 q 2563 1083 2475 1083 q 2644 1072 2619 1083 q 2669 1040 2669 1061 q 2649 1017 2669 1026 q 2589 1007 2628 1007 q 2388 1038 2490 1007 q 2174 1115 2285 1069 q 1942 1207 2063 1161 q 1688 1284 1821 1253 q 1407 1315 1556 1315 q 1127 1278 1250 1315 q 919 1178 1004 1240 q 788 1041 833 1117 q 743 889 743 965 q 793 731 743 806 q 945 610 843 657 q 1201 564 1047 564 q 1407 606 1324 564 q 1533 710 1490 647 q 1576 835 1576 772 q 1550 927 1576 885 q 1470 995 1524 969 q 1333 1021 1417 1021 q 1210 1004 1268 1021 q 1113 958 1153 988 l 1104 965 q 1206 1012 1146 994 q 1333 1029 1265 1029 q 1474 1002 1418 1029 q 1557 932 1529 975 q 1585 838 1585 889 q 1541 706 1585 771 q 1412 599 1497 642 q 1200 556 1326 556 q 938 604 1043 556 q 782 731 833 653 q 731 896 731 808 q 774 1052 731 975 q 904 1193 818 1129 q 1114 1294 990 1257 q 1396 1332 1238 1332 q 1670 1300 1538 1332 q 1926 1222 1803 1268 q 2165 1128 2050 1175 q 2384 1050 2279 1082 q 2585 1018 2489 1018 q 2635 1026 2622 1018 q 2649 1044 2649 1035 q 2629 1065 2649 1056 q 2572 1074 2610 1074 q 2387 1028 2475 1074 q 2220 910 2299 983 q 2074 749 2142 836 q 1949 575 2006 661 q 1815 344 1876 467 q 1715 103 1753 222 q 1676 -118 1676 -15 q 1695 -240 1676 -183 q 1751 -332 1714 -297 q 1844 -367 1788 -367 q 1895 -357 1874 -367 q 1933 -331 1917 -347 l 1935 -337 q 1898 -364 1919 -354 q 1844 -374 1876 -374 m 688 -328 q 386 -281 524 -328 q 147 -149 249 -233 q -10 52 46 -64 q -67 306 -67 168 q -7 570 -67 449 q 161 781 53 692 q 415 921 269 871 q 732 971 561 971 q 1045 913 910 971 q 1253 750 1181 856 l 1246 743 q 1040 906 1174 849 q 732 963 907 963 q 418 913 563 963 q 167 775 274 864 q 1 567 60 686 q -58 306 -58 447 q -3 56 -58 171 q 153 -142 53 -58 q 390 -273 253 -226 q 688 -319 526 -319 q 951 -285 831 -319 q 1162 -190 1072 -251 q 1302 -44 1251 -128 q 1353 136 1353 39 q 1284 315 1353 236 q 1096 438 1215 393 q 822 482 976 482 q 609 442 690 482 q 528 338 528 403 q 717 224 528 224 q 867 244 793 224 q 1003 301 942 264 q 1100 389 1064 338 q 1136 503 1136 440 q 1100 608 1136 564 q 1008 678 1064 651 q 890 717 953 704 q 772 729 826 729 q 546 695 647 729 q 373 603 444 661 q 262 472 301 546 q 222 317 222 397 q 276 142 222 215 q 425 30 331 69 q 643 -10 519 -10 q 878 27 764 -10 q 1101 129 993 64 q 1312 279 1208 194 q 1517 460 1415 364 q 1722 655 1619 556 q 1928 847 1824 754 q 2008 912 1956 872 q 2133 990 2061 951 q 2286 1050 2204 1029 l 2322 1049 q 2156 991 2233 1031 q 2022 910 2079 951 q 1933 839 1965 868 q 1776 676 1851 765 q 1626 491 1701 586 q 1473 306 1551 396 q 1304 146 1394 217 q 1130 35 1228 85 q 920 -43 1032 -14 q 690 -72 808 -72 q 422 -19 528 -72 q 265 122 315 33 q 214 317 214 211 q 253 476 214 400 q 365 610 292 551 q 541 703 438 669 q 774 738 644 738 q 888 726 824 738 q 1010 687 951 714 q 1106 613 1068 660 q 1144 500 1144 567 q 1107 383 1144 435 q 1008 294 1069 331 q 870 237 946 257 q 717 215 794 217 q 519 338 519 215 q 603 449 519 407 q 822 490 688 490 q 1100 445 978 490 q 1292 319 1222 400 q 1361 136 1361 239 q 1310 -48 1361 36 q 1168 -195 1260 -132 q 954 -293 1076 -258 q 688 -328 832 -328 m 1354 369 l 1361 379 l 1985 379 l 1985 369 l 1354 369 m 2258 1240 l 2257 1246 q 2313 1271 2275 1253 q 2394 1310 2351 1289 q 2470 1349 2436 1332 q 2515 1374 2504 1367 q 2526 1360 2526 1374 q 2515 1313 2521 1340 q 2508 1260 2508 1285 q 2508 1249 2508 1254 q 2510 1238 2508 1244 q 2504 1235 2510 1235 q 2499 1239 2501 1235 q 2481 1278 2489 1260 q 2469 1321 2474 1297 l 2258 1240 m 2696 1410 l 2506 1489 q 2483 1514 2483 1497 q 2507 1533 2483 1533 q 2521 1531 2514 1533 q 2536 1524 2528 1529 l 2699 1415 l 2696 1410 z "},"Ẩ":{"ha":1910,"x_min":-67,"x_max":2669,"o":"m 1844 -374 q 1732 -339 1779 -374 q 1659 -244 1685 -304 q 1633 -108 1633 -183 q 1658 54 1633 -31 q 1721 224 1682 139 q 1805 386 1760 308 q 1894 529 1850 464 q 1971 639 1938 594 q 2088 787 2022 710 q 2229 932 2153 864 q 2390 1042 2306 1000 q 2563 1083 2475 1083 q 2644 1072 2619 1083 q 2669 1040 2669 1061 q 2649 1017 2669 1026 q 2589 1007 2628 1007 q 2388 1038 2490 1007 q 2174 1115 2285 1069 q 1942 1207 2063 1161 q 1688 1284 1821 1253 q 1407 1315 1556 1315 q 1127 1278 1250 1315 q 919 1178 1004 1240 q 788 1041 833 1117 q 743 889 743 965 q 793 731 743 806 q 945 610 843 657 q 1201 564 1047 564 q 1407 606 1324 564 q 1533 710 1490 647 q 1576 835 1576 772 q 1550 927 1576 885 q 1470 995 1524 969 q 1333 1021 1417 1021 q 1210 1004 1268 1021 q 1113 958 1153 988 l 1104 965 q 1206 1012 1146 994 q 1333 1029 1265 1029 q 1474 1002 1418 1029 q 1557 932 1529 975 q 1585 838 1585 889 q 1541 706 1585 771 q 1412 599 1497 642 q 1200 556 1326 556 q 938 604 1043 556 q 782 731 833 653 q 731 896 731 808 q 774 1052 731 975 q 904 1193 818 1129 q 1114 1294 990 1257 q 1396 1332 1238 1332 q 1670 1300 1538 1332 q 1926 1222 1803 1268 q 2165 1128 2050 1175 q 2384 1050 2279 1082 q 2585 1018 2489 1018 q 2635 1026 2622 1018 q 2649 1044 2649 1035 q 2629 1065 2649 1056 q 2572 1074 2610 1074 q 2387 1028 2475 1074 q 2220 910 2299 983 q 2074 749 2142 836 q 1949 575 2006 661 q 1815 344 1876 467 q 1715 103 1753 222 q 1676 -118 1676 -15 q 1695 -240 1676 -183 q 1751 -332 1714 -297 q 1844 -367 1788 -367 q 1895 -357 1874 -367 q 1933 -331 1917 -347 l 1935 -337 q 1898 -364 1919 -354 q 1844 -374 1876 -374 m 688 -328 q 386 -281 524 -328 q 147 -149 249 -233 q -10 52 46 -64 q -67 306 -67 168 q -7 570 -67 449 q 161 781 53 692 q 415 921 269 871 q 732 971 561 971 q 1045 913 910 971 q 1253 750 1181 856 l 1246 743 q 1040 906 1174 849 q 732 963 907 963 q 418 913 563 963 q 167 775 274 864 q 1 567 60 686 q -58 306 -58 447 q -3 56 -58 171 q 153 -142 53 -58 q 390 -273 253 -226 q 688 -319 526 -319 q 951 -285 831 -319 q 1162 -190 1072 -251 q 1302 -44 1251 -128 q 1353 136 1353 39 q 1284 315 1353 236 q 1096 438 1215 393 q 822 482 976 482 q 609 442 690 482 q 528 338 528 403 q 717 224 528 224 q 867 244 793 224 q 1003 301 942 264 q 1100 389 1064 338 q 1136 503 1136 440 q 1100 608 1136 564 q 1008 678 1064 651 q 890 717 953 704 q 772 729 826 729 q 546 695 647 729 q 373 603 444 661 q 262 472 301 546 q 222 317 222 397 q 276 142 222 215 q 425 30 331 69 q 643 -10 519 -10 q 878 27 764 -10 q 1101 129 993 64 q 1312 279 1208 194 q 1517 460 1415 364 q 1722 655 1619 556 q 1928 847 1824 754 q 2008 912 1956 872 q 2133 990 2061 951 q 2286 1050 2204 1029 l 2322 1049 q 2156 991 2233 1031 q 2022 910 2079 951 q 1933 839 1965 868 q 1776 676 1851 765 q 1626 491 1701 586 q 1473 306 1551 396 q 1304 146 1394 217 q 1130 35 1228 85 q 920 -43 1032 -14 q 690 -72 808 -72 q 422 -19 528 -72 q 265 122 315 33 q 214 317 214 211 q 253 476 214 400 q 365 610 292 551 q 541 703 438 669 q 774 738 644 738 q 888 726 824 738 q 1010 687 951 714 q 1106 613 1068 660 q 1144 500 1144 567 q 1107 383 1144 435 q 1008 294 1069 331 q 870 237 946 257 q 717 215 794 217 q 519 338 519 215 q 603 449 519 407 q 822 490 688 490 q 1100 445 978 490 q 1292 319 1222 400 q 1361 136 1361 239 q 1310 -48 1361 36 q 1168 -195 1260 -132 q 954 -293 1076 -258 q 688 -328 832 -328 m 1354 369 l 1361 379 l 1985 379 l 1985 369 l 1354 369 m 2258 1240 l 2257 1246 q 2313 1271 2275 1253 q 2394 1310 2351 1289 q 2470 1349 2436 1332 q 2515 1374 2504 1367 q 2526 1360 2526 1374 q 2515 1313 2521 1340 q 2508 1260 2508 1285 q 2508 1249 2508 1254 q 2510 1238 2508 1244 q 2504 1235 2510 1235 q 2499 1239 2501 1235 q 2481 1278 2489 1260 q 2469 1321 2474 1297 l 2258 1240 m 2496 1486 l 2497 1496 q 2530 1511 2511 1506 q 2569 1517 2549 1517 q 2607 1490 2607 1517 q 2568 1422 2607 1460 q 2471 1361 2529 1383 l 2471 1365 q 2515 1397 2493 1376 q 2551 1442 2536 1418 q 2567 1481 2567 1465 q 2540 1501 2567 1501 q 2515 1497 2528 1501 q 2496 1486 2501 1492 z "},"Ẫ":{"ha":1910,"x_min":-67,"x_max":2697,"o":"m 1844 -374 q 1732 -339 1779 -374 q 1659 -244 1685 -304 q 1633 -108 1633 -183 q 1658 54 1633 -31 q 1721 224 1682 139 q 1805 386 1760 308 q 1894 529 1850 464 q 1971 639 1938 594 q 2088 787 2022 710 q 2229 932 2153 864 q 2390 1042 2306 1000 q 2563 1083 2475 1083 q 2644 1072 2619 1083 q 2669 1040 2669 1061 q 2649 1017 2669 1026 q 2589 1007 2628 1007 q 2388 1038 2490 1007 q 2174 1115 2285 1069 q 1942 1207 2063 1161 q 1688 1284 1821 1253 q 1407 1315 1556 1315 q 1127 1278 1250 1315 q 919 1178 1004 1240 q 788 1041 833 1117 q 743 889 743 965 q 793 731 743 806 q 945 610 843 657 q 1201 564 1047 564 q 1407 606 1324 564 q 1533 710 1490 647 q 1576 835 1576 772 q 1550 927 1576 885 q 1470 995 1524 969 q 1333 1021 1417 1021 q 1210 1004 1268 1021 q 1113 958 1153 988 l 1104 965 q 1206 1012 1146 994 q 1333 1029 1265 1029 q 1474 1002 1418 1029 q 1557 932 1529 975 q 1585 838 1585 889 q 1541 706 1585 771 q 1412 599 1497 642 q 1200 556 1326 556 q 938 604 1043 556 q 782 731 833 653 q 731 896 731 808 q 774 1052 731 975 q 904 1193 818 1129 q 1114 1294 990 1257 q 1396 1332 1238 1332 q 1670 1300 1538 1332 q 1926 1222 1803 1268 q 2165 1128 2050 1175 q 2384 1050 2279 1082 q 2585 1018 2489 1018 q 2635 1026 2622 1018 q 2649 1044 2649 1035 q 2629 1065 2649 1056 q 2572 1074 2610 1074 q 2387 1028 2475 1074 q 2220 910 2299 983 q 2074 749 2142 836 q 1949 575 2006 661 q 1815 344 1876 467 q 1715 103 1753 222 q 1676 -118 1676 -15 q 1695 -240 1676 -183 q 1751 -332 1714 -297 q 1844 -367 1788 -367 q 1895 -357 1874 -367 q 1933 -331 1917 -347 l 1935 -337 q 1898 -364 1919 -354 q 1844 -374 1876 -374 m 688 -328 q 386 -281 524 -328 q 147 -149 249 -233 q -10 52 46 -64 q -67 306 -67 168 q -7 570 -67 449 q 161 781 53 692 q 415 921 269 871 q 732 971 561 971 q 1045 913 910 971 q 1253 750 1181 856 l 1246 743 q 1040 906 1174 849 q 732 963 907 963 q 418 913 563 963 q 167 775 274 864 q 1 567 60 686 q -58 306 -58 447 q -3 56 -58 171 q 153 -142 53 -58 q 390 -273 253 -226 q 688 -319 526 -319 q 951 -285 831 -319 q 1162 -190 1072 -251 q 1302 -44 1251 -128 q 1353 136 1353 39 q 1284 315 1353 236 q 1096 438 1215 393 q 822 482 976 482 q 609 442 690 482 q 528 338 528 403 q 717 224 528 224 q 867 244 793 224 q 1003 301 942 264 q 1100 389 1064 338 q 1136 503 1136 440 q 1100 608 1136 564 q 1008 678 1064 651 q 890 717 953 704 q 772 729 826 729 q 546 695 647 729 q 373 603 444 661 q 262 472 301 546 q 222 317 222 397 q 276 142 222 215 q 425 30 331 69 q 643 -10 519 -10 q 878 27 764 -10 q 1101 129 993 64 q 1312 279 1208 194 q 1517 460 1415 364 q 1722 655 1619 556 q 1928 847 1824 754 q 2008 912 1956 872 q 2133 990 2061 951 q 2286 1050 2204 1029 l 2322 1049 q 2156 991 2233 1031 q 2022 910 2079 951 q 1933 839 1965 868 q 1776 676 1851 765 q 1626 491 1701 586 q 1473 306 1551 396 q 1304 146 1394 217 q 1130 35 1228 85 q 920 -43 1032 -14 q 690 -72 808 -72 q 422 -19 528 -72 q 265 122 315 33 q 214 317 214 211 q 253 476 214 400 q 365 610 292 551 q 541 703 438 669 q 774 738 644 738 q 888 726 824 738 q 1010 687 951 714 q 1106 613 1068 660 q 1144 500 1144 567 q 1107 383 1144 435 q 1008 294 1069 331 q 870 237 946 257 q 717 215 794 217 q 519 338 519 215 q 603 449 519 407 q 822 490 688 490 q 1100 445 978 490 q 1292 319 1222 400 q 1361 136 1361 239 q 1310 -48 1361 36 q 1168 -195 1260 -132 q 954 -293 1076 -258 q 688 -328 832 -328 m 1354 369 l 1361 379 l 1985 379 l 1985 369 l 1354 369 m 2258 1240 l 2257 1246 q 2313 1271 2275 1253 q 2394 1310 2351 1289 q 2470 1349 2436 1332 q 2515 1374 2504 1367 q 2526 1360 2526 1374 q 2515 1313 2521 1340 q 2508 1260 2508 1285 q 2508 1249 2508 1254 q 2510 1238 2508 1244 q 2504 1235 2510 1235 q 2499 1239 2501 1235 q 2481 1278 2489 1260 q 2469 1321 2474 1297 l 2258 1240 m 2382 1438 l 2379 1444 q 2431 1497 2396 1479 q 2503 1514 2465 1514 q 2551 1501 2531 1514 q 2593 1478 2572 1489 q 2640 1467 2614 1467 q 2672 1474 2656 1467 q 2693 1508 2688 1482 l 2697 1501 q 2664 1452 2692 1472 q 2599 1432 2636 1432 q 2549 1442 2572 1432 q 2503 1462 2526 1453 q 2446 1471 2479 1471 q 2382 1438 2403 1471 z "},"Ȁ":{"ha":1910,"x_min":-67,"x_max":2669,"o":"m 1844 -374 q 1732 -339 1779 -374 q 1659 -244 1685 -304 q 1633 -108 1633 -183 q 1658 54 1633 -31 q 1721 224 1682 139 q 1805 386 1760 308 q 1894 529 1850 464 q 1971 639 1938 594 q 2088 787 2022 710 q 2229 932 2153 864 q 2390 1042 2306 1000 q 2563 1083 2475 1083 q 2644 1072 2619 1083 q 2669 1040 2669 1061 q 2649 1017 2669 1026 q 2589 1007 2628 1007 q 2388 1038 2490 1007 q 2174 1115 2285 1069 q 1942 1207 2063 1161 q 1688 1284 1821 1253 q 1407 1315 1556 1315 q 1127 1278 1250 1315 q 919 1178 1004 1240 q 788 1041 833 1117 q 743 889 743 965 q 793 731 743 806 q 945 610 843 657 q 1201 564 1047 564 q 1407 606 1324 564 q 1533 710 1490 647 q 1576 835 1576 772 q 1550 927 1576 885 q 1470 995 1524 969 q 1333 1021 1417 1021 q 1210 1004 1268 1021 q 1113 958 1153 988 l 1104 965 q 1206 1012 1146 994 q 1333 1029 1265 1029 q 1474 1002 1418 1029 q 1557 932 1529 975 q 1585 838 1585 889 q 1541 706 1585 771 q 1412 599 1497 642 q 1200 556 1326 556 q 938 604 1043 556 q 782 731 833 653 q 731 896 731 808 q 774 1052 731 975 q 904 1193 818 1129 q 1114 1294 990 1257 q 1396 1332 1238 1332 q 1670 1300 1538 1332 q 1926 1222 1803 1268 q 2165 1128 2050 1175 q 2384 1050 2279 1082 q 2585 1018 2489 1018 q 2635 1026 2622 1018 q 2649 1044 2649 1035 q 2629 1065 2649 1056 q 2572 1074 2610 1074 q 2387 1028 2475 1074 q 2220 910 2299 983 q 2074 749 2142 836 q 1949 575 2006 661 q 1815 344 1876 467 q 1715 103 1753 222 q 1676 -118 1676 -15 q 1695 -240 1676 -183 q 1751 -332 1714 -297 q 1844 -367 1788 -367 q 1895 -357 1874 -367 q 1933 -331 1917 -347 l 1935 -337 q 1898 -364 1919 -354 q 1844 -374 1876 -374 m 688 -328 q 386 -281 524 -328 q 147 -149 249 -233 q -10 52 46 -64 q -67 306 -67 168 q -7 570 -67 449 q 161 781 53 692 q 415 921 269 871 q 732 971 561 971 q 1045 913 910 971 q 1253 750 1181 856 l 1246 743 q 1040 906 1174 849 q 732 963 907 963 q 418 913 563 963 q 167 775 274 864 q 1 567 60 686 q -58 306 -58 447 q -3 56 -58 171 q 153 -142 53 -58 q 390 -273 253 -226 q 688 -319 526 -319 q 951 -285 831 -319 q 1162 -190 1072 -251 q 1302 -44 1251 -128 q 1353 136 1353 39 q 1284 315 1353 236 q 1096 438 1215 393 q 822 482 976 482 q 609 442 690 482 q 528 338 528 403 q 717 224 528 224 q 867 244 793 224 q 1003 301 942 264 q 1100 389 1064 338 q 1136 503 1136 440 q 1100 608 1136 564 q 1008 678 1064 651 q 890 717 953 704 q 772 729 826 729 q 546 695 647 729 q 373 603 444 661 q 262 472 301 546 q 222 317 222 397 q 276 142 222 215 q 425 30 331 69 q 643 -10 519 -10 q 878 27 764 -10 q 1101 129 993 64 q 1312 279 1208 194 q 1517 460 1415 364 q 1722 655 1619 556 q 1928 847 1824 754 q 2008 912 1956 872 q 2133 990 2061 951 q 2286 1050 2204 1029 l 2322 1049 q 2156 991 2233 1031 q 2022 910 2079 951 q 1933 839 1965 868 q 1776 676 1851 765 q 1626 491 1701 586 q 1473 306 1551 396 q 1304 146 1394 217 q 1130 35 1228 85 q 920 -43 1032 -14 q 690 -72 808 -72 q 422 -19 528 -72 q 265 122 315 33 q 214 317 214 211 q 253 476 214 400 q 365 610 292 551 q 541 703 438 669 q 774 738 644 738 q 888 726 824 738 q 1010 687 951 714 q 1106 613 1068 660 q 1144 500 1144 567 q 1107 383 1144 435 q 1008 294 1069 331 q 870 237 946 257 q 717 215 794 217 q 519 338 519 215 q 603 449 519 407 q 822 490 688 490 q 1100 445 978 490 q 1292 319 1222 400 q 1361 136 1361 239 q 1310 -48 1361 36 q 1168 -195 1260 -132 q 954 -293 1076 -258 q 688 -328 832 -328 m 1354 369 l 1361 379 l 1985 379 l 1985 369 l 1354 369 m 2575 1240 l 2383 1319 q 2361 1344 2361 1328 q 2385 1364 2361 1364 q 2415 1354 2400 1364 l 2578 1246 l 2575 1240 m 2429 1240 l 2239 1319 q 2217 1344 2217 1328 q 2240 1364 2217 1364 q 2271 1354 2256 1364 l 2432 1246 l 2429 1240 z "},"Ä":{"ha":1910,"x_min":-67,"x_max":2669,"o":"m 1844 -374 q 1732 -339 1779 -374 q 1659 -244 1685 -304 q 1633 -108 1633 -183 q 1658 54 1633 -31 q 1721 224 1682 139 q 1805 386 1760 308 q 1894 529 1850 464 q 1971 639 1938 594 q 2088 787 2022 710 q 2229 932 2153 864 q 2390 1042 2306 1000 q 2563 1083 2475 1083 q 2644 1072 2619 1083 q 2669 1040 2669 1061 q 2649 1017 2669 1026 q 2589 1007 2628 1007 q 2388 1038 2490 1007 q 2174 1115 2285 1069 q 1942 1207 2063 1161 q 1688 1284 1821 1253 q 1407 1315 1556 1315 q 1127 1278 1250 1315 q 919 1178 1004 1240 q 788 1041 833 1117 q 743 889 743 965 q 793 731 743 806 q 945 610 843 657 q 1201 564 1047 564 q 1407 606 1324 564 q 1533 710 1490 647 q 1576 835 1576 772 q 1550 927 1576 885 q 1470 995 1524 969 q 1333 1021 1417 1021 q 1210 1004 1268 1021 q 1113 958 1153 988 l 1104 965 q 1206 1012 1146 994 q 1333 1029 1265 1029 q 1474 1002 1418 1029 q 1557 932 1529 975 q 1585 838 1585 889 q 1541 706 1585 771 q 1412 599 1497 642 q 1200 556 1326 556 q 938 604 1043 556 q 782 731 833 653 q 731 896 731 808 q 774 1052 731 975 q 904 1193 818 1129 q 1114 1294 990 1257 q 1396 1332 1238 1332 q 1670 1300 1538 1332 q 1926 1222 1803 1268 q 2165 1128 2050 1175 q 2384 1050 2279 1082 q 2585 1018 2489 1018 q 2635 1026 2622 1018 q 2649 1044 2649 1035 q 2629 1065 2649 1056 q 2572 1074 2610 1074 q 2387 1028 2475 1074 q 2220 910 2299 983 q 2074 749 2142 836 q 1949 575 2006 661 q 1815 344 1876 467 q 1715 103 1753 222 q 1676 -118 1676 -15 q 1695 -240 1676 -183 q 1751 -332 1714 -297 q 1844 -367 1788 -367 q 1895 -357 1874 -367 q 1933 -331 1917 -347 l 1935 -337 q 1898 -364 1919 -354 q 1844 -374 1876 -374 m 688 -328 q 386 -281 524 -328 q 147 -149 249 -233 q -10 52 46 -64 q -67 306 -67 168 q -7 570 -67 449 q 161 781 53 692 q 415 921 269 871 q 732 971 561 971 q 1045 913 910 971 q 1253 750 1181 856 l 1246 743 q 1040 906 1174 849 q 732 963 907 963 q 418 913 563 963 q 167 775 274 864 q 1 567 60 686 q -58 306 -58 447 q -3 56 -58 171 q 153 -142 53 -58 q 390 -273 253 -226 q 688 -319 526 -319 q 951 -285 831 -319 q 1162 -190 1072 -251 q 1302 -44 1251 -128 q 1353 136 1353 39 q 1284 315 1353 236 q 1096 438 1215 393 q 822 482 976 482 q 609 442 690 482 q 528 338 528 403 q 717 224 528 224 q 867 244 793 224 q 1003 301 942 264 q 1100 389 1064 338 q 1136 503 1136 440 q 1100 608 1136 564 q 1008 678 1064 651 q 890 717 953 704 q 772 729 826 729 q 546 695 647 729 q 373 603 444 661 q 262 472 301 546 q 222 317 222 397 q 276 142 222 215 q 425 30 331 69 q 643 -10 519 -10 q 878 27 764 -10 q 1101 129 993 64 q 1312 279 1208 194 q 1517 460 1415 364 q 1722 655 1619 556 q 1928 847 1824 754 q 2008 912 1956 872 q 2133 990 2061 951 q 2286 1050 2204 1029 l 2322 1049 q 2156 991 2233 1031 q 2022 910 2079 951 q 1933 839 1965 868 q 1776 676 1851 765 q 1626 491 1701 586 q 1473 306 1551 396 q 1304 146 1394 217 q 1130 35 1228 85 q 920 -43 1032 -14 q 690 -72 808 -72 q 422 -19 528 -72 q 265 122 315 33 q 214 317 214 211 q 253 476 214 400 q 365 610 292 551 q 541 703 438 669 q 774 738 644 738 q 888 726 824 738 q 1010 687 951 714 q 1106 613 1068 660 q 1144 500 1144 567 q 1107 383 1144 435 q 1008 294 1069 331 q 870 237 946 257 q 717 215 794 217 q 519 338 519 215 q 603 449 519 407 q 822 490 688 490 q 1100 445 978 490 q 1292 319 1222 400 q 1361 136 1361 239 q 1310 -48 1361 36 q 1168 -195 1260 -132 q 954 -293 1076 -258 q 688 -328 832 -328 m 1354 369 l 1361 379 l 1985 379 l 1985 369 l 1354 369 m 2435 1354 q 2449 1344 2449 1354 q 2428 1308 2449 1329 q 2383 1269 2408 1286 q 2338 1253 2357 1253 q 2326 1263 2326 1253 q 2347 1299 2326 1278 q 2392 1338 2367 1321 q 2435 1354 2418 1354 m 2565 1354 q 2579 1344 2579 1354 q 2559 1308 2579 1329 q 2513 1269 2539 1286 q 2468 1253 2488 1253 q 2457 1263 2457 1253 q 2477 1299 2457 1278 q 2523 1338 2497 1321 q 2565 1354 2549 1354 z "},"Ạ":{"ha":1910,"x_min":-67,"x_max":2669,"o":"m 1844 -374 q 1732 -339 1779 -374 q 1659 -244 1685 -304 q 1633 -108 1633 -183 q 1658 54 1633 -31 q 1721 224 1682 139 q 1805 386 1760 308 q 1894 529 1850 464 q 1971 639 1938 594 q 2088 787 2022 710 q 2229 932 2153 864 q 2390 1042 2306 1000 q 2563 1083 2475 1083 q 2644 1072 2619 1083 q 2669 1040 2669 1061 q 2649 1017 2669 1026 q 2589 1007 2628 1007 q 2388 1038 2490 1007 q 2174 1115 2285 1069 q 1942 1207 2063 1161 q 1688 1284 1821 1253 q 1407 1315 1556 1315 q 1127 1278 1250 1315 q 919 1178 1004 1240 q 788 1041 833 1117 q 743 889 743 965 q 793 731 743 806 q 945 610 843 657 q 1201 564 1047 564 q 1407 606 1324 564 q 1533 710 1490 647 q 1576 835 1576 772 q 1550 927 1576 885 q 1470 995 1524 969 q 1333 1021 1417 1021 q 1210 1004 1268 1021 q 1113 958 1153 988 l 1104 965 q 1206 1012 1146 994 q 1333 1029 1265 1029 q 1474 1002 1418 1029 q 1557 932 1529 975 q 1585 838 1585 889 q 1541 706 1585 771 q 1412 599 1497 642 q 1200 556 1326 556 q 938 604 1043 556 q 782 731 833 653 q 731 896 731 808 q 774 1052 731 975 q 904 1193 818 1129 q 1114 1294 990 1257 q 1396 1332 1238 1332 q 1670 1300 1538 1332 q 1926 1222 1803 1268 q 2165 1128 2050 1175 q 2384 1050 2279 1082 q 2585 1018 2489 1018 q 2635 1026 2622 1018 q 2649 1044 2649 1035 q 2629 1065 2649 1056 q 2572 1074 2610 1074 q 2387 1028 2475 1074 q 2220 910 2299 983 q 2074 749 2142 836 q 1949 575 2006 661 q 1815 344 1876 467 q 1715 103 1753 222 q 1676 -118 1676 -15 q 1695 -240 1676 -183 q 1751 -332 1714 -297 q 1844 -367 1788 -367 q 1895 -357 1874 -367 q 1933 -331 1917 -347 l 1935 -337 q 1898 -364 1919 -354 q 1844 -374 1876 -374 m 688 -328 q 386 -281 524 -328 q 147 -149 249 -233 q -10 52 46 -64 q -67 306 -67 168 q -7 570 -67 449 q 161 781 53 692 q 415 921 269 871 q 732 971 561 971 q 1045 913 910 971 q 1253 750 1181 856 l 1246 743 q 1040 906 1174 849 q 732 963 907 963 q 418 913 563 963 q 167 775 274 864 q 1 567 60 686 q -58 306 -58 447 q -3 56 -58 171 q 153 -142 53 -58 q 390 -273 253 -226 q 688 -319 526 -319 q 951 -285 831 -319 q 1162 -190 1072 -251 q 1302 -44 1251 -128 q 1353 136 1353 39 q 1284 315 1353 236 q 1096 438 1215 393 q 822 482 976 482 q 609 442 690 482 q 528 338 528 403 q 717 224 528 224 q 867 244 793 224 q 1003 301 942 264 q 1100 389 1064 338 q 1136 503 1136 440 q 1100 608 1136 564 q 1008 678 1064 651 q 890 717 953 704 q 772 729 826 729 q 546 695 647 729 q 373 603 444 661 q 262 472 301 546 q 222 317 222 397 q 276 142 222 215 q 425 30 331 69 q 643 -10 519 -10 q 878 27 764 -10 q 1101 129 993 64 q 1312 279 1208 194 q 1517 460 1415 364 q 1722 655 1619 556 q 1928 847 1824 754 q 2008 912 1956 872 q 2133 990 2061 951 q 2286 1050 2204 1029 l 2322 1049 q 2156 991 2233 1031 q 2022 910 2079 951 q 1933 839 1965 868 q 1776 676 1851 765 q 1626 491 1701 586 q 1473 306 1551 396 q 1304 146 1394 217 q 1130 35 1228 85 q 920 -43 1032 -14 q 690 -72 808 -72 q 422 -19 528 -72 q 265 122 315 33 q 214 317 214 211 q 253 476 214 400 q 365 610 292 551 q 541 703 438 669 q 774 738 644 738 q 888 726 824 738 q 1010 687 951 714 q 1106 613 1068 660 q 1144 500 1144 567 q 1107 383 1144 435 q 1008 294 1069 331 q 870 237 946 257 q 717 215 794 217 q 519 338 519 215 q 603 449 519 407 q 822 490 688 490 q 1100 445 978 490 q 1292 319 1222 400 q 1361 136 1361 239 q 1310 -48 1361 36 q 1168 -195 1260 -132 q 954 -293 1076 -258 q 688 -328 832 -328 m 1354 369 l 1361 379 l 1985 379 l 1985 369 l 1354 369 m 1436 -139 q 1450 -149 1450 -139 q 1430 -185 1450 -164 q 1384 -224 1410 -207 q 1339 -240 1358 -240 q 1328 -231 1328 -240 q 1348 -194 1328 -215 q 1394 -156 1368 -172 q 1436 -139 1419 -139 z "},"À":{"ha":1910,"x_min":-67,"x_max":2669,"o":"m 1844 -374 q 1732 -339 1779 -374 q 1659 -244 1685 -304 q 1633 -108 1633 -183 q 1658 54 1633 -31 q 1721 224 1682 139 q 1805 386 1760 308 q 1894 529 1850 464 q 1971 639 1938 594 q 2088 787 2022 710 q 2229 932 2153 864 q 2390 1042 2306 1000 q 2563 1083 2475 1083 q 2644 1072 2619 1083 q 2669 1040 2669 1061 q 2649 1017 2669 1026 q 2589 1007 2628 1007 q 2388 1038 2490 1007 q 2174 1115 2285 1069 q 1942 1207 2063 1161 q 1688 1284 1821 1253 q 1407 1315 1556 1315 q 1127 1278 1250 1315 q 919 1178 1004 1240 q 788 1041 833 1117 q 743 889 743 965 q 793 731 743 806 q 945 610 843 657 q 1201 564 1047 564 q 1407 606 1324 564 q 1533 710 1490 647 q 1576 835 1576 772 q 1550 927 1576 885 q 1470 995 1524 969 q 1333 1021 1417 1021 q 1210 1004 1268 1021 q 1113 958 1153 988 l 1104 965 q 1206 1012 1146 994 q 1333 1029 1265 1029 q 1474 1002 1418 1029 q 1557 932 1529 975 q 1585 838 1585 889 q 1541 706 1585 771 q 1412 599 1497 642 q 1200 556 1326 556 q 938 604 1043 556 q 782 731 833 653 q 731 896 731 808 q 774 1052 731 975 q 904 1193 818 1129 q 1114 1294 990 1257 q 1396 1332 1238 1332 q 1670 1300 1538 1332 q 1926 1222 1803 1268 q 2165 1128 2050 1175 q 2384 1050 2279 1082 q 2585 1018 2489 1018 q 2635 1026 2622 1018 q 2649 1044 2649 1035 q 2629 1065 2649 1056 q 2572 1074 2610 1074 q 2387 1028 2475 1074 q 2220 910 2299 983 q 2074 749 2142 836 q 1949 575 2006 661 q 1815 344 1876 467 q 1715 103 1753 222 q 1676 -118 1676 -15 q 1695 -240 1676 -183 q 1751 -332 1714 -297 q 1844 -367 1788 -367 q 1895 -357 1874 -367 q 1933 -331 1917 -347 l 1935 -337 q 1898 -364 1919 -354 q 1844 -374 1876 -374 m 688 -328 q 386 -281 524 -328 q 147 -149 249 -233 q -10 52 46 -64 q -67 306 -67 168 q -7 570 -67 449 q 161 781 53 692 q 415 921 269 871 q 732 971 561 971 q 1045 913 910 971 q 1253 750 1181 856 l 1246 743 q 1040 906 1174 849 q 732 963 907 963 q 418 913 563 963 q 167 775 274 864 q 1 567 60 686 q -58 306 -58 447 q -3 56 -58 171 q 153 -142 53 -58 q 390 -273 253 -226 q 688 -319 526 -319 q 951 -285 831 -319 q 1162 -190 1072 -251 q 1302 -44 1251 -128 q 1353 136 1353 39 q 1284 315 1353 236 q 1096 438 1215 393 q 822 482 976 482 q 609 442 690 482 q 528 338 528 403 q 717 224 528 224 q 867 244 793 224 q 1003 301 942 264 q 1100 389 1064 338 q 1136 503 1136 440 q 1100 608 1136 564 q 1008 678 1064 651 q 890 717 953 704 q 772 729 826 729 q 546 695 647 729 q 373 603 444 661 q 262 472 301 546 q 222 317 222 397 q 276 142 222 215 q 425 30 331 69 q 643 -10 519 -10 q 878 27 764 -10 q 1101 129 993 64 q 1312 279 1208 194 q 1517 460 1415 364 q 1722 655 1619 556 q 1928 847 1824 754 q 2008 912 1956 872 q 2133 990 2061 951 q 2286 1050 2204 1029 l 2322 1049 q 2156 991 2233 1031 q 2022 910 2079 951 q 1933 839 1965 868 q 1776 676 1851 765 q 1626 491 1701 586 q 1473 306 1551 396 q 1304 146 1394 217 q 1130 35 1228 85 q 920 -43 1032 -14 q 690 -72 808 -72 q 422 -19 528 -72 q 265 122 315 33 q 214 317 214 211 q 253 476 214 400 q 365 610 292 551 q 541 703 438 669 q 774 738 644 738 q 888 726 824 738 q 1010 687 951 714 q 1106 613 1068 660 q 1144 500 1144 567 q 1107 383 1144 435 q 1008 294 1069 331 q 870 237 946 257 q 717 215 794 217 q 519 338 519 215 q 603 449 519 407 q 822 490 688 490 q 1100 445 978 490 q 1292 319 1222 400 q 1361 136 1361 239 q 1310 -48 1361 36 q 1168 -195 1260 -132 q 954 -293 1076 -258 q 688 -328 832 -328 m 1354 369 l 1361 379 l 1985 379 l 1985 369 l 1354 369 m 2557 1240 l 2367 1319 q 2344 1344 2344 1328 q 2368 1364 2344 1364 q 2382 1362 2375 1364 q 2397 1354 2389 1360 l 2560 1246 l 2557 1240 z "},"Ả":{"ha":1910,"x_min":-67,"x_max":2669,"o":"m 1844 -374 q 1732 -339 1779 -374 q 1659 -244 1685 -304 q 1633 -108 1633 -183 q 1658 54 1633 -31 q 1721 224 1682 139 q 1805 386 1760 308 q 1894 529 1850 464 q 1971 639 1938 594 q 2088 787 2022 710 q 2229 932 2153 864 q 2390 1042 2306 1000 q 2563 1083 2475 1083 q 2644 1072 2619 1083 q 2669 1040 2669 1061 q 2649 1017 2669 1026 q 2589 1007 2628 1007 q 2388 1038 2490 1007 q 2174 1115 2285 1069 q 1942 1207 2063 1161 q 1688 1284 1821 1253 q 1407 1315 1556 1315 q 1127 1278 1250 1315 q 919 1178 1004 1240 q 788 1041 833 1117 q 743 889 743 965 q 793 731 743 806 q 945 610 843 657 q 1201 564 1047 564 q 1407 606 1324 564 q 1533 710 1490 647 q 1576 835 1576 772 q 1550 927 1576 885 q 1470 995 1524 969 q 1333 1021 1417 1021 q 1210 1004 1268 1021 q 1113 958 1153 988 l 1104 965 q 1206 1012 1146 994 q 1333 1029 1265 1029 q 1474 1002 1418 1029 q 1557 932 1529 975 q 1585 838 1585 889 q 1541 706 1585 771 q 1412 599 1497 642 q 1200 556 1326 556 q 938 604 1043 556 q 782 731 833 653 q 731 896 731 808 q 774 1052 731 975 q 904 1193 818 1129 q 1114 1294 990 1257 q 1396 1332 1238 1332 q 1670 1300 1538 1332 q 1926 1222 1803 1268 q 2165 1128 2050 1175 q 2384 1050 2279 1082 q 2585 1018 2489 1018 q 2635 1026 2622 1018 q 2649 1044 2649 1035 q 2629 1065 2649 1056 q 2572 1074 2610 1074 q 2387 1028 2475 1074 q 2220 910 2299 983 q 2074 749 2142 836 q 1949 575 2006 661 q 1815 344 1876 467 q 1715 103 1753 222 q 1676 -118 1676 -15 q 1695 -240 1676 -183 q 1751 -332 1714 -297 q 1844 -367 1788 -367 q 1895 -357 1874 -367 q 1933 -331 1917 -347 l 1935 -337 q 1898 -364 1919 -354 q 1844 -374 1876 -374 m 688 -328 q 386 -281 524 -328 q 147 -149 249 -233 q -10 52 46 -64 q -67 306 -67 168 q -7 570 -67 449 q 161 781 53 692 q 415 921 269 871 q 732 971 561 971 q 1045 913 910 971 q 1253 750 1181 856 l 1246 743 q 1040 906 1174 849 q 732 963 907 963 q 418 913 563 963 q 167 775 274 864 q 1 567 60 686 q -58 306 -58 447 q -3 56 -58 171 q 153 -142 53 -58 q 390 -273 253 -226 q 688 -319 526 -319 q 951 -285 831 -319 q 1162 -190 1072 -251 q 1302 -44 1251 -128 q 1353 136 1353 39 q 1284 315 1353 236 q 1096 438 1215 393 q 822 482 976 482 q 609 442 690 482 q 528 338 528 403 q 717 224 528 224 q 867 244 793 224 q 1003 301 942 264 q 1100 389 1064 338 q 1136 503 1136 440 q 1100 608 1136 564 q 1008 678 1064 651 q 890 717 953 704 q 772 729 826 729 q 546 695 647 729 q 373 603 444 661 q 262 472 301 546 q 222 317 222 397 q 276 142 222 215 q 425 30 331 69 q 643 -10 519 -10 q 878 27 764 -10 q 1101 129 993 64 q 1312 279 1208 194 q 1517 460 1415 364 q 1722 655 1619 556 q 1928 847 1824 754 q 2008 912 1956 872 q 2133 990 2061 951 q 2286 1050 2204 1029 l 2322 1049 q 2156 991 2233 1031 q 2022 910 2079 951 q 1933 839 1965 868 q 1776 676 1851 765 q 1626 491 1701 586 q 1473 306 1551 396 q 1304 146 1394 217 q 1130 35 1228 85 q 920 -43 1032 -14 q 690 -72 808 -72 q 422 -19 528 -72 q 265 122 315 33 q 214 317 214 211 q 253 476 214 400 q 365 610 292 551 q 541 703 438 669 q 774 738 644 738 q 888 726 824 738 q 1010 687 951 714 q 1106 613 1068 660 q 1144 500 1144 567 q 1107 383 1144 435 q 1008 294 1069 331 q 870 237 946 257 q 717 215 794 217 q 519 338 519 215 q 603 449 519 407 q 822 490 688 490 q 1100 445 978 490 q 1292 319 1222 400 q 1361 136 1361 239 q 1310 -48 1361 36 q 1168 -195 1260 -132 q 954 -293 1076 -258 q 688 -328 832 -328 m 1354 369 l 1361 379 l 1985 379 l 1985 369 l 1354 369 m 2358 1318 l 2360 1328 q 2392 1343 2374 1338 q 2432 1349 2411 1349 q 2469 1322 2469 1349 q 2431 1253 2469 1290 q 2333 1193 2392 1215 l 2333 1197 q 2378 1228 2356 1207 q 2415 1274 2400 1250 q 2429 1313 2429 1297 q 2403 1332 2429 1332 q 2377 1327 2390 1332 q 2358 1318 2364 1322 z "},"Ȃ":{"ha":1910,"x_min":-67,"x_max":2669,"o":"m 1844 -374 q 1732 -339 1779 -374 q 1659 -244 1685 -304 q 1633 -108 1633 -183 q 1658 54 1633 -31 q 1721 224 1682 139 q 1805 386 1760 308 q 1894 529 1850 464 q 1971 639 1938 594 q 2088 787 2022 710 q 2229 932 2153 864 q 2390 1042 2306 1000 q 2563 1083 2475 1083 q 2644 1072 2619 1083 q 2669 1040 2669 1061 q 2649 1017 2669 1026 q 2589 1007 2628 1007 q 2388 1038 2490 1007 q 2174 1115 2285 1069 q 1942 1207 2063 1161 q 1688 1284 1821 1253 q 1407 1315 1556 1315 q 1127 1278 1250 1315 q 919 1178 1004 1240 q 788 1041 833 1117 q 743 889 743 965 q 793 731 743 806 q 945 610 843 657 q 1201 564 1047 564 q 1407 606 1324 564 q 1533 710 1490 647 q 1576 835 1576 772 q 1550 927 1576 885 q 1470 995 1524 969 q 1333 1021 1417 1021 q 1210 1004 1268 1021 q 1113 958 1153 988 l 1104 965 q 1206 1012 1146 994 q 1333 1029 1265 1029 q 1474 1002 1418 1029 q 1557 932 1529 975 q 1585 838 1585 889 q 1541 706 1585 771 q 1412 599 1497 642 q 1200 556 1326 556 q 938 604 1043 556 q 782 731 833 653 q 731 896 731 808 q 774 1052 731 975 q 904 1193 818 1129 q 1114 1294 990 1257 q 1396 1332 1238 1332 q 1670 1300 1538 1332 q 1926 1222 1803 1268 q 2165 1128 2050 1175 q 2384 1050 2279 1082 q 2585 1018 2489 1018 q 2635 1026 2622 1018 q 2649 1044 2649 1035 q 2629 1065 2649 1056 q 2572 1074 2610 1074 q 2387 1028 2475 1074 q 2220 910 2299 983 q 2074 749 2142 836 q 1949 575 2006 661 q 1815 344 1876 467 q 1715 103 1753 222 q 1676 -118 1676 -15 q 1695 -240 1676 -183 q 1751 -332 1714 -297 q 1844 -367 1788 -367 q 1895 -357 1874 -367 q 1933 -331 1917 -347 l 1935 -337 q 1898 -364 1919 -354 q 1844 -374 1876 -374 m 688 -328 q 386 -281 524 -328 q 147 -149 249 -233 q -10 52 46 -64 q -67 306 -67 168 q -7 570 -67 449 q 161 781 53 692 q 415 921 269 871 q 732 971 561 971 q 1045 913 910 971 q 1253 750 1181 856 l 1246 743 q 1040 906 1174 849 q 732 963 907 963 q 418 913 563 963 q 167 775 274 864 q 1 567 60 686 q -58 306 -58 447 q -3 56 -58 171 q 153 -142 53 -58 q 390 -273 253 -226 q 688 -319 526 -319 q 951 -285 831 -319 q 1162 -190 1072 -251 q 1302 -44 1251 -128 q 1353 136 1353 39 q 1284 315 1353 236 q 1096 438 1215 393 q 822 482 976 482 q 609 442 690 482 q 528 338 528 403 q 717 224 528 224 q 867 244 793 224 q 1003 301 942 264 q 1100 389 1064 338 q 1136 503 1136 440 q 1100 608 1136 564 q 1008 678 1064 651 q 890 717 953 704 q 772 729 826 729 q 546 695 647 729 q 373 603 444 661 q 262 472 301 546 q 222 317 222 397 q 276 142 222 215 q 425 30 331 69 q 643 -10 519 -10 q 878 27 764 -10 q 1101 129 993 64 q 1312 279 1208 194 q 1517 460 1415 364 q 1722 655 1619 556 q 1928 847 1824 754 q 2008 912 1956 872 q 2133 990 2061 951 q 2286 1050 2204 1029 l 2322 1049 q 2156 991 2233 1031 q 2022 910 2079 951 q 1933 839 1965 868 q 1776 676 1851 765 q 1626 491 1701 586 q 1473 306 1551 396 q 1304 146 1394 217 q 1130 35 1228 85 q 920 -43 1032 -14 q 690 -72 808 -72 q 422 -19 528 -72 q 265 122 315 33 q 214 317 214 211 q 253 476 214 400 q 365 610 292 551 q 541 703 438 669 q 774 738 644 738 q 888 726 824 738 q 1010 687 951 714 q 1106 613 1068 660 q 1144 500 1144 567 q 1107 383 1144 435 q 1008 294 1069 331 q 870 237 946 257 q 717 215 794 217 q 519 338 519 215 q 603 449 519 407 q 822 490 688 490 q 1100 445 978 490 q 1292 319 1222 400 q 1361 136 1361 239 q 1310 -48 1361 36 q 1168 -195 1260 -132 q 954 -293 1076 -258 q 688 -328 832 -328 m 1354 369 l 1361 379 l 1985 379 l 1985 369 l 1354 369 m 2351 1265 l 2303 1265 q 2348 1312 2319 1292 q 2408 1344 2376 1332 q 2467 1356 2440 1356 q 2519 1343 2501 1356 q 2536 1311 2536 1331 q 2533 1289 2536 1300 q 2522 1265 2529 1278 l 2481 1265 q 2490 1288 2486 1276 q 2493 1311 2493 1300 q 2461 1347 2493 1347 q 2401 1323 2433 1347 q 2351 1265 2369 1299 z "},"Ā":{"ha":1910,"x_min":-67,"x_max":2669,"o":"m 1844 -374 q 1732 -339 1779 -374 q 1659 -244 1685 -304 q 1633 -108 1633 -183 q 1658 54 1633 -31 q 1721 224 1682 139 q 1805 386 1760 308 q 1894 529 1850 464 q 1971 639 1938 594 q 2088 787 2022 710 q 2229 932 2153 864 q 2390 1042 2306 1000 q 2563 1083 2475 1083 q 2644 1072 2619 1083 q 2669 1040 2669 1061 q 2649 1017 2669 1026 q 2589 1007 2628 1007 q 2388 1038 2490 1007 q 2174 1115 2285 1069 q 1942 1207 2063 1161 q 1688 1284 1821 1253 q 1407 1315 1556 1315 q 1127 1278 1250 1315 q 919 1178 1004 1240 q 788 1041 833 1117 q 743 889 743 965 q 793 731 743 806 q 945 610 843 657 q 1201 564 1047 564 q 1407 606 1324 564 q 1533 710 1490 647 q 1576 835 1576 772 q 1550 927 1576 885 q 1470 995 1524 969 q 1333 1021 1417 1021 q 1210 1004 1268 1021 q 1113 958 1153 988 l 1104 965 q 1206 1012 1146 994 q 1333 1029 1265 1029 q 1474 1002 1418 1029 q 1557 932 1529 975 q 1585 838 1585 889 q 1541 706 1585 771 q 1412 599 1497 642 q 1200 556 1326 556 q 938 604 1043 556 q 782 731 833 653 q 731 896 731 808 q 774 1052 731 975 q 904 1193 818 1129 q 1114 1294 990 1257 q 1396 1332 1238 1332 q 1670 1300 1538 1332 q 1926 1222 1803 1268 q 2165 1128 2050 1175 q 2384 1050 2279 1082 q 2585 1018 2489 1018 q 2635 1026 2622 1018 q 2649 1044 2649 1035 q 2629 1065 2649 1056 q 2572 1074 2610 1074 q 2387 1028 2475 1074 q 2220 910 2299 983 q 2074 749 2142 836 q 1949 575 2006 661 q 1815 344 1876 467 q 1715 103 1753 222 q 1676 -118 1676 -15 q 1695 -240 1676 -183 q 1751 -332 1714 -297 q 1844 -367 1788 -367 q 1895 -357 1874 -367 q 1933 -331 1917 -347 l 1935 -337 q 1898 -364 1919 -354 q 1844 -374 1876 -374 m 688 -328 q 386 -281 524 -328 q 147 -149 249 -233 q -10 52 46 -64 q -67 306 -67 168 q -7 570 -67 449 q 161 781 53 692 q 415 921 269 871 q 732 971 561 971 q 1045 913 910 971 q 1253 750 1181 856 l 1246 743 q 1040 906 1174 849 q 732 963 907 963 q 418 913 563 963 q 167 775 274 864 q 1 567 60 686 q -58 306 -58 447 q -3 56 -58 171 q 153 -142 53 -58 q 390 -273 253 -226 q 688 -319 526 -319 q 951 -285 831 -319 q 1162 -190 1072 -251 q 1302 -44 1251 -128 q 1353 136 1353 39 q 1284 315 1353 236 q 1096 438 1215 393 q 822 482 976 482 q 609 442 690 482 q 528 338 528 403 q 717 224 528 224 q 867 244 793 224 q 1003 301 942 264 q 1100 389 1064 338 q 1136 503 1136 440 q 1100 608 1136 564 q 1008 678 1064 651 q 890 717 953 704 q 772 729 826 729 q 546 695 647 729 q 373 603 444 661 q 262 472 301 546 q 222 317 222 397 q 276 142 222 215 q 425 30 331 69 q 643 -10 519 -10 q 878 27 764 -10 q 1101 129 993 64 q 1312 279 1208 194 q 1517 460 1415 364 q 1722 655 1619 556 q 1928 847 1824 754 q 2008 912 1956 872 q 2133 990 2061 951 q 2286 1050 2204 1029 l 2322 1049 q 2156 991 2233 1031 q 2022 910 2079 951 q 1933 839 1965 868 q 1776 676 1851 765 q 1626 491 1701 586 q 1473 306 1551 396 q 1304 146 1394 217 q 1130 35 1228 85 q 920 -43 1032 -14 q 690 -72 808 -72 q 422 -19 528 -72 q 265 122 315 33 q 214 317 214 211 q 253 476 214 400 q 365 610 292 551 q 541 703 438 669 q 774 738 644 738 q 888 726 824 738 q 1010 687 951 714 q 1106 613 1068 660 q 1144 500 1144 567 q 1107 383 1144 435 q 1008 294 1069 331 q 870 237 946 257 q 717 215 794 217 q 519 338 519 215 q 603 449 519 407 q 822 490 688 490 q 1100 445 978 490 q 1292 319 1222 400 q 1361 136 1361 239 q 1310 -48 1361 36 q 1168 -195 1260 -132 q 954 -293 1076 -258 q 688 -328 832 -328 m 1354 369 l 1361 379 l 1985 379 l 1985 369 l 1354 369 m 2294 1283 l 2343 1324 l 2606 1324 l 2557 1283 l 2294 1283 z "},"Ą":{"ha":1910,"x_min":-67,"x_max":2669,"o":"m 1844 -374 q 1732 -339 1779 -374 q 1659 -244 1685 -304 q 1633 -108 1633 -183 q 1658 54 1633 -31 q 1721 224 1682 139 q 1805 386 1760 308 q 1894 529 1850 464 q 1971 639 1938 594 q 2088 787 2022 710 q 2229 932 2153 864 q 2390 1042 2306 1000 q 2563 1083 2475 1083 q 2644 1072 2619 1083 q 2669 1040 2669 1061 q 2649 1017 2669 1026 q 2589 1007 2628 1007 q 2388 1038 2490 1007 q 2174 1115 2285 1069 q 1942 1207 2063 1161 q 1688 1284 1821 1253 q 1407 1315 1556 1315 q 1127 1278 1250 1315 q 919 1178 1004 1240 q 788 1041 833 1117 q 743 889 743 965 q 793 731 743 806 q 945 610 843 657 q 1201 564 1047 564 q 1407 606 1324 564 q 1533 710 1490 647 q 1576 835 1576 772 q 1550 927 1576 885 q 1470 995 1524 969 q 1333 1021 1417 1021 q 1210 1004 1268 1021 q 1113 958 1153 988 l 1104 965 q 1206 1012 1146 994 q 1333 1029 1265 1029 q 1474 1002 1418 1029 q 1557 932 1529 975 q 1585 838 1585 889 q 1541 706 1585 771 q 1412 599 1497 642 q 1200 556 1326 556 q 938 604 1043 556 q 782 731 833 653 q 731 896 731 808 q 774 1052 731 975 q 904 1193 818 1129 q 1114 1294 990 1257 q 1396 1332 1238 1332 q 1670 1300 1538 1332 q 1926 1222 1803 1268 q 2165 1128 2050 1175 q 2384 1050 2279 1082 q 2585 1018 2489 1018 q 2635 1026 2622 1018 q 2649 1044 2649 1035 q 2629 1065 2649 1056 q 2572 1074 2610 1074 q 2387 1028 2475 1074 q 2220 910 2299 983 q 2074 749 2142 836 q 1949 575 2006 661 q 1815 344 1876 467 q 1715 103 1753 222 q 1676 -118 1676 -15 q 1695 -240 1676 -183 q 1751 -332 1714 -297 q 1844 -367 1788 -367 q 1895 -357 1874 -367 q 1933 -331 1917 -347 l 1935 -337 q 1898 -364 1919 -354 q 1844 -374 1876 -374 m 688 -328 q 386 -281 524 -328 q 147 -149 249 -233 q -10 52 46 -64 q -67 306 -67 168 q -7 570 -67 449 q 161 781 53 692 q 415 921 269 871 q 732 971 561 971 q 1045 913 910 971 q 1253 750 1181 856 l 1246 743 q 1040 906 1174 849 q 732 963 907 963 q 418 913 563 963 q 167 775 274 864 q 1 567 60 686 q -58 306 -58 447 q -3 56 -58 171 q 153 -142 53 -58 q 390 -273 253 -226 q 688 -319 526 -319 q 951 -285 831 -319 q 1162 -190 1072 -251 q 1302 -44 1251 -128 q 1353 136 1353 39 q 1284 315 1353 236 q 1096 438 1215 393 q 822 482 976 482 q 609 442 690 482 q 528 338 528 403 q 717 224 528 224 q 867 244 793 224 q 1003 301 942 264 q 1100 389 1064 338 q 1136 503 1136 440 q 1100 608 1136 564 q 1008 678 1064 651 q 890 717 953 704 q 772 729 826 729 q 546 695 647 729 q 373 603 444 661 q 262 472 301 546 q 222 317 222 397 q 276 142 222 215 q 425 30 331 69 q 643 -10 519 -10 q 878 27 764 -10 q 1101 129 993 64 q 1312 279 1208 194 q 1517 460 1415 364 q 1722 655 1619 556 q 1928 847 1824 754 q 2008 912 1956 872 q 2133 990 2061 951 q 2286 1050 2204 1029 l 2322 1049 q 2156 991 2233 1031 q 2022 910 2079 951 q 1933 839 1965 868 q 1776 676 1851 765 q 1626 491 1701 586 q 1473 306 1551 396 q 1304 146 1394 217 q 1130 35 1228 85 q 920 -43 1032 -14 q 690 -72 808 -72 q 422 -19 528 -72 q 265 122 315 33 q 214 317 214 211 q 253 476 214 400 q 365 610 292 551 q 541 703 438 669 q 774 738 644 738 q 888 726 824 738 q 1010 687 951 714 q 1106 613 1068 660 q 1144 500 1144 567 q 1107 383 1144 435 q 1008 294 1069 331 q 870 237 946 257 q 717 215 794 217 q 519 338 519 215 q 603 449 519 407 q 822 490 688 490 q 1100 445 978 490 q 1292 319 1222 400 q 1361 136 1361 239 q 1310 -48 1361 36 q 1168 -195 1260 -132 q 954 -293 1076 -258 q 688 -328 832 -328 m 1354 369 l 1361 379 l 1985 379 l 1985 369 l 1354 369 m 1817 -490 l 1817 -500 q 1757 -518 1793 -518 q 1719 -486 1719 -518 q 1756 -425 1719 -457 q 1844 -374 1792 -393 l 1843 -379 q 1801 -404 1822 -386 q 1767 -443 1781 -422 q 1754 -481 1754 -464 q 1779 -504 1754 -504 q 1817 -490 1803 -504 z "},"Å":{"ha":1910,"x_min":-67,"x_max":2669,"o":"m 1844 -374 q 1732 -339 1779 -374 q 1659 -244 1685 -304 q 1633 -108 1633 -183 q 1658 54 1633 -31 q 1721 224 1682 139 q 1805 386 1760 308 q 1894 529 1850 464 q 1971 639 1938 594 q 2088 787 2022 710 q 2229 932 2153 864 q 2390 1042 2306 1000 q 2563 1083 2475 1083 q 2644 1072 2619 1083 q 2669 1040 2669 1061 q 2649 1017 2669 1026 q 2589 1007 2628 1007 q 2388 1038 2490 1007 q 2174 1115 2285 1069 q 1942 1207 2063 1161 q 1688 1284 1821 1253 q 1407 1315 1556 1315 q 1127 1278 1250 1315 q 919 1178 1004 1240 q 788 1041 833 1117 q 743 889 743 965 q 793 731 743 806 q 945 610 843 657 q 1201 564 1047 564 q 1407 606 1324 564 q 1533 710 1490 647 q 1576 835 1576 772 q 1550 927 1576 885 q 1470 995 1524 969 q 1333 1021 1417 1021 q 1210 1004 1268 1021 q 1113 958 1153 988 l 1104 965 q 1206 1012 1146 994 q 1333 1029 1265 1029 q 1474 1002 1418 1029 q 1557 932 1529 975 q 1585 838 1585 889 q 1541 706 1585 771 q 1412 599 1497 642 q 1200 556 1326 556 q 938 604 1043 556 q 782 731 833 653 q 731 896 731 808 q 774 1052 731 975 q 904 1193 818 1129 q 1114 1294 990 1257 q 1396 1332 1238 1332 q 1670 1300 1538 1332 q 1926 1222 1803 1268 q 2165 1128 2050 1175 q 2384 1050 2279 1082 q 2585 1018 2489 1018 q 2635 1026 2622 1018 q 2649 1044 2649 1035 q 2629 1065 2649 1056 q 2572 1074 2610 1074 q 2387 1028 2475 1074 q 2220 910 2299 983 q 2074 749 2142 836 q 1949 575 2006 661 q 1815 344 1876 467 q 1715 103 1753 222 q 1676 -118 1676 -15 q 1695 -240 1676 -183 q 1751 -332 1714 -297 q 1844 -367 1788 -367 q 1895 -357 1874 -367 q 1933 -331 1917 -347 l 1935 -337 q 1898 -364 1919 -354 q 1844 -374 1876 -374 m 688 -328 q 386 -281 524 -328 q 147 -149 249 -233 q -10 52 46 -64 q -67 306 -67 168 q -7 570 -67 449 q 161 781 53 692 q 415 921 269 871 q 732 971 561 971 q 1045 913 910 971 q 1253 750 1181 856 l 1246 743 q 1040 906 1174 849 q 732 963 907 963 q 418 913 563 963 q 167 775 274 864 q 1 567 60 686 q -58 306 -58 447 q -3 56 -58 171 q 153 -142 53 -58 q 390 -273 253 -226 q 688 -319 526 -319 q 951 -285 831 -319 q 1162 -190 1072 -251 q 1302 -44 1251 -128 q 1353 136 1353 39 q 1284 315 1353 236 q 1096 438 1215 393 q 822 482 976 482 q 609 442 690 482 q 528 338 528 403 q 717 224 528 224 q 867 244 793 224 q 1003 301 942 264 q 1100 389 1064 338 q 1136 503 1136 440 q 1100 608 1136 564 q 1008 678 1064 651 q 890 717 953 704 q 772 729 826 729 q 546 695 647 729 q 373 603 444 661 q 262 472 301 546 q 222 317 222 397 q 276 142 222 215 q 425 30 331 69 q 643 -10 519 -10 q 878 27 764 -10 q 1101 129 993 64 q 1312 279 1208 194 q 1517 460 1415 364 q 1722 655 1619 556 q 1928 847 1824 754 q 2008 912 1956 872 q 2133 990 2061 951 q 2286 1050 2204 1029 l 2322 1049 q 2156 991 2233 1031 q 2022 910 2079 951 q 1933 839 1965 868 q 1776 676 1851 765 q 1626 491 1701 586 q 1473 306 1551 396 q 1304 146 1394 217 q 1130 35 1228 85 q 920 -43 1032 -14 q 690 -72 808 -72 q 422 -19 528 -72 q 265 122 315 33 q 214 317 214 211 q 253 476 214 400 q 365 610 292 551 q 541 703 438 669 q 774 738 644 738 q 888 726 824 738 q 1010 687 951 714 q 1106 613 1068 660 q 1144 500 1144 567 q 1107 383 1144 435 q 1008 294 1069 331 q 870 237 946 257 q 717 215 794 217 q 519 338 519 215 q 603 449 519 407 q 822 490 688 490 q 1100 445 978 490 q 1292 319 1222 400 q 1361 136 1361 239 q 1310 -48 1361 36 q 1168 -195 1260 -132 q 954 -293 1076 -258 q 688 -328 832 -328 m 1354 369 l 1361 379 l 1985 379 l 1985 369 l 1354 369 m 2276 1263 q 2301 1318 2276 1290 q 2361 1364 2325 1346 q 2433 1382 2397 1382 q 2476 1372 2461 1382 q 2490 1346 2490 1361 q 2466 1292 2490 1319 q 2405 1245 2442 1264 q 2335 1226 2368 1226 q 2292 1237 2308 1226 q 2276 1263 2276 1247 m 2428 1375 q 2376 1358 2403 1375 q 2331 1315 2349 1340 q 2313 1263 2313 1289 q 2339 1233 2313 1233 q 2390 1251 2364 1233 q 2435 1295 2417 1269 q 2453 1344 2453 1321 q 2428 1375 2453 1375 z "},"Ǻ":{"ha":1910,"x_min":-67,"x_max":2669,"o":"m 1844 -374 q 1732 -339 1779 -374 q 1659 -244 1685 -304 q 1633 -108 1633 -183 q 1658 54 1633 -31 q 1721 224 1682 139 q 1805 386 1760 308 q 1894 529 1850 464 q 1971 639 1938 594 q 2088 787 2022 710 q 2229 932 2153 864 q 2390 1042 2306 1000 q 2563 1083 2475 1083 q 2644 1072 2619 1083 q 2669 1040 2669 1061 q 2649 1017 2669 1026 q 2589 1007 2628 1007 q 2388 1038 2490 1007 q 2174 1115 2285 1069 q 1942 1207 2063 1161 q 1688 1284 1821 1253 q 1407 1315 1556 1315 q 1127 1278 1250 1315 q 919 1178 1004 1240 q 788 1041 833 1117 q 743 889 743 965 q 793 731 743 806 q 945 610 843 657 q 1201 564 1047 564 q 1407 606 1324 564 q 1533 710 1490 647 q 1576 835 1576 772 q 1550 927 1576 885 q 1470 995 1524 969 q 1333 1021 1417 1021 q 1210 1004 1268 1021 q 1113 958 1153 988 l 1104 965 q 1206 1012 1146 994 q 1333 1029 1265 1029 q 1474 1002 1418 1029 q 1557 932 1529 975 q 1585 838 1585 889 q 1541 706 1585 771 q 1412 599 1497 642 q 1200 556 1326 556 q 938 604 1043 556 q 782 731 833 653 q 731 896 731 808 q 774 1052 731 975 q 904 1193 818 1129 q 1114 1294 990 1257 q 1396 1332 1238 1332 q 1670 1300 1538 1332 q 1926 1222 1803 1268 q 2165 1128 2050 1175 q 2384 1050 2279 1082 q 2585 1018 2489 1018 q 2635 1026 2622 1018 q 2649 1044 2649 1035 q 2629 1065 2649 1056 q 2572 1074 2610 1074 q 2387 1028 2475 1074 q 2220 910 2299 983 q 2074 749 2142 836 q 1949 575 2006 661 q 1815 344 1876 467 q 1715 103 1753 222 q 1676 -118 1676 -15 q 1695 -240 1676 -183 q 1751 -332 1714 -297 q 1844 -367 1788 -367 q 1895 -357 1874 -367 q 1933 -331 1917 -347 l 1935 -337 q 1898 -364 1919 -354 q 1844 -374 1876 -374 m 688 -328 q 386 -281 524 -328 q 147 -149 249 -233 q -10 52 46 -64 q -67 306 -67 168 q -7 570 -67 449 q 161 781 53 692 q 415 921 269 871 q 732 971 561 971 q 1045 913 910 971 q 1253 750 1181 856 l 1246 743 q 1040 906 1174 849 q 732 963 907 963 q 418 913 563 963 q 167 775 274 864 q 1 567 60 686 q -58 306 -58 447 q -3 56 -58 171 q 153 -142 53 -58 q 390 -273 253 -226 q 688 -319 526 -319 q 951 -285 831 -319 q 1162 -190 1072 -251 q 1302 -44 1251 -128 q 1353 136 1353 39 q 1284 315 1353 236 q 1096 438 1215 393 q 822 482 976 482 q 609 442 690 482 q 528 338 528 403 q 717 224 528 224 q 867 244 793 224 q 1003 301 942 264 q 1100 389 1064 338 q 1136 503 1136 440 q 1100 608 1136 564 q 1008 678 1064 651 q 890 717 953 704 q 772 729 826 729 q 546 695 647 729 q 373 603 444 661 q 262 472 301 546 q 222 317 222 397 q 276 142 222 215 q 425 30 331 69 q 643 -10 519 -10 q 878 27 764 -10 q 1101 129 993 64 q 1312 279 1208 194 q 1517 460 1415 364 q 1722 655 1619 556 q 1928 847 1824 754 q 2008 912 1956 872 q 2133 990 2061 951 q 2286 1050 2204 1029 l 2322 1049 q 2156 991 2233 1031 q 2022 910 2079 951 q 1933 839 1965 868 q 1776 676 1851 765 q 1626 491 1701 586 q 1473 306 1551 396 q 1304 146 1394 217 q 1130 35 1228 85 q 920 -43 1032 -14 q 690 -72 808 -72 q 422 -19 528 -72 q 265 122 315 33 q 214 317 214 211 q 253 476 214 400 q 365 610 292 551 q 541 703 438 669 q 774 738 644 738 q 888 726 824 738 q 1010 687 951 714 q 1106 613 1068 660 q 1144 500 1144 567 q 1107 383 1144 435 q 1008 294 1069 331 q 870 237 946 257 q 717 215 794 217 q 519 338 519 215 q 603 449 519 407 q 822 490 688 490 q 1100 445 978 490 q 1292 319 1222 400 q 1361 136 1361 239 q 1310 -48 1361 36 q 1168 -195 1260 -132 q 954 -293 1076 -258 q 688 -328 832 -328 m 1354 369 l 1361 379 l 1985 379 l 1985 369 l 1354 369 m 2276 1263 q 2301 1318 2276 1290 q 2361 1364 2325 1346 q 2433 1382 2397 1382 q 2476 1372 2461 1382 q 2490 1346 2490 1361 q 2466 1292 2490 1319 q 2405 1245 2442 1264 q 2335 1226 2368 1226 q 2292 1237 2308 1226 q 2276 1263 2276 1247 m 2428 1375 q 2376 1358 2403 1375 q 2331 1315 2349 1340 q 2313 1263 2313 1289 q 2339 1233 2313 1233 q 2390 1251 2364 1233 q 2435 1295 2417 1269 q 2453 1344 2453 1321 q 2428 1375 2453 1375 m 2328 1410 l 2325 1415 l 2488 1524 q 2518 1533 2503 1533 q 2540 1514 2540 1533 q 2519 1489 2540 1497 l 2328 1410 z "},"Ã":{"ha":1910,"x_min":-67,"x_max":2669,"o":"m 1844 -374 q 1732 -339 1779 -374 q 1659 -244 1685 -304 q 1633 -108 1633 -183 q 1658 54 1633 -31 q 1721 224 1682 139 q 1805 386 1760 308 q 1894 529 1850 464 q 1971 639 1938 594 q 2088 787 2022 710 q 2229 932 2153 864 q 2390 1042 2306 1000 q 2563 1083 2475 1083 q 2644 1072 2619 1083 q 2669 1040 2669 1061 q 2649 1017 2669 1026 q 2589 1007 2628 1007 q 2388 1038 2490 1007 q 2174 1115 2285 1069 q 1942 1207 2063 1161 q 1688 1284 1821 1253 q 1407 1315 1556 1315 q 1127 1278 1250 1315 q 919 1178 1004 1240 q 788 1041 833 1117 q 743 889 743 965 q 793 731 743 806 q 945 610 843 657 q 1201 564 1047 564 q 1407 606 1324 564 q 1533 710 1490 647 q 1576 835 1576 772 q 1550 927 1576 885 q 1470 995 1524 969 q 1333 1021 1417 1021 q 1210 1004 1268 1021 q 1113 958 1153 988 l 1104 965 q 1206 1012 1146 994 q 1333 1029 1265 1029 q 1474 1002 1418 1029 q 1557 932 1529 975 q 1585 838 1585 889 q 1541 706 1585 771 q 1412 599 1497 642 q 1200 556 1326 556 q 938 604 1043 556 q 782 731 833 653 q 731 896 731 808 q 774 1052 731 975 q 904 1193 818 1129 q 1114 1294 990 1257 q 1396 1332 1238 1332 q 1670 1300 1538 1332 q 1926 1222 1803 1268 q 2165 1128 2050 1175 q 2384 1050 2279 1082 q 2585 1018 2489 1018 q 2635 1026 2622 1018 q 2649 1044 2649 1035 q 2629 1065 2649 1056 q 2572 1074 2610 1074 q 2387 1028 2475 1074 q 2220 910 2299 983 q 2074 749 2142 836 q 1949 575 2006 661 q 1815 344 1876 467 q 1715 103 1753 222 q 1676 -118 1676 -15 q 1695 -240 1676 -183 q 1751 -332 1714 -297 q 1844 -367 1788 -367 q 1895 -357 1874 -367 q 1933 -331 1917 -347 l 1935 -337 q 1898 -364 1919 -354 q 1844 -374 1876 -374 m 688 -328 q 386 -281 524 -328 q 147 -149 249 -233 q -10 52 46 -64 q -67 306 -67 168 q -7 570 -67 449 q 161 781 53 692 q 415 921 269 871 q 732 971 561 971 q 1045 913 910 971 q 1253 750 1181 856 l 1246 743 q 1040 906 1174 849 q 732 963 907 963 q 418 913 563 963 q 167 775 274 864 q 1 567 60 686 q -58 306 -58 447 q -3 56 -58 171 q 153 -142 53 -58 q 390 -273 253 -226 q 688 -319 526 -319 q 951 -285 831 -319 q 1162 -190 1072 -251 q 1302 -44 1251 -128 q 1353 136 1353 39 q 1284 315 1353 236 q 1096 438 1215 393 q 822 482 976 482 q 609 442 690 482 q 528 338 528 403 q 717 224 528 224 q 867 244 793 224 q 1003 301 942 264 q 1100 389 1064 338 q 1136 503 1136 440 q 1100 608 1136 564 q 1008 678 1064 651 q 890 717 953 704 q 772 729 826 729 q 546 695 647 729 q 373 603 444 661 q 262 472 301 546 q 222 317 222 397 q 276 142 222 215 q 425 30 331 69 q 643 -10 519 -10 q 878 27 764 -10 q 1101 129 993 64 q 1312 279 1208 194 q 1517 460 1415 364 q 1722 655 1619 556 q 1928 847 1824 754 q 2008 912 1956 872 q 2133 990 2061 951 q 2286 1050 2204 1029 l 2322 1049 q 2156 991 2233 1031 q 2022 910 2079 951 q 1933 839 1965 868 q 1776 676 1851 765 q 1626 491 1701 586 q 1473 306 1551 396 q 1304 146 1394 217 q 1130 35 1228 85 q 920 -43 1032 -14 q 690 -72 808 -72 q 422 -19 528 -72 q 265 122 315 33 q 214 317 214 211 q 253 476 214 400 q 365 610 292 551 q 541 703 438 669 q 774 738 644 738 q 888 726 824 738 q 1010 687 951 714 q 1106 613 1068 660 q 1144 500 1144 567 q 1107 383 1144 435 q 1008 294 1069 331 q 870 237 946 257 q 717 215 794 217 q 519 338 519 215 q 603 449 519 407 q 822 490 688 490 q 1100 445 978 490 q 1292 319 1222 400 q 1361 136 1361 239 q 1310 -48 1361 36 q 1168 -195 1260 -132 q 954 -293 1076 -258 q 688 -328 832 -328 m 1354 369 l 1361 379 l 1985 379 l 1985 369 l 1354 369 m 2243 1268 l 2240 1275 q 2292 1327 2257 1310 q 2364 1344 2326 1344 q 2413 1332 2392 1344 q 2454 1308 2433 1319 q 2501 1297 2475 1297 q 2533 1305 2517 1297 q 2554 1339 2549 1313 l 2558 1332 q 2525 1283 2553 1303 q 2460 1263 2497 1263 q 2410 1273 2433 1263 q 2364 1292 2388 1283 q 2307 1301 2340 1301 q 2243 1268 2264 1301 z "},"Æ":{"ha":2669,"x_min":-67,"x_max":3076,"o":"m 688 -328 q 386 -281 524 -328 q 147 -149 249 -233 q -10 52 46 -64 q -67 306 -67 168 q -7 570 -67 449 q 161 781 53 692 q 415 921 269 871 q 732 971 561 971 q 1045 913 910 971 q 1253 750 1181 856 l 1246 743 q 1040 906 1174 849 q 732 963 907 963 q 418 913 563 963 q 167 775 274 864 q 1 567 60 686 q -58 306 -58 447 q -3 56 -58 171 q 153 -142 53 -58 q 390 -273 253 -226 q 688 -319 526 -319 q 951 -285 831 -319 q 1162 -190 1072 -251 q 1302 -44 1251 -128 q 1353 136 1353 39 q 1284 315 1353 236 q 1096 438 1215 393 q 822 482 976 482 q 609 442 690 482 q 528 338 528 403 q 711 224 528 224 q 864 244 789 224 q 1001 301 939 264 q 1099 389 1063 338 q 1136 503 1136 440 q 1100 608 1136 564 q 1008 678 1064 651 q 890 717 953 704 q 772 729 826 729 q 546 695 647 729 q 373 603 444 661 q 262 472 301 546 q 222 317 222 397 q 276 142 222 215 q 425 30 331 69 q 643 -10 519 -10 q 878 27 764 -10 q 1101 129 993 64 q 1312 279 1208 194 q 1517 460 1415 364 q 1722 655 1619 556 q 1928 847 1824 754 q 2008 912 1956 872 q 2133 990 2061 951 q 2286 1050 2204 1029 l 2322 1049 q 2156 991 2233 1031 q 2022 910 2079 951 q 1933 839 1965 868 q 1776 676 1851 765 q 1626 491 1701 586 q 1473 306 1551 396 q 1304 146 1394 217 q 1130 35 1228 85 q 920 -43 1032 -14 q 690 -72 808 -72 q 422 -19 528 -72 q 265 122 315 33 q 214 317 214 211 q 253 476 214 400 q 365 610 292 551 q 541 703 438 669 q 774 738 644 738 q 888 726 824 738 q 1010 687 951 714 q 1106 613 1068 660 q 1144 500 1144 567 q 1107 383 1144 435 q 1008 293 1069 331 q 870 235 946 256 q 717 215 794 215 q 519 338 519 215 q 603 449 519 407 q 822 490 688 490 q 1100 445 978 490 q 1292 319 1222 400 q 1361 136 1361 239 q 1310 -48 1361 36 q 1168 -195 1260 -132 q 954 -293 1076 -258 q 688 -328 832 -328 m 1354 369 l 1361 379 l 1817 379 l 1817 369 l 1354 369 m 1726 129 q 1765 311 1725 210 q 1872 520 1804 413 q 2027 729 1940 628 q 2208 911 2114 831 q 2394 1038 2303 992 q 2181 1113 2292 1067 q 1947 1205 2069 1158 q 1690 1283 1825 1251 q 1407 1315 1556 1315 q 1127 1278 1250 1315 q 919 1178 1004 1240 q 788 1041 833 1117 q 743 889 743 965 q 793 731 743 806 q 945 610 843 657 q 1201 564 1047 564 q 1407 606 1324 564 q 1533 710 1490 647 q 1576 835 1576 772 q 1550 927 1576 885 q 1470 995 1524 969 q 1333 1021 1417 1021 q 1210 1004 1268 1021 q 1113 958 1153 988 l 1104 965 q 1206 1012 1146 994 q 1333 1029 1265 1029 q 1474 1002 1418 1029 q 1557 932 1529 975 q 1585 838 1585 889 q 1541 706 1585 771 q 1412 599 1497 642 q 1200 556 1326 556 q 938 604 1043 556 q 782 731 833 653 q 731 896 731 808 q 774 1052 731 975 q 904 1193 818 1129 q 1114 1294 990 1257 q 1396 1332 1238 1332 q 1679 1299 1542 1332 q 1946 1216 1817 1265 q 2194 1118 2075 1167 q 2425 1040 2314 1069 q 2235 919 2331 997 q 2057 740 2140 840 q 1909 530 1974 639 q 1807 317 1844 421 q 1769 129 1769 213 l 1726 129 m 2090 -214 q 1824 -122 1921 -214 q 1726 129 1726 -31 q 1766 296 1726 211 q 1875 457 1806 381 q 2033 594 1944 533 q 2217 690 2121 654 q 2408 725 2314 725 q 2485 713 2457 725 q 2511 681 2513 701 q 2494 656 2511 665 q 2450 646 2478 646 q 2371 683 2401 646 q 2340 782 2340 721 q 2379 931 2340 857 q 2485 1066 2418 1006 q 2633 1162 2551 1126 q 2799 1197 2715 1197 q 2932 1153 2885 1197 q 2979 1028 2979 1110 q 2950 903 2979 963 q 2875 805 2921 843 q 2779 767 2829 767 q 2727 791 2747 767 q 2707 854 2707 815 q 2740 963 2707 908 q 2826 1063 2772 1017 q 2946 1135 2881 1108 q 3076 1161 3011 1161 l 3076 1153 q 2950 1126 3014 1153 q 2833 1056 2886 1100 q 2748 960 2781 1013 q 2715 857 2715 908 q 2733 797 2715 819 q 2779 775 2750 775 q 2871 813 2826 775 q 2944 909 2915 850 q 2972 1029 2972 968 q 2929 1147 2972 1106 q 2807 1188 2886 1188 q 2649 1151 2728 1188 q 2506 1053 2571 1114 q 2403 917 2442 992 q 2365 768 2365 843 q 2388 684 2365 714 q 2450 654 2411 654 q 2503 679 2503 654 q 2478 707 2503 696 q 2413 718 2453 718 q 2241 683 2326 718 q 2079 586 2156 647 q 1943 445 2003 525 q 1849 277 1883 365 q 1815 100 1815 189 q 1896 -122 1815 -40 q 2117 -203 1976 -203 q 2276 -174 2197 -203 q 2426 -93 2356 -144 q 2550 25 2496 -42 q 2635 166 2604 92 q 2665 317 2665 240 q 2529 463 2665 463 q 2410 428 2471 463 q 2299 338 2350 393 q 2215 215 2247 282 q 2183 85 2183 149 q 2201 15 2183 42 q 2249 -12 2219 -12 l 2249 -19 q 2195 9 2215 -21 q 2175 88 2175 39 q 2207 220 2175 153 q 2292 344 2239 288 q 2408 435 2346 401 q 2532 469 2471 469 q 2672 317 2672 469 q 2624 120 2672 215 q 2494 -51 2576 25 q 2307 -170 2411 -126 q 2090 -214 2203 -214 z "},"Ǽ":{"ha":2669,"x_min":-67,"x_max":3076,"o":"m 688 -328 q 386 -281 524 -328 q 147 -149 249 -233 q -10 52 46 -64 q -67 306 -67 168 q -7 570 -67 449 q 161 781 53 692 q 415 921 269 871 q 732 971 561 971 q 1045 913 910 971 q 1253 750 1181 856 l 1246 743 q 1040 906 1174 849 q 732 963 907 963 q 418 913 563 963 q 167 775 274 864 q 1 567 60 686 q -58 306 -58 447 q -3 56 -58 171 q 153 -142 53 -58 q 390 -273 253 -226 q 688 -319 526 -319 q 951 -285 831 -319 q 1162 -190 1072 -251 q 1302 -44 1251 -128 q 1353 136 1353 39 q 1284 315 1353 236 q 1096 438 1215 393 q 822 482 976 482 q 609 442 690 482 q 528 338 528 403 q 711 224 528 224 q 864 244 789 224 q 1001 301 939 264 q 1099 389 1063 338 q 1136 503 1136 440 q 1100 608 1136 564 q 1008 678 1064 651 q 890 717 953 704 q 772 729 826 729 q 546 695 647 729 q 373 603 444 661 q 262 472 301 546 q 222 317 222 397 q 276 142 222 215 q 425 30 331 69 q 643 -10 519 -10 q 878 27 764 -10 q 1101 129 993 64 q 1312 279 1208 194 q 1517 460 1415 364 q 1722 655 1619 556 q 1928 847 1824 754 q 2008 912 1956 872 q 2133 990 2061 951 q 2286 1050 2204 1029 l 2322 1049 q 2156 991 2233 1031 q 2022 910 2079 951 q 1933 839 1965 868 q 1776 676 1851 765 q 1626 491 1701 586 q 1473 306 1551 396 q 1304 146 1394 217 q 1130 35 1228 85 q 920 -43 1032 -14 q 690 -72 808 -72 q 422 -19 528 -72 q 265 122 315 33 q 214 317 214 211 q 253 476 214 400 q 365 610 292 551 q 541 703 438 669 q 774 738 644 738 q 888 726 824 738 q 1010 687 951 714 q 1106 613 1068 660 q 1144 500 1144 567 q 1107 383 1144 435 q 1008 293 1069 331 q 870 235 946 256 q 717 215 794 215 q 519 338 519 215 q 603 449 519 407 q 822 490 688 490 q 1100 445 978 490 q 1292 319 1222 400 q 1361 136 1361 239 q 1310 -48 1361 36 q 1168 -195 1260 -132 q 954 -293 1076 -258 q 688 -328 832 -328 m 1354 369 l 1361 379 l 1817 379 l 1817 369 l 1354 369 m 1726 129 q 1765 311 1725 210 q 1872 520 1804 413 q 2027 729 1940 628 q 2208 911 2114 831 q 2394 1038 2303 992 q 2181 1113 2292 1067 q 1947 1205 2069 1158 q 1690 1283 1825 1251 q 1407 1315 1556 1315 q 1127 1278 1250 1315 q 919 1178 1004 1240 q 788 1041 833 1117 q 743 889 743 965 q 793 731 743 806 q 945 610 843 657 q 1201 564 1047 564 q 1407 606 1324 564 q 1533 710 1490 647 q 1576 835 1576 772 q 1550 927 1576 885 q 1470 995 1524 969 q 1333 1021 1417 1021 q 1210 1004 1268 1021 q 1113 958 1153 988 l 1104 965 q 1206 1012 1146 994 q 1333 1029 1265 1029 q 1474 1002 1418 1029 q 1557 932 1529 975 q 1585 838 1585 889 q 1541 706 1585 771 q 1412 599 1497 642 q 1200 556 1326 556 q 938 604 1043 556 q 782 731 833 653 q 731 896 731 808 q 774 1052 731 975 q 904 1193 818 1129 q 1114 1294 990 1257 q 1396 1332 1238 1332 q 1679 1299 1542 1332 q 1946 1216 1817 1265 q 2194 1118 2075 1167 q 2425 1040 2314 1069 q 2235 919 2331 997 q 2057 740 2140 840 q 1909 530 1974 639 q 1807 317 1844 421 q 1769 129 1769 213 l 1726 129 m 2090 -214 q 1824 -122 1921 -214 q 1726 129 1726 -31 q 1766 296 1726 211 q 1875 457 1806 381 q 2033 594 1944 533 q 2217 690 2121 654 q 2408 725 2314 725 q 2485 713 2457 725 q 2511 681 2513 701 q 2494 656 2511 665 q 2450 646 2478 646 q 2371 683 2401 646 q 2340 782 2340 721 q 2379 931 2340 857 q 2485 1066 2418 1006 q 2633 1162 2551 1126 q 2799 1197 2715 1197 q 2932 1153 2885 1197 q 2979 1028 2979 1110 q 2950 903 2979 963 q 2875 805 2921 843 q 2779 767 2829 767 q 2727 791 2747 767 q 2707 854 2707 815 q 2740 963 2707 908 q 2826 1063 2772 1017 q 2946 1135 2881 1108 q 3076 1161 3011 1161 l 3076 1153 q 2950 1126 3014 1153 q 2833 1056 2886 1100 q 2748 960 2781 1013 q 2715 857 2715 908 q 2733 797 2715 819 q 2779 775 2750 775 q 2871 813 2826 775 q 2944 909 2915 850 q 2972 1029 2972 968 q 2929 1147 2972 1106 q 2807 1188 2886 1188 q 2649 1151 2728 1188 q 2506 1053 2571 1114 q 2403 917 2442 992 q 2365 768 2365 843 q 2388 684 2365 714 q 2450 654 2411 654 q 2503 679 2503 654 q 2478 707 2503 696 q 2413 718 2453 718 q 2241 683 2326 718 q 2079 586 2156 647 q 1943 445 2003 525 q 1849 277 1883 365 q 1815 100 1815 189 q 1896 -122 1815 -40 q 2117 -203 1976 -203 q 2276 -174 2197 -203 q 2426 -93 2356 -144 q 2550 25 2496 -42 q 2635 166 2604 92 q 2665 317 2665 240 q 2529 463 2665 463 q 2410 428 2471 463 q 2299 338 2350 393 q 2215 215 2247 282 q 2183 85 2183 149 q 2201 15 2183 42 q 2249 -12 2219 -12 l 2249 -19 q 2195 9 2215 -21 q 2175 88 2175 39 q 2207 220 2175 153 q 2292 344 2239 288 q 2408 435 2346 401 q 2532 469 2471 469 q 2672 317 2672 469 q 2624 120 2672 215 q 2494 -51 2576 25 q 2307 -170 2411 -126 q 2090 -214 2203 -214 m 2293 1240 l 2290 1246 l 2453 1354 q 2483 1364 2468 1364 q 2506 1344 2506 1364 q 2485 1319 2506 1328 l 2293 1240 z "},"B":{"ha":1539,"x_min":-56,"x_max":1786,"o":"m 906 753 q 711 714 799 751 q 572 616 624 676 q 519 486 519 556 q 560 370 519 425 q 681 281 600 315 q 889 247 763 247 q 1113 280 1014 247 q 1279 369 1211 313 q 1384 498 1347 425 q 1421 650 1421 571 q 1376 807 1421 740 q 1255 918 1332 874 q 1081 985 1178 963 q 878 1007 983 1007 q 558 965 703 1007 q 301 852 413 924 q 112 685 189 781 q -6 483 35 590 q -46 264 -46 375 q 3 29 -46 144 q 149 -179 51 -86 q 395 -328 246 -272 q 749 -385 544 -385 q 909 -372 824 -385 q 1081 -334 994 -360 q 1245 -269 1167 -308 q 1383 -176 1324 -231 l 1392 -185 q 1256 -276 1333 -237 q 1092 -342 1179 -315 q 917 -381 1004 -368 q 749 -393 829 -393 q 392 -337 543 -393 q 141 -185 240 -281 q -7 28 42 -89 q -56 267 -56 146 q -15 488 -56 379 q 103 692 25 597 q 295 860 182 788 q 555 974 408 933 q 878 1015 701 1015 q 1083 993 985 1015 q 1260 925 1182 971 q 1383 811 1338 879 q 1429 650 1429 743 q 1393 495 1429 569 q 1286 363 1357 421 q 1115 272 1215 306 q 889 238 1015 238 q 674 273 758 238 q 551 365 590 308 q 511 486 511 422 q 563 621 511 558 q 705 722 615 683 q 906 761 794 760 q 1024 743 979 761 q 1089 698 1069 725 q 1108 643 1108 671 q 1072 563 1108 604 q 963 494 1035 522 q 781 465 890 465 q 631 488 704 465 q 499 555 558 511 q 406 660 440 599 q 371 799 371 722 q 424 986 371 893 q 576 1157 476 1079 q 816 1281 675 1235 q 1133 1328 957 1328 q 1416 1285 1294 1328 q 1620 1171 1538 1243 q 1744 1010 1703 1099 q 1786 829 1786 921 q 1761 696 1786 763 q 1685 574 1736 629 q 1560 487 1635 519 q 1390 454 1486 454 q 1317 467 1343 454 q 1292 497 1292 479 q 1308 524 1292 515 q 1347 533 1324 533 q 1431 507 1397 533 q 1483 438 1465 481 q 1501 349 1501 396 q 1463 215 1501 285 q 1346 85 1424 146 q 1156 -11 1268 25 q 899 -47 1044 -47 q 724 -26 804 -47 q 575 22 644 -6 q 445 71 506 50 q 328 92 385 92 q 258 76 276 92 q 239 42 239 61 q 385 -22 239 -22 q 605 17 506 -22 q 795 129 704 57 q 982 302 886 201 q 1190 526 1078 403 q 1449 788 1303 649 q 1547 876 1500 840 q 1639 936 1594 913 l 1710 936 q 1586 881 1654 922 q 1457 779 1518 839 q 1317 612 1381 703 q 1192 427 1253 521 q 1065 247 1131 333 q 922 92 1000 161 q 744 -17 843 24 q 517 -57 646 -57 q 338 -44 400 -57 q 253 -8 276 -31 q 231 39 231 14 q 250 83 231 64 q 322 101 269 101 q 441 80 376 101 q 578 31 506 58 q 731 -17 651 4 q 899 -39 811 -39 q 1128 2 1022 -39 q 1311 106 1233 43 q 1433 241 1389 169 q 1476 374 1476 313 q 1465 443 1476 408 q 1426 501 1453 478 q 1354 525 1399 525 q 1317 517 1332 525 q 1303 494 1303 508 q 1326 471 1303 481 q 1390 461 1349 461 q 1556 493 1483 461 q 1677 578 1628 525 q 1751 697 1726 632 q 1776 829 1776 763 q 1735 1007 1776 919 q 1612 1165 1693 1094 q 1410 1278 1531 1236 q 1131 1319 1289 1319 q 828 1274 967 1319 q 590 1153 690 1229 q 435 986 490 1078 q 379 801 379 894 q 413 664 379 725 q 505 561 447 603 q 634 497 563 519 q 781 474 706 474 q 958 501 888 474 q 1065 567 1029 528 q 1100 643 1100 606 q 1081 694 1100 668 q 1019 736 1063 719 q 906 753 976 753 z "},"C":{"ha":1304,"x_min":-222,"x_max":1489,"o":"m 643 -200 q 477 -167 543 -200 q 372 -81 411 -135 q 315 41 332 -26 q 299 179 299 108 q 344 415 299 300 q 469 633 389 529 q 650 823 549 736 q 863 974 751 910 q 1083 1073 974 1038 q 1289 1108 1193 1108 q 1385 1090 1339 1108 q 1460 1028 1431 1071 q 1489 915 1489 986 q 1455 735 1489 828 q 1363 556 1421 643 q 1231 392 1304 469 q 1081 256 1158 315 q 930 165 1003 197 q 797 132 857 132 q 710 169 747 132 q 672 282 672 207 q 699 415 672 346 q 769 553 725 485 q 869 681 814 621 q 980 788 924 740 q 1086 861 1036 835 q 1171 888 1136 888 q 1226 869 1206 888 q 1246 819 1246 851 q 1205 692 1246 761 q 1090 551 1164 622 q 917 414 1015 479 q 706 297 819 349 q 474 215 593 246 q 236 185 354 185 q 60 206 143 185 q -87 265 -24 226 q -187 357 -151 303 q -222 476 -222 411 q -174 635 -222 564 q -35 758 -125 707 q 177 838 56 810 q 443 865 299 865 q 744 826 599 865 q 1016 720 890 788 q 1236 567 1142 653 l 1229 557 q 1011 710 1136 643 q 742 817 886 778 q 443 856 597 856 q 188 828 307 856 q -21 751 69 801 q -162 631 -111 701 q -212 475 -212 561 q -151 327 -212 390 q 14 229 -89 264 q 239 194 117 194 q 471 224 353 194 q 701 305 589 254 q 909 420 813 356 q 1079 555 1006 485 q 1194 693 1153 625 q 1236 819 1236 761 q 1219 862 1236 844 q 1172 879 1203 879 q 1090 853 1139 879 q 986 781 1042 826 q 877 677 931 736 q 778 551 824 618 q 707 418 733 485 q 681 289 681 351 q 715 178 681 215 q 797 142 749 142 q 928 175 856 142 q 1078 267 1001 208 q 1226 401 1154 325 q 1354 563 1297 476 q 1445 740 1411 650 q 1479 915 1479 831 q 1453 1022 1479 983 q 1387 1078 1428 1061 q 1299 1094 1346 1094 q 1121 1053 1219 1094 q 917 942 1022 1013 q 715 776 813 871 q 538 570 617 681 q 413 342 460 460 q 367 106 367 224 q 395 -50 367 17 q 485 -153 424 -117 q 643 -190 546 -190 q 797 -165 715 -190 q 962 -92 878 -139 q 1128 22 1046 -44 q 1282 168 1210 88 l 1304 192 l 1315 192 l 1293 168 q 1136 17 1219 85 q 967 -99 1053 -50 q 799 -174 882 -149 q 643 -200 715 -200 z "},"Ć":{"ha":1304,"x_min":-222,"x_max":1583,"o":"m 643 -200 q 477 -167 543 -200 q 372 -81 411 -135 q 315 41 332 -26 q 299 179 299 108 q 344 415 299 300 q 469 633 389 529 q 650 823 549 736 q 863 974 751 910 q 1083 1073 974 1038 q 1289 1108 1193 1108 q 1385 1090 1339 1108 q 1460 1028 1431 1071 q 1489 915 1489 986 q 1455 735 1489 828 q 1363 556 1421 643 q 1231 392 1304 469 q 1081 256 1158 315 q 930 165 1003 197 q 797 132 857 132 q 710 169 747 132 q 672 282 672 207 q 699 415 672 346 q 769 553 725 485 q 869 681 814 621 q 980 788 924 740 q 1086 861 1036 835 q 1171 888 1136 888 q 1226 869 1206 888 q 1246 819 1246 851 q 1205 692 1246 761 q 1090 551 1164 622 q 917 414 1015 479 q 706 297 819 349 q 474 215 593 246 q 236 185 354 185 q 60 206 143 185 q -87 265 -24 226 q -187 357 -151 303 q -222 476 -222 411 q -174 635 -222 564 q -35 758 -125 707 q 177 838 56 810 q 443 865 299 865 q 744 826 599 865 q 1016 720 890 788 q 1236 567 1142 653 l 1229 557 q 1011 710 1136 643 q 742 817 886 778 q 443 856 597 856 q 188 828 307 856 q -21 751 69 801 q -162 631 -111 701 q -212 475 -212 561 q -151 327 -212 390 q 14 229 -89 264 q 239 194 117 194 q 471 224 353 194 q 701 305 589 254 q 909 420 813 356 q 1079 555 1006 485 q 1194 693 1153 625 q 1236 819 1236 761 q 1219 862 1236 844 q 1172 879 1203 879 q 1090 853 1139 879 q 986 781 1042 826 q 877 677 931 736 q 778 551 824 618 q 707 418 733 485 q 681 289 681 351 q 715 178 681 215 q 797 142 749 142 q 928 175 856 142 q 1078 267 1001 208 q 1226 401 1154 325 q 1354 563 1297 476 q 1445 740 1411 650 q 1479 915 1479 831 q 1453 1022 1479 983 q 1387 1078 1428 1061 q 1299 1094 1346 1094 q 1121 1053 1219 1094 q 917 942 1022 1013 q 715 776 813 871 q 538 570 617 681 q 413 342 460 460 q 367 106 367 224 q 395 -50 367 17 q 485 -153 424 -117 q 643 -190 546 -190 q 797 -165 715 -190 q 962 -92 878 -139 q 1128 22 1046 -44 q 1282 168 1210 88 l 1304 192 l 1315 192 l 1293 168 q 1136 17 1219 85 q 967 -99 1053 -50 q 799 -174 882 -149 q 643 -200 715 -200 m 1371 1240 l 1368 1246 l 1531 1354 q 1561 1364 1546 1364 q 1583 1344 1583 1364 q 1563 1319 1583 1328 l 1371 1240 z "},"Č":{"ha":1304,"x_min":-222,"x_max":1664,"o":"m 643 -200 q 477 -167 543 -200 q 372 -81 411 -135 q 315 41 332 -26 q 299 179 299 108 q 344 415 299 300 q 469 633 389 529 q 650 823 549 736 q 863 974 751 910 q 1083 1073 974 1038 q 1289 1108 1193 1108 q 1385 1090 1339 1108 q 1460 1028 1431 1071 q 1489 915 1489 986 q 1455 735 1489 828 q 1363 556 1421 643 q 1231 392 1304 469 q 1081 256 1158 315 q 930 165 1003 197 q 797 132 857 132 q 710 169 747 132 q 672 282 672 207 q 699 415 672 346 q 769 553 725 485 q 869 681 814 621 q 980 788 924 740 q 1086 861 1036 835 q 1171 888 1136 888 q 1226 869 1206 888 q 1246 819 1246 851 q 1205 692 1246 761 q 1090 551 1164 622 q 917 414 1015 479 q 706 297 819 349 q 474 215 593 246 q 236 185 354 185 q 60 206 143 185 q -87 265 -24 226 q -187 357 -151 303 q -222 476 -222 411 q -174 635 -222 564 q -35 758 -125 707 q 177 838 56 810 q 443 865 299 865 q 744 826 599 865 q 1016 720 890 788 q 1236 567 1142 653 l 1229 557 q 1011 710 1136 643 q 742 817 886 778 q 443 856 597 856 q 188 828 307 856 q -21 751 69 801 q -162 631 -111 701 q -212 475 -212 561 q -151 327 -212 390 q 14 229 -89 264 q 239 194 117 194 q 471 224 353 194 q 701 305 589 254 q 909 420 813 356 q 1079 555 1006 485 q 1194 693 1153 625 q 1236 819 1236 761 q 1219 862 1236 844 q 1172 879 1203 879 q 1090 853 1139 879 q 986 781 1042 826 q 877 677 931 736 q 778 551 824 618 q 707 418 733 485 q 681 289 681 351 q 715 178 681 215 q 797 142 749 142 q 928 175 856 142 q 1078 267 1001 208 q 1226 401 1154 325 q 1354 563 1297 476 q 1445 740 1411 650 q 1479 915 1479 831 q 1453 1022 1479 983 q 1387 1078 1428 1061 q 1299 1094 1346 1094 q 1121 1053 1219 1094 q 917 942 1022 1013 q 715 776 813 871 q 538 570 617 681 q 413 342 460 460 q 367 106 367 224 q 395 -50 367 17 q 485 -153 424 -117 q 643 -190 546 -190 q 797 -165 715 -190 q 962 -92 878 -139 q 1128 22 1046 -44 q 1282 168 1210 88 l 1304 192 l 1315 192 l 1293 168 q 1136 17 1219 85 q 967 -99 1053 -50 q 799 -174 882 -149 q 643 -200 715 -200 m 1663 1368 l 1664 1363 q 1608 1338 1646 1356 q 1527 1298 1569 1319 q 1451 1259 1485 1276 q 1406 1235 1417 1242 q 1394 1249 1394 1235 q 1407 1297 1401 1269 q 1413 1349 1413 1324 q 1413 1360 1413 1354 q 1411 1371 1413 1365 q 1417 1374 1411 1374 q 1422 1369 1419 1374 q 1439 1330 1432 1349 q 1451 1288 1446 1311 l 1663 1368 z "},"Ç":{"ha":1304,"x_min":-222,"x_max":1489,"o":"m 643 -200 q 477 -167 543 -200 q 372 -81 411 -135 q 315 41 332 -26 q 299 179 299 108 q 344 415 299 300 q 469 633 389 529 q 650 823 549 736 q 863 974 751 910 q 1083 1073 974 1038 q 1289 1108 1193 1108 q 1385 1090 1339 1108 q 1460 1028 1431 1071 q 1489 915 1489 986 q 1455 735 1489 828 q 1363 556 1421 643 q 1231 392 1304 469 q 1081 256 1158 315 q 930 165 1003 197 q 797 132 857 132 q 710 169 747 132 q 672 282 672 207 q 699 415 672 346 q 769 553 725 485 q 869 681 814 621 q 980 788 924 740 q 1086 861 1036 835 q 1171 888 1136 888 q 1226 869 1206 888 q 1246 819 1246 851 q 1205 692 1246 761 q 1090 551 1164 622 q 917 414 1015 479 q 706 297 819 349 q 474 215 593 246 q 236 185 354 185 q 60 206 143 185 q -87 265 -24 226 q -187 357 -151 303 q -222 476 -222 411 q -174 635 -222 564 q -35 758 -125 707 q 177 838 56 810 q 443 865 299 865 q 744 826 599 865 q 1016 720 890 788 q 1236 567 1142 653 l 1229 557 q 1011 710 1136 643 q 742 817 886 778 q 443 856 597 856 q 188 828 307 856 q -21 751 69 801 q -162 631 -111 701 q -212 475 -212 561 q -151 327 -212 390 q 14 229 -89 264 q 239 194 117 194 q 471 224 353 194 q 701 305 589 254 q 909 420 813 356 q 1079 555 1006 485 q 1194 693 1153 625 q 1236 819 1236 761 q 1219 862 1236 844 q 1172 879 1203 879 q 1090 853 1139 879 q 986 781 1042 826 q 877 677 931 736 q 778 551 824 618 q 707 418 733 485 q 681 289 681 351 q 715 178 681 215 q 797 142 749 142 q 928 175 856 142 q 1078 267 1001 208 q 1226 401 1154 325 q 1354 563 1297 476 q 1445 740 1411 650 q 1479 915 1479 831 q 1453 1022 1479 983 q 1387 1078 1428 1061 q 1299 1094 1346 1094 q 1121 1053 1219 1094 q 917 942 1022 1013 q 715 776 813 871 q 538 570 617 681 q 413 342 460 460 q 367 106 367 224 q 395 -50 367 17 q 485 -153 424 -117 q 643 -190 546 -190 q 797 -165 715 -190 q 962 -92 878 -139 q 1128 22 1046 -44 q 1282 168 1210 88 l 1304 192 l 1315 192 l 1293 168 q 1136 17 1219 85 q 967 -99 1053 -50 q 799 -174 882 -149 q 643 -200 715 -200 m 636 -197 l 642 -197 q 632 -224 632 -208 q 645 -256 632 -243 q 658 -289 658 -268 q 631 -337 658 -311 q 550 -362 604 -362 q 519 -356 535 -362 q 496 -336 504 -350 l 501 -332 q 517 -346 508 -340 q 542 -351 525 -351 q 590 -335 571 -351 q 617 -293 610 -319 q 620 -264 621 -281 q 619 -237 619 -247 q 624 -215 619 -224 q 636 -197 628 -206 z "},"Ḉ":{"ha":1304,"x_min":-222,"x_max":1583,"o":"m 643 -200 q 477 -167 543 -200 q 372 -81 411 -135 q 315 41 332 -26 q 299 179 299 108 q 344 415 299 300 q 469 633 389 529 q 650 823 549 736 q 863 974 751 910 q 1083 1073 974 1038 q 1289 1108 1193 1108 q 1385 1090 1339 1108 q 1460 1028 1431 1071 q 1489 915 1489 986 q 1455 735 1489 828 q 1363 556 1421 643 q 1231 392 1304 469 q 1081 256 1158 315 q 930 165 1003 197 q 797 132 857 132 q 710 169 747 132 q 672 282 672 207 q 699 415 672 346 q 769 553 725 485 q 869 681 814 621 q 980 788 924 740 q 1086 861 1036 835 q 1171 888 1136 888 q 1226 869 1206 888 q 1246 819 1246 851 q 1205 692 1246 761 q 1090 551 1164 622 q 917 414 1015 479 q 706 297 819 349 q 474 215 593 246 q 236 185 354 185 q 60 206 143 185 q -87 265 -24 226 q -187 357 -151 303 q -222 476 -222 411 q -174 635 -222 564 q -35 758 -125 707 q 177 838 56 810 q 443 865 299 865 q 744 826 599 865 q 1016 720 890 788 q 1236 567 1142 653 l 1229 557 q 1011 710 1136 643 q 742 817 886 778 q 443 856 597 856 q 188 828 307 856 q -21 751 69 801 q -162 631 -111 701 q -212 475 -212 561 q -151 327 -212 390 q 14 229 -89 264 q 239 194 117 194 q 471 224 353 194 q 701 305 589 254 q 909 420 813 356 q 1079 555 1006 485 q 1194 693 1153 625 q 1236 819 1236 761 q 1219 862 1236 844 q 1172 879 1203 879 q 1090 853 1139 879 q 986 781 1042 826 q 877 677 931 736 q 778 551 824 618 q 707 418 733 485 q 681 289 681 351 q 715 178 681 215 q 797 142 749 142 q 928 175 856 142 q 1078 267 1001 208 q 1226 401 1154 325 q 1354 563 1297 476 q 1445 740 1411 650 q 1479 915 1479 831 q 1453 1022 1479 983 q 1387 1078 1428 1061 q 1299 1094 1346 1094 q 1121 1053 1219 1094 q 917 942 1022 1013 q 715 776 813 871 q 538 570 617 681 q 413 342 460 460 q 367 106 367 224 q 395 -50 367 17 q 485 -153 424 -117 q 643 -190 546 -190 q 797 -165 715 -190 q 962 -92 878 -139 q 1128 22 1046 -44 q 1282 168 1210 88 l 1304 192 l 1315 192 l 1293 168 q 1136 17 1219 85 q 967 -99 1053 -50 q 799 -174 882 -149 q 643 -200 715 -200 m 636 -197 l 642 -197 q 632 -224 632 -208 q 645 -256 632 -243 q 658 -289 658 -268 q 631 -337 658 -311 q 550 -362 604 -362 q 519 -356 535 -362 q 496 -336 504 -350 l 501 -332 q 517 -346 508 -340 q 542 -351 525 -351 q 590 -335 571 -351 q 617 -293 610 -319 q 620 -264 621 -281 q 619 -237 619 -247 q 624 -215 619 -224 q 636 -197 628 -206 m 1371 1240 l 1368 1246 l 1531 1354 q 1561 1364 1546 1364 q 1583 1344 1583 1364 q 1563 1319 1583 1328 l 1371 1240 z "},"Ĉ":{"ha":1304,"x_min":-222,"x_max":1604,"o":"m 643 -200 q 477 -167 543 -200 q 372 -81 411 -135 q 315 41 332 -26 q 299 179 299 108 q 344 415 299 300 q 469 633 389 529 q 650 823 549 736 q 863 974 751 910 q 1083 1073 974 1038 q 1289 1108 1193 1108 q 1385 1090 1339 1108 q 1460 1028 1431 1071 q 1489 915 1489 986 q 1455 735 1489 828 q 1363 556 1421 643 q 1231 392 1304 469 q 1081 256 1158 315 q 930 165 1003 197 q 797 132 857 132 q 710 169 747 132 q 672 282 672 207 q 699 415 672 346 q 769 553 725 485 q 869 681 814 621 q 980 788 924 740 q 1086 861 1036 835 q 1171 888 1136 888 q 1226 869 1206 888 q 1246 819 1246 851 q 1205 692 1246 761 q 1090 551 1164 622 q 917 414 1015 479 q 706 297 819 349 q 474 215 593 246 q 236 185 354 185 q 60 206 143 185 q -87 265 -24 226 q -187 357 -151 303 q -222 476 -222 411 q -174 635 -222 564 q -35 758 -125 707 q 177 838 56 810 q 443 865 299 865 q 744 826 599 865 q 1016 720 890 788 q 1236 567 1142 653 l 1229 557 q 1011 710 1136 643 q 742 817 886 778 q 443 856 597 856 q 188 828 307 856 q -21 751 69 801 q -162 631 -111 701 q -212 475 -212 561 q -151 327 -212 390 q 14 229 -89 264 q 239 194 117 194 q 471 224 353 194 q 701 305 589 254 q 909 420 813 356 q 1079 555 1006 485 q 1194 693 1153 625 q 1236 819 1236 761 q 1219 862 1236 844 q 1172 879 1203 879 q 1090 853 1139 879 q 986 781 1042 826 q 877 677 931 736 q 778 551 824 618 q 707 418 733 485 q 681 289 681 351 q 715 178 681 215 q 797 142 749 142 q 928 175 856 142 q 1078 267 1001 208 q 1226 401 1154 325 q 1354 563 1297 476 q 1445 740 1411 650 q 1479 915 1479 831 q 1453 1022 1479 983 q 1387 1078 1428 1061 q 1299 1094 1346 1094 q 1121 1053 1219 1094 q 917 942 1022 1013 q 715 776 813 871 q 538 570 617 681 q 413 342 460 460 q 367 106 367 224 q 395 -50 367 17 q 485 -153 424 -117 q 643 -190 546 -190 q 797 -165 715 -190 q 962 -92 878 -139 q 1128 22 1046 -44 q 1282 168 1210 88 l 1304 192 l 1315 192 l 1293 168 q 1136 17 1219 85 q 967 -99 1053 -50 q 799 -174 882 -149 q 643 -200 715 -200 m 1336 1240 l 1335 1246 q 1391 1271 1353 1253 q 1472 1310 1429 1289 q 1548 1349 1514 1332 q 1593 1374 1582 1367 q 1604 1360 1604 1374 q 1592 1313 1599 1340 q 1586 1260 1586 1285 q 1586 1249 1586 1254 q 1588 1238 1586 1244 q 1582 1235 1588 1235 q 1576 1239 1579 1235 q 1559 1278 1567 1260 q 1547 1321 1551 1297 l 1336 1240 z "},"Ċ":{"ha":1304,"x_min":-222,"x_max":1592,"o":"m 643 -200 q 477 -167 543 -200 q 372 -81 411 -135 q 315 41 332 -26 q 299 179 299 108 q 344 415 299 300 q 469 633 389 529 q 650 823 549 736 q 863 974 751 910 q 1083 1073 974 1038 q 1289 1108 1193 1108 q 1385 1090 1339 1108 q 1460 1028 1431 1071 q 1489 915 1489 986 q 1455 735 1489 828 q 1363 556 1421 643 q 1231 392 1304 469 q 1081 256 1158 315 q 930 165 1003 197 q 797 132 857 132 q 710 169 747 132 q 672 282 672 207 q 699 415 672 346 q 769 553 725 485 q 869 681 814 621 q 980 788 924 740 q 1086 861 1036 835 q 1171 888 1136 888 q 1226 869 1206 888 q 1246 819 1246 851 q 1205 692 1246 761 q 1090 551 1164 622 q 917 414 1015 479 q 706 297 819 349 q 474 215 593 246 q 236 185 354 185 q 60 206 143 185 q -87 265 -24 226 q -187 357 -151 303 q -222 476 -222 411 q -174 635 -222 564 q -35 758 -125 707 q 177 838 56 810 q 443 865 299 865 q 744 826 599 865 q 1016 720 890 788 q 1236 567 1142 653 l 1229 557 q 1011 710 1136 643 q 742 817 886 778 q 443 856 597 856 q 188 828 307 856 q -21 751 69 801 q -162 631 -111 701 q -212 475 -212 561 q -151 327 -212 390 q 14 229 -89 264 q 239 194 117 194 q 471 224 353 194 q 701 305 589 254 q 909 420 813 356 q 1079 555 1006 485 q 1194 693 1153 625 q 1236 819 1236 761 q 1219 862 1236 844 q 1172 879 1203 879 q 1090 853 1139 879 q 986 781 1042 826 q 877 677 931 736 q 778 551 824 618 q 707 418 733 485 q 681 289 681 351 q 715 178 681 215 q 797 142 749 142 q 928 175 856 142 q 1078 267 1001 208 q 1226 401 1154 325 q 1354 563 1297 476 q 1445 740 1411 650 q 1479 915 1479 831 q 1453 1022 1479 983 q 1387 1078 1428 1061 q 1299 1094 1346 1094 q 1121 1053 1219 1094 q 917 942 1022 1013 q 715 776 813 871 q 538 570 617 681 q 413 342 460 460 q 367 106 367 224 q 395 -50 367 17 q 485 -153 424 -117 q 643 -190 546 -190 q 797 -165 715 -190 q 962 -92 878 -139 q 1128 22 1046 -44 q 1282 168 1210 88 l 1304 192 l 1315 192 l 1293 168 q 1136 17 1219 85 q 967 -99 1053 -50 q 799 -174 882 -149 q 643 -200 715 -200 m 1579 1354 q 1593 1344 1593 1354 q 1573 1308 1593 1329 q 1527 1269 1553 1286 q 1482 1253 1501 1253 q 1471 1263 1471 1253 q 1491 1299 1471 1278 q 1537 1338 1511 1321 q 1579 1354 1563 1354 z "},"D":{"ha":1454,"x_min":-151,"x_max":1669,"o":"m 888 792 q 1072 752 1006 792 q 1138 649 1138 713 q 1093 553 1138 603 q 961 469 1049 503 q 743 435 874 435 q 474 488 586 435 q 301 627 361 540 q 242 819 242 714 q 285 990 242 907 q 412 1140 328 1074 q 616 1246 496 1207 q 890 1285 736 1285 q 1159 1243 1036 1285 q 1373 1126 1282 1201 q 1515 949 1464 1051 q 1565 728 1565 847 q 1507 442 1565 578 q 1342 199 1449 306 q 1090 33 1235 93 q 775 -28 946 -28 q 616 -10 683 -28 q 494 32 549 8 q 392 74 440 56 q 288 92 344 92 q 222 78 244 92 q 199 42 199 65 q 343 -22 199 -22 q 579 29 456 -22 q 814 176 703 81 q 970 325 893 246 q 1122 486 1047 404 q 1269 645 1197 568 q 1408 788 1340 722 q 1507 876 1460 840 q 1599 936 1554 913 l 1669 936 q 1546 881 1614 922 q 1417 779 1478 839 q 1286 622 1349 710 q 1163 439 1224 533 q 1034 256 1101 344 q 885 98 967 168 q 704 -15 804 28 q 476 -57 604 -57 q 298 -44 360 -57 q 213 -8 236 -31 q 190 39 190 14 q 210 83 190 64 q 282 101 229 101 q 389 83 336 101 q 499 41 442 65 q 624 -1 556 17 q 775 -19 692 -19 q 1080 38 938 -19 q 1329 199 1222 96 q 1497 437 1436 301 q 1557 728 1557 572 q 1507 946 1557 846 q 1367 1120 1457 1046 q 1155 1235 1278 1194 q 888 1276 1032 1276 q 635 1242 751 1276 q 433 1144 519 1207 q 298 999 346 1082 q 250 819 250 917 q 313 625 250 710 q 488 492 376 540 q 744 443 600 443 q 937 471 850 443 q 1076 546 1024 499 q 1128 649 1128 593 q 1063 747 1128 710 q 888 783 997 783 q 681 743 774 783 q 531 635 588 703 q 475 486 475 568 q 521 360 475 414 q 650 276 567 306 q 844 246 733 246 q 1056 276 958 246 q 1224 361 1153 307 q 1336 489 1296 415 q 1376 650 1376 563 q 1307 838 1376 758 q 1112 963 1238 918 q 819 1007 986 1007 q 513 967 658 1007 q 249 853 368 926 q 41 679 129 779 q -95 458 -47 579 q -143 201 -143 336 q -85 -69 -143 54 q 79 -281 -26 -192 q 331 -419 185 -371 q 651 -468 476 -468 q 896 -442 778 -468 q 1117 -369 1014 -417 q 1298 -255 1219 -321 q 1424 -108 1376 -189 l 1432 -114 q 1305 -261 1385 -194 q 1122 -376 1225 -328 q 899 -451 1018 -425 q 651 -476 779 -476 q 328 -427 475 -476 q 73 -287 181 -378 q -93 -72 -35 -196 q -151 201 -151 51 q -103 460 -151 338 q 34 685 -54 583 q 243 860 122 786 q 510 975 364 935 q 819 1015 657 1015 q 1117 970 990 1015 q 1315 843 1244 925 q 1385 650 1385 761 q 1344 486 1385 561 q 1231 356 1304 411 q 1060 269 1158 300 q 844 238 961 238 q 645 269 731 238 q 513 356 560 300 q 467 486 467 411 q 524 641 467 572 q 676 751 581 710 q 888 792 771 792 z "},"Ǆ":{"ha":2694,"x_min":-151,"x_max":2917,"o":"m 888 792 q 1072 752 1006 792 q 1138 649 1138 713 q 1093 553 1138 603 q 961 469 1049 503 q 743 435 874 435 q 474 488 586 435 q 301 627 361 540 q 242 819 242 714 q 285 990 242 907 q 412 1140 328 1074 q 616 1246 496 1207 q 890 1285 736 1285 q 1159 1243 1036 1285 q 1373 1126 1282 1201 q 1515 949 1464 1051 q 1565 728 1565 847 q 1507 442 1565 578 q 1342 199 1449 306 q 1090 33 1235 93 q 775 -28 946 -28 q 616 -10 683 -28 q 494 32 549 8 q 392 74 440 56 q 288 92 344 92 q 222 78 244 92 q 199 42 199 65 q 343 -22 199 -22 q 579 29 456 -22 q 814 176 703 81 q 970 325 893 246 q 1122 486 1047 404 q 1269 645 1197 568 q 1408 788 1340 722 q 1507 876 1460 840 q 1599 936 1554 913 l 1669 936 q 1546 881 1614 922 q 1417 779 1478 839 q 1286 622 1349 710 q 1163 439 1224 533 q 1034 256 1101 344 q 885 98 967 168 q 704 -15 804 28 q 476 -57 604 -57 q 298 -44 360 -57 q 213 -8 236 -31 q 190 39 190 14 q 210 83 190 64 q 282 101 229 101 q 389 83 336 101 q 499 41 442 65 q 624 -1 556 17 q 775 -19 692 -19 q 1080 38 938 -19 q 1329 199 1222 96 q 1497 437 1436 301 q 1557 728 1557 572 q 1507 946 1557 846 q 1367 1120 1457 1046 q 1155 1235 1278 1194 q 888 1276 1032 1276 q 635 1242 751 1276 q 433 1144 519 1207 q 298 999 346 1082 q 250 819 250 917 q 313 625 250 710 q 488 492 376 540 q 744 443 600 443 q 937 471 850 443 q 1076 546 1024 499 q 1128 649 1128 593 q 1063 747 1128 710 q 888 783 997 783 q 681 743 774 783 q 531 635 588 703 q 475 486 475 568 q 521 360 475 414 q 650 276 567 306 q 844 246 733 246 q 1056 276 958 246 q 1224 361 1153 307 q 1336 489 1296 415 q 1376 650 1376 563 q 1307 838 1376 758 q 1112 963 1238 918 q 819 1007 986 1007 q 513 967 658 1007 q 249 853 368 926 q 41 679 129 779 q -95 458 -47 579 q -143 201 -143 336 q -85 -69 -143 54 q 79 -281 -26 -192 q 331 -419 185 -371 q 651 -468 476 -468 q 896 -442 778 -468 q 1117 -369 1014 -417 q 1298 -255 1219 -321 q 1424 -108 1376 -189 l 1432 -114 q 1305 -261 1385 -194 q 1122 -376 1225 -328 q 899 -451 1018 -425 q 651 -476 779 -476 q 328 -427 475 -476 q 73 -287 181 -378 q -93 -72 -35 -196 q -151 201 -151 51 q -103 460 -151 338 q 34 685 -54 583 q 243 860 122 786 q 510 975 364 935 q 819 1015 657 1015 q 1117 970 990 1015 q 1315 843 1244 925 q 1385 650 1385 761 q 1344 486 1385 561 q 1231 356 1304 411 q 1060 269 1158 300 q 844 238 961 238 q 645 269 731 238 q 513 356 560 300 q 467 486 467 411 q 524 641 467 572 q 676 751 581 710 q 888 792 771 792 z "},"Ð":{"ha":1454,"x_min":-151,"x_max":1669,"o":"m 864 383 l 875 393 l 1340 393 l 1329 383 l 864 383 m 888 792 q 1072 752 1006 792 q 1138 649 1138 713 q 1093 553 1138 603 q 961 469 1049 503 q 743 435 874 435 q 474 488 586 435 q 301 628 361 540 q 242 819 242 715 q 285 990 242 907 q 413 1140 329 1074 q 616 1246 496 1207 q 890 1285 736 1285 q 1159 1243 1036 1285 q 1373 1126 1282 1201 q 1515 949 1464 1051 q 1565 728 1565 847 q 1507 442 1565 578 q 1342 200 1449 306 q 1090 33 1235 94 q 775 -28 946 -28 q 616 -10 683 -28 q 495 32 549 8 q 393 74 442 56 q 288 92 344 92 q 222 78 244 92 q 199 42 199 65 q 343 -22 199 -22 q 579 29 456 -22 q 814 176 703 81 q 970 325 893 246 q 1122 486 1047 404 q 1269 645 1197 568 q 1408 788 1340 722 q 1507 876 1460 840 q 1599 936 1554 913 l 1669 936 q 1546 881 1614 922 q 1417 779 1478 839 q 1286 622 1349 710 q 1163 439 1224 533 q 1034 256 1101 344 q 886 97 967 168 q 705 -15 806 26 q 476 -57 604 -57 q 298 -44 360 -57 q 213 -8 236 -31 q 190 39 190 14 q 210 83 190 64 q 282 101 229 101 q 389 83 336 101 q 499 41 442 65 q 624 -1 556 17 q 775 -19 692 -19 q 1080 38 938 -19 q 1329 199 1222 96 q 1497 437 1436 301 q 1557 728 1557 572 q 1507 946 1557 846 q 1367 1120 1457 1046 q 1156 1235 1278 1194 q 888 1276 1033 1276 q 635 1242 751 1276 q 433 1145 519 1207 q 298 1000 346 1083 q 250 819 250 917 q 313 625 250 710 q 488 492 376 540 q 744 443 600 443 q 937 471 850 443 q 1076 546 1024 499 q 1128 649 1128 593 q 1063 747 1128 710 q 888 783 997 783 q 680 743 774 783 q 531 635 586 703 q 475 486 475 568 q 521 360 475 414 q 650 276 567 306 q 844 246 733 246 q 1056 276 958 246 q 1224 361 1153 307 q 1336 489 1296 415 q 1376 650 1376 563 q 1307 838 1376 758 q 1113 963 1238 918 q 819 1007 988 1007 q 513 967 658 1007 q 248 853 368 926 q 40 679 128 779 q -95 458 -47 579 q -143 201 -143 336 q -85 -69 -143 54 q 79 -281 -26 -192 q 331 -419 185 -371 q 651 -468 476 -468 q 896 -442 778 -468 q 1117 -369 1014 -417 q 1298 -255 1219 -321 q 1424 -108 1376 -189 l 1432 -114 q 1305 -261 1385 -194 q 1122 -376 1225 -328 q 899 -451 1018 -425 q 651 -476 779 -476 q 328 -427 475 -476 q 74 -287 181 -378 q -92 -72 -33 -196 q -151 201 -151 51 q -103 460 -151 338 q 34 685 -54 583 q 243 860 122 786 q 510 975 364 935 q 819 1015 657 1015 q 1117 970 990 1015 q 1315 843 1244 925 q 1385 650 1385 761 q 1344 486 1385 561 q 1231 356 1304 411 q 1060 269 1158 300 q 844 238 961 238 q 646 269 731 238 q 514 356 561 300 q 467 486 467 411 q 524 640 467 571 q 676 751 581 710 q 888 792 771 792 z "},"Ď":{"ha":1454,"x_min":-151,"x_max":1753,"o":"m 888 792 q 1072 752 1006 792 q 1138 649 1138 713 q 1093 553 1138 603 q 961 469 1049 503 q 743 435 874 435 q 474 488 586 435 q 301 627 361 540 q 242 819 242 714 q 285 990 242 907 q 412 1140 328 1074 q 616 1246 496 1207 q 890 1285 736 1285 q 1159 1243 1036 1285 q 1373 1126 1282 1201 q 1515 949 1464 1051 q 1565 728 1565 847 q 1507 442 1565 578 q 1342 199 1449 306 q 1090 33 1235 93 q 775 -28 946 -28 q 616 -10 683 -28 q 494 32 549 8 q 392 74 440 56 q 288 92 344 92 q 222 78 244 92 q 199 42 199 65 q 343 -22 199 -22 q 579 29 456 -22 q 814 176 703 81 q 970 325 893 246 q 1122 486 1047 404 q 1269 645 1197 568 q 1408 788 1340 722 q 1507 876 1460 840 q 1599 936 1554 913 l 1669 936 q 1546 881 1614 922 q 1417 779 1478 839 q 1286 622 1349 710 q 1163 439 1224 533 q 1034 256 1101 344 q 885 98 967 168 q 704 -15 804 28 q 476 -57 604 -57 q 298 -44 360 -57 q 213 -8 236 -31 q 190 39 190 14 q 210 83 190 64 q 282 101 229 101 q 389 83 336 101 q 499 41 442 65 q 624 -1 556 17 q 775 -19 692 -19 q 1080 38 938 -19 q 1329 199 1222 96 q 1497 437 1436 301 q 1557 728 1557 572 q 1507 946 1557 846 q 1367 1120 1457 1046 q 1155 1235 1278 1194 q 888 1276 1032 1276 q 635 1242 751 1276 q 433 1144 519 1207 q 298 999 346 1082 q 250 819 250 917 q 313 625 250 710 q 488 492 376 540 q 744 443 600 443 q 937 471 850 443 q 1076 546 1024 499 q 1128 649 1128 593 q 1063 747 1128 710 q 888 783 997 783 q 681 743 774 783 q 531 635 588 703 q 475 486 475 568 q 521 360 475 414 q 650 276 567 306 q 844 246 733 246 q 1056 276 958 246 q 1224 361 1153 307 q 1336 489 1296 415 q 1376 650 1376 563 q 1307 838 1376 758 q 1112 963 1238 918 q 819 1007 986 1007 q 513 967 658 1007 q 249 853 368 926 q 41 679 129 779 q -95 458 -47 579 q -143 201 -143 336 q -85 -69 -143 54 q 79 -281 -26 -192 q 331 -419 185 -371 q 651 -468 476 -468 q 896 -442 778 -468 q 1117 -369 1014 -417 q 1298 -255 1219 -321 q 1424 -108 1376 -189 l 1432 -114 q 1305 -261 1385 -194 q 1122 -376 1225 -328 q 899 -451 1018 -425 q 651 -476 779 -476 q 328 -427 475 -476 q 73 -287 181 -378 q -93 -72 -35 -196 q -151 201 -151 51 q -103 460 -151 338 q 34 685 -54 583 q 243 860 122 786 q 510 975 364 935 q 819 1015 657 1015 q 1117 970 990 1015 q 1315 843 1244 925 q 1385 650 1385 761 q 1344 486 1385 561 q 1231 356 1304 411 q 1060 269 1158 300 q 844 238 961 238 q 645 269 731 238 q 513 356 560 300 q 467 486 467 411 q 524 641 467 572 q 676 751 581 710 q 888 792 771 792 m 1751 1368 l 1753 1363 q 1697 1338 1735 1356 q 1616 1298 1658 1319 q 1540 1259 1574 1276 q 1494 1235 1506 1242 q 1483 1249 1483 1235 q 1496 1297 1490 1269 q 1501 1349 1501 1324 q 1501 1360 1501 1354 q 1500 1371 1501 1365 q 1506 1374 1500 1374 q 1511 1369 1508 1374 q 1528 1330 1521 1349 q 1540 1288 1535 1311 l 1751 1368 z "},"Đ":{"ha":1454,"x_min":-151,"x_max":1669,"o":"m 864 383 l 875 393 l 1340 393 l 1329 383 l 864 383 m 888 792 q 1072 752 1006 792 q 1138 649 1138 713 q 1093 553 1138 603 q 961 469 1049 503 q 743 435 874 435 q 474 488 586 435 q 301 628 361 540 q 242 819 242 715 q 285 990 242 907 q 413 1140 329 1074 q 616 1246 496 1207 q 890 1285 736 1285 q 1159 1243 1036 1285 q 1373 1126 1282 1201 q 1515 949 1464 1051 q 1565 728 1565 847 q 1507 442 1565 578 q 1342 200 1449 306 q 1090 33 1235 94 q 775 -28 946 -28 q 616 -10 683 -28 q 495 32 549 8 q 393 74 442 56 q 288 92 344 92 q 222 78 244 92 q 199 42 199 65 q 343 -22 199 -22 q 579 29 456 -22 q 814 176 703 81 q 970 325 893 246 q 1122 486 1047 404 q 1269 645 1197 568 q 1408 788 1340 722 q 1507 876 1460 840 q 1599 936 1554 913 l 1669 936 q 1546 881 1614 922 q 1417 779 1478 839 q 1286 622 1349 710 q 1163 439 1224 533 q 1034 256 1101 344 q 886 97 967 168 q 705 -15 806 26 q 476 -57 604 -57 q 298 -44 360 -57 q 213 -8 236 -31 q 190 39 190 14 q 210 83 190 64 q 282 101 229 101 q 389 83 336 101 q 499 41 442 65 q 624 -1 556 17 q 775 -19 692 -19 q 1080 38 938 -19 q 1329 199 1222 96 q 1497 437 1436 301 q 1557 728 1557 572 q 1507 946 1557 846 q 1367 1120 1457 1046 q 1156 1235 1278 1194 q 888 1276 1033 1276 q 635 1242 751 1276 q 433 1145 519 1207 q 298 1000 346 1083 q 250 819 250 917 q 313 625 250 710 q 488 492 376 540 q 744 443 600 443 q 937 471 850 443 q 1076 546 1024 499 q 1128 649 1128 593 q 1063 747 1128 710 q 888 783 997 783 q 680 743 774 783 q 531 635 586 703 q 475 486 475 568 q 521 360 475 414 q 650 276 567 306 q 844 246 733 246 q 1056 276 958 246 q 1224 361 1153 307 q 1336 489 1296 415 q 1376 650 1376 563 q 1307 838 1376 758 q 1113 963 1238 918 q 819 1007 988 1007 q 513 967 658 1007 q 248 853 368 926 q 40 679 128 779 q -95 458 -47 579 q -143 201 -143 336 q -85 -69 -143 54 q 79 -281 -26 -192 q 331 -419 185 -371 q 651 -468 476 -468 q 896 -442 778 -468 q 1117 -369 1014 -417 q 1298 -255 1219 -321 q 1424 -108 1376 -189 l 1432 -114 q 1305 -261 1385 -194 q 1122 -376 1225 -328 q 899 -451 1018 -425 q 651 -476 779 -476 q 328 -427 475 -476 q 74 -287 181 -378 q -92 -72 -33 -196 q -151 201 -151 51 q -103 460 -151 338 q 34 685 -54 583 q 243 860 122 786 q 510 975 364 935 q 819 1015 657 1015 q 1117 970 990 1015 q 1315 843 1244 925 q 1385 650 1385 761 q 1344 486 1385 561 q 1231 356 1304 411 q 1060 269 1158 300 q 844 238 961 238 q 646 269 731 238 q 514 356 561 300 q 467 486 467 411 q 524 640 467 571 q 676 751 581 710 q 888 792 771 792 z "},"Ḍ":{"ha":1454,"x_min":-151,"x_max":1669,"o":"m 888 792 q 1072 752 1006 792 q 1138 649 1138 713 q 1093 553 1138 603 q 961 469 1049 503 q 743 435 874 435 q 474 488 586 435 q 301 627 361 540 q 242 819 242 714 q 285 990 242 907 q 412 1140 328 1074 q 616 1246 496 1207 q 890 1285 736 1285 q 1159 1243 1036 1285 q 1373 1126 1282 1201 q 1515 949 1464 1051 q 1565 728 1565 847 q 1507 442 1565 578 q 1342 199 1449 306 q 1090 33 1235 93 q 775 -28 946 -28 q 616 -10 683 -28 q 494 32 549 8 q 392 74 440 56 q 288 92 344 92 q 222 78 244 92 q 199 42 199 65 q 343 -22 199 -22 q 579 29 456 -22 q 814 176 703 81 q 970 325 893 246 q 1122 486 1047 404 q 1269 645 1197 568 q 1408 788 1340 722 q 1507 876 1460 840 q 1599 936 1554 913 l 1669 936 q 1546 881 1614 922 q 1417 779 1478 839 q 1286 622 1349 710 q 1163 439 1224 533 q 1034 256 1101 344 q 885 98 967 168 q 704 -15 804 28 q 476 -57 604 -57 q 298 -44 360 -57 q 213 -8 236 -31 q 190 39 190 14 q 210 83 190 64 q 282 101 229 101 q 389 83 336 101 q 499 41 442 65 q 624 -1 556 17 q 775 -19 692 -19 q 1080 38 938 -19 q 1329 199 1222 96 q 1497 437 1436 301 q 1557 728 1557 572 q 1507 946 1557 846 q 1367 1120 1457 1046 q 1155 1235 1278 1194 q 888 1276 1032 1276 q 635 1242 751 1276 q 433 1144 519 1207 q 298 999 346 1082 q 250 819 250 917 q 313 625 250 710 q 488 492 376 540 q 744 443 600 443 q 937 471 850 443 q 1076 546 1024 499 q 1128 649 1128 593 q 1063 747 1128 710 q 888 783 997 783 q 681 743 774 783 q 531 635 588 703 q 475 486 475 568 q 521 360 475 414 q 650 276 567 306 q 844 246 733 246 q 1056 276 958 246 q 1224 361 1153 307 q 1336 489 1296 415 q 1376 650 1376 563 q 1307 838 1376 758 q 1112 963 1238 918 q 819 1007 986 1007 q 513 967 658 1007 q 249 853 368 926 q 41 679 129 779 q -95 458 -47 579 q -143 201 -143 336 q -85 -69 -143 54 q 79 -281 -26 -192 q 331 -419 185 -371 q 651 -468 476 -468 q 896 -442 778 -468 q 1117 -369 1014 -417 q 1298 -255 1219 -321 q 1424 -108 1376 -189 l 1432 -114 q 1305 -261 1385 -194 q 1122 -376 1225 -328 q 899 -451 1018 -425 q 651 -476 779 -476 q 328 -427 475 -476 q 73 -287 181 -378 q -93 -72 -35 -196 q -151 201 -151 51 q -103 460 -151 338 q 34 685 -54 583 q 243 860 122 786 q 510 975 364 935 q 819 1015 657 1015 q 1117 970 990 1015 q 1315 843 1244 925 q 1385 650 1385 761 q 1344 486 1385 561 q 1231 356 1304 411 q 1060 269 1158 300 q 844 238 961 238 q 645 269 731 238 q 513 356 560 300 q 467 486 467 411 q 524 641 467 572 q 676 751 581 710 q 888 792 771 792 m 658 -139 q 672 -149 672 -139 q 652 -185 672 -164 q 606 -224 632 -207 q 561 -240 581 -240 q 550 -231 550 -240 q 570 -194 550 -215 q 616 -156 590 -172 q 658 -139 642 -139 z "},"Ḏ":{"ha":1454,"x_min":-151,"x_max":1669,"o":"m 888 792 q 1072 752 1006 792 q 1138 649 1138 713 q 1093 553 1138 603 q 961 469 1049 503 q 743 435 874 435 q 474 488 586 435 q 301 627 361 540 q 242 819 242 714 q 285 990 242 907 q 412 1140 328 1074 q 616 1246 496 1207 q 890 1285 736 1285 q 1159 1243 1036 1285 q 1373 1126 1282 1201 q 1515 949 1464 1051 q 1565 728 1565 847 q 1507 442 1565 578 q 1342 199 1449 306 q 1090 33 1235 93 q 775 -28 946 -28 q 616 -10 683 -28 q 494 32 549 8 q 392 74 440 56 q 288 92 344 92 q 222 78 244 92 q 199 42 199 65 q 343 -22 199 -22 q 579 29 456 -22 q 814 176 703 81 q 970 325 893 246 q 1122 486 1047 404 q 1269 645 1197 568 q 1408 788 1340 722 q 1507 876 1460 840 q 1599 936 1554 913 l 1669 936 q 1546 881 1614 922 q 1417 779 1478 839 q 1286 622 1349 710 q 1163 439 1224 533 q 1034 256 1101 344 q 885 98 967 168 q 704 -15 804 28 q 476 -57 604 -57 q 298 -44 360 -57 q 213 -8 236 -31 q 190 39 190 14 q 210 83 190 64 q 282 101 229 101 q 389 83 336 101 q 499 41 442 65 q 624 -1 556 17 q 775 -19 692 -19 q 1080 38 938 -19 q 1329 199 1222 96 q 1497 437 1436 301 q 1557 728 1557 572 q 1507 946 1557 846 q 1367 1120 1457 1046 q 1155 1235 1278 1194 q 888 1276 1032 1276 q 635 1242 751 1276 q 433 1144 519 1207 q 298 999 346 1082 q 250 819 250 917 q 313 625 250 710 q 488 492 376 540 q 744 443 600 443 q 937 471 850 443 q 1076 546 1024 499 q 1128 649 1128 593 q 1063 747 1128 710 q 888 783 997 783 q 681 743 774 783 q 531 635 588 703 q 475 486 475 568 q 521 360 475 414 q 650 276 567 306 q 844 246 733 246 q 1056 276 958 246 q 1224 361 1153 307 q 1336 489 1296 415 q 1376 650 1376 563 q 1307 838 1376 758 q 1112 963 1238 918 q 819 1007 986 1007 q 513 967 658 1007 q 249 853 368 926 q 41 679 129 779 q -95 458 -47 579 q -143 201 -143 336 q -85 -69 -143 54 q 79 -281 -26 -192 q 331 -419 185 -371 q 651 -468 476 -468 q 896 -442 778 -468 q 1117 -369 1014 -417 q 1298 -255 1219 -321 q 1424 -108 1376 -189 l 1432 -114 q 1305 -261 1385 -194 q 1122 -376 1225 -328 q 899 -451 1018 -425 q 651 -476 779 -476 q 328 -427 475 -476 q 73 -287 181 -378 q -93 -72 -35 -196 q -151 201 -151 51 q -103 460 -151 338 q 34 685 -54 583 q 243 860 122 786 q 510 975 364 935 q 819 1015 657 1015 q 1117 970 990 1015 q 1315 843 1244 925 q 1385 650 1385 761 q 1344 486 1385 561 q 1231 356 1304 411 q 1060 269 1158 300 q 844 238 961 238 q 645 269 731 238 q 513 356 560 300 q 467 486 467 411 q 524 641 467 572 q 676 751 581 710 q 888 792 771 792 m 572 -208 l 621 -168 l 883 -168 l 835 -208 l 572 -208 z "},"ǅ":{"ha":1808,"x_min":-151,"x_max":2032,"o":"m 888 792 q 1072 752 1006 792 q 1138 649 1138 713 q 1093 553 1138 603 q 961 469 1049 503 q 743 435 874 435 q 474 488 586 435 q 301 627 361 540 q 242 819 242 714 q 285 990 242 907 q 412 1140 328 1074 q 616 1246 496 1207 q 890 1285 736 1285 q 1159 1243 1036 1285 q 1373 1126 1282 1201 q 1515 949 1464 1051 q 1565 728 1565 847 q 1507 442 1565 578 q 1342 199 1449 306 q 1090 33 1235 93 q 775 -28 946 -28 q 616 -10 683 -28 q 494 32 549 8 q 392 74 440 56 q 288 92 344 92 q 222 78 244 92 q 199 42 199 65 q 343 -22 199 -22 q 579 29 456 -22 q 814 176 703 81 q 970 325 893 246 q 1122 486 1047 404 q 1269 645 1197 568 q 1408 788 1340 722 q 1507 876 1460 840 q 1599 936 1554 913 l 1669 936 q 1546 881 1614 922 q 1417 779 1478 839 q 1286 622 1349 710 q 1163 439 1224 533 q 1034 256 1101 344 q 885 98 967 168 q 704 -15 804 28 q 476 -57 604 -57 q 298 -44 360 -57 q 213 -8 236 -31 q 190 39 190 14 q 210 83 190 64 q 282 101 229 101 q 389 83 336 101 q 499 41 442 65 q 624 -1 556 17 q 775 -19 692 -19 q 1080 38 938 -19 q 1329 199 1222 96 q 1497 437 1436 301 q 1557 728 1557 572 q 1507 946 1557 846 q 1367 1120 1457 1046 q 1155 1235 1278 1194 q 888 1276 1032 1276 q 635 1242 751 1276 q 433 1144 519 1207 q 298 999 346 1082 q 250 819 250 917 q 313 625 250 710 q 488 492 376 540 q 744 443 600 443 q 937 471 850 443 q 1076 546 1024 499 q 1128 649 1128 593 q 1063 747 1128 710 q 888 783 997 783 q 681 743 774 783 q 531 635 588 703 q 475 486 475 568 q 521 360 475 414 q 650 276 567 306 q 844 246 733 246 q 1056 276 958 246 q 1224 361 1153 307 q 1336 489 1296 415 q 1376 650 1376 563 q 1307 838 1376 758 q 1112 963 1238 918 q 819 1007 986 1007 q 513 967 658 1007 q 249 853 368 926 q 41 679 129 779 q -95 458 -47 579 q -143 201 -143 336 q -85 -69 -143 54 q 79 -281 -26 -192 q 331 -419 185 -371 q 651 -468 476 -468 q 896 -442 778 -468 q 1117 -369 1014 -417 q 1298 -255 1219 -321 q 1424 -108 1376 -189 l 1432 -114 q 1305 -261 1385 -194 q 1122 -376 1225 -328 q 899 -451 1018 -425 q 651 -476 779 -476 q 328 -427 475 -476 q 73 -287 181 -378 q -93 -72 -35 -196 q -151 201 -151 51 q -103 460 -151 338 q 34 685 -54 583 q 243 860 122 786 q 510 975 364 935 q 819 1015 657 1015 q 1117 970 990 1015 q 1315 843 1244 925 q 1385 650 1385 761 q 1344 486 1385 561 q 1231 356 1304 411 q 1060 269 1158 300 q 844 238 961 238 q 645 269 731 238 q 513 356 560 300 q 467 486 467 411 q 524 641 467 572 q 676 751 581 710 q 888 792 771 792 z "},"E":{"ha":1276,"x_min":-222,"x_max":1489,"o":"m 569 -224 q 731 -194 644 -224 q 910 -112 818 -165 q 1090 12 1001 -60 q 1256 168 1179 83 l 1276 192 l 1288 192 l 1267 168 q 1098 6 1188 79 q 915 -122 1008 -68 q 733 -204 822 -175 q 569 -233 644 -233 q 376 -193 458 -233 q 247 -80 293 -153 q 201 92 201 -7 q 251 290 201 194 q 388 460 301 385 q 585 579 475 536 q 813 622 694 622 q 907 610 874 622 q 940 576 940 599 q 925 552 940 563 q 886 542 910 542 q 795 588 831 542 q 760 706 760 633 q 801 856 760 783 q 914 986 843 929 q 1074 1076 985 1043 q 1260 1110 1163 1110 q 1489 901 1489 1110 q 1460 751 1489 832 q 1383 591 1432 671 q 1272 438 1335 511 q 1142 308 1210 365 q 1006 218 1074 251 q 878 185 938 185 q 785 225 819 185 q 750 333 750 265 q 782 465 750 393 q 866 610 814 538 q 981 742 918 682 q 1106 838 1043 801 q 1221 874 1169 874 q 1278 808 1278 874 q 1231 667 1278 742 q 1105 519 1185 593 q 922 379 1025 446 q 704 261 819 313 q 474 180 589 210 q 254 150 358 150 q 10 193 118 150 q -160 310 -99 236 q -222 481 -222 385 q -176 633 -222 564 q -47 755 -131 703 q 149 835 38 807 q 396 864 261 864 q 591 848 489 864 q 793 803 693 832 q 981 738 893 775 q 1135 656 1068 700 q 1240 564 1203 611 l 1233 558 q 1138 643 1201 600 q 989 724 1074 686 q 806 791 904 761 q 603 838 707 821 q 397 856 499 856 q 153 828 264 856 q -40 749 42 800 q -167 628 -122 697 q -212 478 -212 560 q -151 315 -212 388 q 15 201 -90 243 q 254 160 121 160 q 472 189 357 160 q 701 269 588 218 q 916 385 814 319 q 1097 523 1018 450 q 1222 669 1176 596 q 1268 808 1268 742 q 1221 865 1268 865 q 1108 829 1169 865 q 985 734 1047 793 q 872 604 924 675 q 790 462 821 533 q 758 332 758 390 q 792 231 758 269 q 876 193 825 193 q 1003 226 936 193 q 1138 315 1069 258 q 1267 444 1206 372 q 1377 595 1329 515 q 1453 753 1425 675 q 1481 901 1481 832 q 1430 1051 1481 1000 q 1281 1101 1379 1101 q 1107 1063 1193 1101 q 951 963 1021 1025 q 838 824 881 900 q 794 671 794 749 q 888 550 794 550 q 919 558 907 550 q 932 575 932 565 q 902 603 932 592 q 826 614 872 614 q 671 581 747 614 q 526 492 594 549 q 407 360 458 435 q 326 199 356 285 q 296 26 296 114 q 569 -224 296 -224 z "},"É":{"ha":1276,"x_min":-222,"x_max":1489,"o":"m 569 -224 q 731 -194 644 -224 q 910 -112 818 -165 q 1090 12 1001 -60 q 1256 168 1179 83 l 1276 192 l 1288 192 l 1267 168 q 1098 6 1188 79 q 915 -122 1008 -68 q 733 -204 822 -175 q 569 -233 644 -233 q 376 -193 458 -233 q 247 -80 293 -153 q 201 92 201 -7 q 251 290 201 194 q 388 460 301 385 q 585 579 475 536 q 813 622 694 622 q 907 610 874 622 q 940 576 940 599 q 925 552 940 563 q 886 542 910 542 q 795 588 831 542 q 760 706 760 633 q 801 856 760 783 q 914 986 843 929 q 1074 1076 985 1043 q 1260 1110 1163 1110 q 1489 901 1489 1110 q 1460 751 1489 832 q 1383 591 1432 671 q 1272 438 1335 511 q 1142 308 1210 365 q 1006 218 1074 251 q 878 185 938 185 q 785 225 819 185 q 750 333 750 265 q 782 465 750 393 q 866 610 814 538 q 981 742 918 682 q 1106 838 1043 801 q 1221 874 1169 874 q 1278 808 1278 874 q 1231 667 1278 742 q 1105 519 1185 593 q 922 379 1025 446 q 704 261 819 313 q 474 180 589 210 q 254 150 358 150 q 10 193 118 150 q -160 310 -99 236 q -222 481 -222 385 q -176 633 -222 564 q -47 755 -131 703 q 149 835 38 807 q 396 864 261 864 q 591 848 489 864 q 793 803 693 832 q 981 738 893 775 q 1135 656 1068 700 q 1240 564 1203 611 l 1233 558 q 1138 643 1201 600 q 989 724 1074 686 q 806 791 904 761 q 603 838 707 821 q 397 856 499 856 q 153 828 264 856 q -40 749 42 800 q -167 628 -122 697 q -212 478 -212 560 q -151 315 -212 388 q 15 201 -90 243 q 254 160 121 160 q 472 189 357 160 q 701 269 588 218 q 916 385 814 319 q 1097 523 1018 450 q 1222 669 1176 596 q 1268 808 1268 742 q 1221 865 1268 865 q 1108 829 1169 865 q 985 734 1047 793 q 872 604 924 675 q 790 462 821 533 q 758 332 758 390 q 792 231 758 269 q 876 193 825 193 q 1003 226 936 193 q 1138 315 1069 258 q 1267 444 1206 372 q 1377 595 1329 515 q 1453 753 1425 675 q 1481 901 1481 832 q 1430 1051 1481 1000 q 1281 1101 1379 1101 q 1107 1063 1193 1101 q 951 963 1021 1025 q 838 824 881 900 q 794 671 794 749 q 888 550 794 550 q 919 558 907 550 q 932 575 932 565 q 902 603 932 592 q 826 614 872 614 q 671 581 747 614 q 526 492 594 549 q 407 360 458 435 q 326 199 356 285 q 296 26 296 114 q 569 -224 296 -224 m 1257 1240 l 1254 1246 l 1417 1354 q 1447 1364 1432 1364 q 1469 1344 1469 1364 q 1449 1319 1469 1328 l 1257 1240 z "},"Ĕ":{"ha":1276,"x_min":-222,"x_max":1500,"o":"m 569 -224 q 731 -194 644 -224 q 910 -112 818 -165 q 1090 12 1001 -60 q 1256 168 1179 83 l 1276 192 l 1288 192 l 1267 168 q 1098 6 1188 79 q 915 -122 1008 -68 q 733 -204 822 -175 q 569 -233 644 -233 q 376 -193 458 -233 q 247 -80 293 -153 q 201 92 201 -7 q 251 290 201 194 q 388 460 301 385 q 585 579 475 536 q 813 622 694 622 q 907 610 874 622 q 940 576 940 599 q 925 552 940 563 q 886 542 910 542 q 795 588 831 542 q 760 706 760 633 q 801 856 760 783 q 914 986 843 929 q 1074 1076 985 1043 q 1260 1110 1163 1110 q 1489 901 1489 1110 q 1460 751 1489 832 q 1383 591 1432 671 q 1272 438 1335 511 q 1142 308 1210 365 q 1006 218 1074 251 q 878 185 938 185 q 785 225 819 185 q 750 333 750 265 q 782 465 750 393 q 866 610 814 538 q 981 742 918 682 q 1106 838 1043 801 q 1221 874 1169 874 q 1278 808 1278 874 q 1231 667 1278 742 q 1105 519 1185 593 q 922 379 1025 446 q 704 261 819 313 q 474 180 589 210 q 254 150 358 150 q 10 193 118 150 q -160 310 -99 236 q -222 481 -222 385 q -176 633 -222 564 q -47 755 -131 703 q 149 835 38 807 q 396 864 261 864 q 591 848 489 864 q 793 803 693 832 q 981 738 893 775 q 1135 656 1068 700 q 1240 564 1203 611 l 1233 558 q 1138 643 1201 600 q 989 724 1074 686 q 806 791 904 761 q 603 838 707 821 q 397 856 499 856 q 153 828 264 856 q -40 749 42 800 q -167 628 -122 697 q -212 478 -212 560 q -151 315 -212 388 q 15 201 -90 243 q 254 160 121 160 q 472 189 357 160 q 701 269 588 218 q 916 385 814 319 q 1097 523 1018 450 q 1222 669 1176 596 q 1268 808 1268 742 q 1221 865 1268 865 q 1108 829 1169 865 q 985 734 1047 793 q 872 604 924 675 q 790 462 821 533 q 758 332 758 390 q 792 231 758 269 q 876 193 825 193 q 1003 226 936 193 q 1138 315 1069 258 q 1267 444 1206 372 q 1377 595 1329 515 q 1453 753 1425 675 q 1481 901 1481 832 q 1430 1051 1481 1000 q 1281 1101 1379 1101 q 1107 1063 1193 1101 q 951 963 1021 1025 q 838 824 881 900 q 794 671 794 749 q 888 550 794 550 q 919 558 907 550 q 932 575 932 565 q 902 603 932 592 q 826 614 872 614 q 671 581 747 614 q 526 492 594 549 q 407 360 458 435 q 326 199 356 285 q 296 26 296 114 q 569 -224 296 -224 m 1451 1356 l 1500 1356 q 1456 1309 1485 1329 q 1395 1277 1426 1289 q 1336 1265 1364 1265 q 1284 1278 1301 1265 q 1267 1310 1267 1290 q 1271 1333 1267 1321 q 1282 1356 1275 1344 l 1324 1356 q 1315 1333 1318 1344 q 1311 1310 1311 1321 q 1342 1275 1311 1275 q 1401 1299 1369 1275 q 1451 1356 1433 1322 z "},"Ě":{"ha":1276,"x_min":-222,"x_max":1550,"o":"m 569 -224 q 731 -194 644 -224 q 910 -112 818 -165 q 1090 12 1001 -60 q 1256 168 1179 83 l 1276 192 l 1288 192 l 1267 168 q 1098 6 1188 79 q 915 -122 1008 -68 q 733 -204 822 -175 q 569 -233 644 -233 q 376 -193 458 -233 q 247 -80 293 -153 q 201 92 201 -7 q 251 290 201 194 q 388 460 301 385 q 585 579 475 536 q 813 622 694 622 q 907 610 874 622 q 940 576 940 599 q 925 552 940 563 q 886 542 910 542 q 795 588 831 542 q 760 706 760 633 q 801 856 760 783 q 914 986 843 929 q 1074 1076 985 1043 q 1260 1110 1163 1110 q 1489 901 1489 1110 q 1460 751 1489 832 q 1383 591 1432 671 q 1272 438 1335 511 q 1142 308 1210 365 q 1006 218 1074 251 q 878 185 938 185 q 785 225 819 185 q 750 333 750 265 q 782 465 750 393 q 866 610 814 538 q 981 742 918 682 q 1106 838 1043 801 q 1221 874 1169 874 q 1278 808 1278 874 q 1231 667 1278 742 q 1105 519 1185 593 q 922 379 1025 446 q 704 261 819 313 q 474 180 589 210 q 254 150 358 150 q 10 193 118 150 q -160 310 -99 236 q -222 481 -222 385 q -176 633 -222 564 q -47 755 -131 703 q 149 835 38 807 q 396 864 261 864 q 591 848 489 864 q 793 803 693 832 q 981 738 893 775 q 1135 656 1068 700 q 1240 564 1203 611 l 1233 558 q 1138 643 1201 600 q 989 724 1074 686 q 806 791 904 761 q 603 838 707 821 q 397 856 499 856 q 153 828 264 856 q -40 749 42 800 q -167 628 -122 697 q -212 478 -212 560 q -151 315 -212 388 q 15 201 -90 243 q 254 160 121 160 q 472 189 357 160 q 701 269 588 218 q 916 385 814 319 q 1097 523 1018 450 q 1222 669 1176 596 q 1268 808 1268 742 q 1221 865 1268 865 q 1108 829 1169 865 q 985 734 1047 793 q 872 604 924 675 q 790 462 821 533 q 758 332 758 390 q 792 231 758 269 q 876 193 825 193 q 1003 226 936 193 q 1138 315 1069 258 q 1267 444 1206 372 q 1377 595 1329 515 q 1453 753 1425 675 q 1481 901 1481 832 q 1430 1051 1481 1000 q 1281 1101 1379 1101 q 1107 1063 1193 1101 q 951 963 1021 1025 q 838 824 881 900 q 794 671 794 749 q 888 550 794 550 q 919 558 907 550 q 932 575 932 565 q 902 603 932 592 q 826 614 872 614 q 671 581 747 614 q 526 492 594 549 q 407 360 458 435 q 326 199 356 285 q 296 26 296 114 q 569 -224 296 -224 m 1549 1368 l 1550 1363 q 1494 1338 1532 1356 q 1413 1298 1456 1319 q 1337 1259 1371 1276 q 1292 1235 1303 1242 q 1281 1249 1281 1235 q 1293 1297 1288 1269 q 1299 1349 1299 1324 q 1299 1360 1299 1354 q 1297 1371 1299 1365 q 1303 1374 1297 1374 q 1308 1369 1306 1374 q 1325 1330 1318 1349 q 1338 1288 1332 1311 l 1549 1368 z "},"Ḝ":{"ha":1276,"x_min":-222,"x_max":1500,"o":"m 569 -224 q 731 -194 644 -224 q 910 -112 818 -165 q 1090 12 1001 -60 q 1256 168 1179 83 l 1276 192 l 1288 192 l 1267 168 q 1098 6 1188 79 q 915 -122 1008 -68 q 733 -204 822 -175 q 569 -233 644 -233 q 376 -193 458 -233 q 247 -80 293 -153 q 201 92 201 -7 q 251 290 201 194 q 388 460 301 385 q 585 579 475 536 q 813 622 694 622 q 907 610 874 622 q 940 576 940 599 q 925 552 940 563 q 886 542 910 542 q 795 588 831 542 q 760 706 760 633 q 801 856 760 783 q 914 986 843 929 q 1074 1076 985 1043 q 1260 1110 1163 1110 q 1489 901 1489 1110 q 1460 751 1489 832 q 1383 591 1432 671 q 1272 438 1335 511 q 1142 308 1210 365 q 1006 218 1074 251 q 878 185 938 185 q 785 225 819 185 q 750 333 750 265 q 782 465 750 393 q 866 610 814 538 q 981 742 918 682 q 1106 838 1043 801 q 1221 874 1169 874 q 1278 808 1278 874 q 1231 667 1278 742 q 1105 519 1185 593 q 922 379 1025 446 q 704 261 819 313 q 474 180 589 210 q 254 150 358 150 q 10 193 118 150 q -160 310 -99 236 q -222 481 -222 385 q -176 633 -222 564 q -47 755 -131 703 q 149 835 38 807 q 396 864 261 864 q 591 848 489 864 q 793 803 693 832 q 981 738 893 775 q 1135 656 1068 700 q 1240 564 1203 611 l 1233 558 q 1138 643 1201 600 q 989 724 1074 686 q 806 791 904 761 q 603 838 707 821 q 397 856 499 856 q 153 828 264 856 q -40 749 42 800 q -167 628 -122 697 q -212 478 -212 560 q -151 315 -212 388 q 15 201 -90 243 q 254 160 121 160 q 472 189 357 160 q 701 269 588 218 q 916 385 814 319 q 1097 523 1018 450 q 1222 669 1176 596 q 1268 808 1268 742 q 1221 865 1268 865 q 1108 829 1169 865 q 985 734 1047 793 q 872 604 924 675 q 790 462 821 533 q 758 332 758 390 q 792 231 758 269 q 876 193 825 193 q 1003 226 936 193 q 1138 315 1069 258 q 1267 444 1206 372 q 1377 595 1329 515 q 1453 753 1425 675 q 1481 901 1481 832 q 1430 1051 1481 1000 q 1281 1101 1379 1101 q 1107 1063 1193 1101 q 951 963 1021 1025 q 838 824 881 900 q 794 671 794 749 q 888 550 794 550 q 919 558 907 550 q 932 575 932 565 q 902 603 932 592 q 826 614 872 614 q 671 581 747 614 q 526 492 594 549 q 407 360 458 435 q 326 199 356 285 q 296 26 296 114 q 569 -224 296 -224 m 563 -233 l 568 -233 q 558 -260 558 -244 q 572 -292 558 -279 q 585 -325 585 -304 q 558 -373 585 -347 q 476 -399 531 -399 q 446 -392 461 -399 q 422 -372 431 -386 l 428 -368 q 443 -382 435 -376 q 468 -387 451 -387 q 517 -372 497 -387 q 543 -329 536 -356 q 547 -300 547 -317 q 546 -274 546 -283 q 550 -251 546 -260 q 563 -233 554 -242 m 1451 1356 l 1500 1356 q 1456 1309 1485 1329 q 1395 1277 1426 1289 q 1336 1265 1364 1265 q 1284 1278 1301 1265 q 1267 1310 1267 1290 q 1271 1333 1267 1321 q 1282 1356 1275 1344 l 1324 1356 q 1315 1333 1318 1344 q 1311 1310 1311 1321 q 1342 1275 1311 1275 q 1401 1299 1369 1275 q 1451 1356 1433 1322 z "},"Ê":{"ha":1276,"x_min":-222,"x_max":1490,"o":"m 569 -224 q 731 -194 644 -224 q 910 -112 818 -165 q 1090 12 1001 -60 q 1256 168 1179 83 l 1276 192 l 1288 192 l 1267 168 q 1098 6 1188 79 q 915 -122 1008 -68 q 733 -204 822 -175 q 569 -233 644 -233 q 376 -193 458 -233 q 247 -80 293 -153 q 201 92 201 -7 q 251 290 201 194 q 388 460 301 385 q 585 579 475 536 q 813 622 694 622 q 907 610 874 622 q 940 576 940 599 q 925 552 940 563 q 886 542 910 542 q 795 588 831 542 q 760 706 760 633 q 801 856 760 783 q 914 986 843 929 q 1074 1076 985 1043 q 1260 1110 1163 1110 q 1489 901 1489 1110 q 1460 751 1489 832 q 1383 591 1432 671 q 1272 438 1335 511 q 1142 308 1210 365 q 1006 218 1074 251 q 878 185 938 185 q 785 225 819 185 q 750 333 750 265 q 782 465 750 393 q 866 610 814 538 q 981 742 918 682 q 1106 838 1043 801 q 1221 874 1169 874 q 1278 808 1278 874 q 1231 667 1278 742 q 1105 519 1185 593 q 922 379 1025 446 q 704 261 819 313 q 474 180 589 210 q 254 150 358 150 q 10 193 118 150 q -160 310 -99 236 q -222 481 -222 385 q -176 633 -222 564 q -47 755 -131 703 q 149 835 38 807 q 396 864 261 864 q 591 848 489 864 q 793 803 693 832 q 981 738 893 775 q 1135 656 1068 700 q 1240 564 1203 611 l 1233 558 q 1138 643 1201 600 q 989 724 1074 686 q 806 791 904 761 q 603 838 707 821 q 397 856 499 856 q 153 828 264 856 q -40 749 42 800 q -167 628 -122 697 q -212 478 -212 560 q -151 315 -212 388 q 15 201 -90 243 q 254 160 121 160 q 472 189 357 160 q 701 269 588 218 q 916 385 814 319 q 1097 523 1018 450 q 1222 669 1176 596 q 1268 808 1268 742 q 1221 865 1268 865 q 1108 829 1169 865 q 985 734 1047 793 q 872 604 924 675 q 790 462 821 533 q 758 332 758 390 q 792 231 758 269 q 876 193 825 193 q 1003 226 936 193 q 1138 315 1069 258 q 1267 444 1206 372 q 1377 595 1329 515 q 1453 753 1425 675 q 1481 901 1481 832 q 1430 1051 1481 1000 q 1281 1101 1379 1101 q 1107 1063 1193 1101 q 951 963 1021 1025 q 838 824 881 900 q 794 671 794 749 q 888 550 794 550 q 919 558 907 550 q 932 575 932 565 q 902 603 932 592 q 826 614 872 614 q 671 581 747 614 q 526 492 594 549 q 407 360 458 435 q 326 199 356 285 q 296 26 296 114 q 569 -224 296 -224 m 1222 1240 l 1221 1246 q 1277 1271 1239 1253 q 1358 1310 1315 1289 q 1434 1349 1400 1332 q 1479 1374 1468 1367 q 1490 1360 1490 1374 q 1478 1313 1485 1340 q 1472 1260 1472 1285 q 1472 1249 1472 1254 q 1474 1238 1472 1244 q 1468 1235 1474 1235 q 1463 1239 1465 1235 q 1445 1278 1453 1260 q 1433 1321 1438 1297 l 1222 1240 z "},"Ế":{"ha":1276,"x_min":-222,"x_max":1608,"o":"m 569 -224 q 731 -194 644 -224 q 910 -112 818 -165 q 1090 12 1001 -60 q 1256 168 1179 83 l 1276 192 l 1288 192 l 1267 168 q 1098 6 1188 79 q 915 -122 1008 -68 q 733 -204 822 -175 q 569 -233 644 -233 q 376 -193 458 -233 q 247 -80 293 -153 q 201 92 201 -7 q 251 290 201 194 q 388 460 301 385 q 585 579 475 536 q 813 622 694 622 q 907 610 874 622 q 940 576 940 599 q 925 552 940 563 q 886 542 910 542 q 795 588 831 542 q 760 706 760 633 q 801 856 760 783 q 914 986 843 929 q 1074 1076 985 1043 q 1260 1110 1163 1110 q 1489 901 1489 1110 q 1460 751 1489 832 q 1383 591 1432 671 q 1272 438 1335 511 q 1142 308 1210 365 q 1006 218 1074 251 q 878 185 938 185 q 785 225 819 185 q 750 333 750 265 q 782 465 750 393 q 866 610 814 538 q 981 742 918 682 q 1106 838 1043 801 q 1221 874 1169 874 q 1278 808 1278 874 q 1231 667 1278 742 q 1105 519 1185 593 q 922 379 1025 446 q 704 261 819 313 q 474 180 589 210 q 254 150 358 150 q 10 193 118 150 q -160 310 -99 236 q -222 481 -222 385 q -176 633 -222 564 q -47 755 -131 703 q 149 835 38 807 q 396 864 261 864 q 591 848 489 864 q 793 803 693 832 q 981 738 893 775 q 1135 656 1068 700 q 1240 564 1203 611 l 1233 558 q 1138 643 1201 600 q 989 724 1074 686 q 806 791 904 761 q 603 838 707 821 q 397 856 499 856 q 153 828 264 856 q -40 749 42 800 q -167 628 -122 697 q -212 478 -212 560 q -151 315 -212 388 q 15 201 -90 243 q 254 160 121 160 q 472 189 357 160 q 701 269 588 218 q 916 385 814 319 q 1097 523 1018 450 q 1222 669 1176 596 q 1268 808 1268 742 q 1221 865 1268 865 q 1108 829 1169 865 q 985 734 1047 793 q 872 604 924 675 q 790 462 821 533 q 758 332 758 390 q 792 231 758 269 q 876 193 825 193 q 1003 226 936 193 q 1138 315 1069 258 q 1267 444 1206 372 q 1377 595 1329 515 q 1453 753 1425 675 q 1481 901 1481 832 q 1430 1051 1481 1000 q 1281 1101 1379 1101 q 1107 1063 1193 1101 q 951 963 1021 1025 q 838 824 881 900 q 794 671 794 749 q 888 550 794 550 q 919 558 907 550 q 932 575 932 565 q 902 603 932 592 q 826 614 872 614 q 671 581 747 614 q 526 492 594 549 q 407 360 458 435 q 326 199 356 285 q 296 26 296 114 q 569 -224 296 -224 m 1222 1240 l 1221 1246 q 1277 1271 1239 1253 q 1358 1310 1315 1289 q 1434 1349 1400 1332 q 1479 1374 1468 1367 q 1490 1360 1490 1374 q 1478 1313 1485 1340 q 1472 1260 1472 1285 q 1472 1249 1472 1254 q 1474 1238 1472 1244 q 1468 1235 1474 1235 q 1463 1239 1465 1235 q 1445 1278 1453 1260 q 1433 1321 1438 1297 l 1222 1240 m 1394 1410 l 1392 1415 l 1554 1524 q 1585 1533 1569 1533 q 1607 1514 1607 1533 q 1586 1489 1607 1497 l 1394 1410 z "},"Ệ":{"ha":1276,"x_min":-222,"x_max":1490,"o":"m 569 -224 q 731 -194 644 -224 q 910 -112 818 -165 q 1090 12 1001 -60 q 1256 168 1179 83 l 1276 192 l 1288 192 l 1267 168 q 1098 6 1188 79 q 915 -122 1008 -68 q 733 -204 822 -175 q 569 -233 644 -233 q 376 -193 458 -233 q 247 -80 293 -153 q 201 92 201 -7 q 251 290 201 194 q 388 460 301 385 q 585 579 475 536 q 813 622 694 622 q 907 610 874 622 q 940 576 940 599 q 925 552 940 563 q 886 542 910 542 q 795 588 831 542 q 760 706 760 633 q 801 856 760 783 q 914 986 843 929 q 1074 1076 985 1043 q 1260 1110 1163 1110 q 1489 901 1489 1110 q 1460 751 1489 832 q 1383 591 1432 671 q 1272 438 1335 511 q 1142 308 1210 365 q 1006 218 1074 251 q 878 185 938 185 q 785 225 819 185 q 750 333 750 265 q 782 465 750 393 q 866 610 814 538 q 981 742 918 682 q 1106 838 1043 801 q 1221 874 1169 874 q 1278 808 1278 874 q 1231 667 1278 742 q 1105 519 1185 593 q 922 379 1025 446 q 704 261 819 313 q 474 180 589 210 q 254 150 358 150 q 10 193 118 150 q -160 310 -99 236 q -222 481 -222 385 q -176 633 -222 564 q -47 755 -131 703 q 149 835 38 807 q 396 864 261 864 q 591 848 489 864 q 793 803 693 832 q 981 738 893 775 q 1135 656 1068 700 q 1240 564 1203 611 l 1233 558 q 1138 643 1201 600 q 989 724 1074 686 q 806 791 904 761 q 603 838 707 821 q 397 856 499 856 q 153 828 264 856 q -40 749 42 800 q -167 628 -122 697 q -212 478 -212 560 q -151 315 -212 388 q 15 201 -90 243 q 254 160 121 160 q 472 189 357 160 q 701 269 588 218 q 916 385 814 319 q 1097 523 1018 450 q 1222 669 1176 596 q 1268 808 1268 742 q 1221 865 1268 865 q 1108 829 1169 865 q 985 734 1047 793 q 872 604 924 675 q 790 462 821 533 q 758 332 758 390 q 792 231 758 269 q 876 193 825 193 q 1003 226 936 193 q 1138 315 1069 258 q 1267 444 1206 372 q 1377 595 1329 515 q 1453 753 1425 675 q 1481 901 1481 832 q 1430 1051 1481 1000 q 1281 1101 1379 1101 q 1107 1063 1193 1101 q 951 963 1021 1025 q 838 824 881 900 q 794 671 794 749 q 888 550 794 550 q 919 558 907 550 q 932 575 932 565 q 902 603 932 592 q 826 614 872 614 q 671 581 747 614 q 526 492 594 549 q 407 360 458 435 q 326 199 356 285 q 296 26 296 114 q 569 -224 296 -224 m 500 -372 q 514 -382 514 -372 q 494 -419 514 -397 q 448 -457 474 -440 q 403 -474 422 -474 q 392 -464 392 -474 q 412 -427 392 -449 q 458 -389 432 -406 q 500 -372 483 -372 m 1222 1240 l 1221 1246 q 1277 1271 1239 1253 q 1358 1310 1315 1289 q 1434 1349 1400 1332 q 1479 1374 1468 1367 q 1490 1360 1490 1374 q 1478 1313 1485 1340 q 1472 1260 1472 1285 q 1472 1249 1472 1254 q 1474 1238 1472 1244 q 1468 1235 1474 1235 q 1463 1239 1465 1235 q 1445 1278 1453 1260 q 1433 1321 1438 1297 l 1222 1240 z "},"Ề":{"ha":1276,"x_min":-222,"x_max":1663,"o":"m 569 -224 q 731 -194 644 -224 q 910 -112 818 -165 q 1090 12 1001 -60 q 1256 168 1179 83 l 1276 192 l 1288 192 l 1267 168 q 1098 6 1188 79 q 915 -122 1008 -68 q 733 -204 822 -175 q 569 -233 644 -233 q 376 -193 458 -233 q 247 -80 293 -153 q 201 92 201 -7 q 251 290 201 194 q 388 460 301 385 q 585 579 475 536 q 813 622 694 622 q 907 610 874 622 q 940 576 940 599 q 925 552 940 563 q 886 542 910 542 q 795 588 831 542 q 760 706 760 633 q 801 856 760 783 q 914 986 843 929 q 1074 1076 985 1043 q 1260 1110 1163 1110 q 1489 901 1489 1110 q 1460 751 1489 832 q 1383 591 1432 671 q 1272 438 1335 511 q 1142 308 1210 365 q 1006 218 1074 251 q 878 185 938 185 q 785 225 819 185 q 750 333 750 265 q 782 465 750 393 q 866 610 814 538 q 981 742 918 682 q 1106 838 1043 801 q 1221 874 1169 874 q 1278 808 1278 874 q 1231 667 1278 742 q 1105 519 1185 593 q 922 379 1025 446 q 704 261 819 313 q 474 180 589 210 q 254 150 358 150 q 10 193 118 150 q -160 310 -99 236 q -222 481 -222 385 q -176 633 -222 564 q -47 755 -131 703 q 149 835 38 807 q 396 864 261 864 q 591 848 489 864 q 793 803 693 832 q 981 738 893 775 q 1135 656 1068 700 q 1240 564 1203 611 l 1233 558 q 1138 643 1201 600 q 989 724 1074 686 q 806 791 904 761 q 603 838 707 821 q 397 856 499 856 q 153 828 264 856 q -40 749 42 800 q -167 628 -122 697 q -212 478 -212 560 q -151 315 -212 388 q 15 201 -90 243 q 254 160 121 160 q 472 189 357 160 q 701 269 588 218 q 916 385 814 319 q 1097 523 1018 450 q 1222 669 1176 596 q 1268 808 1268 742 q 1221 865 1268 865 q 1108 829 1169 865 q 985 734 1047 793 q 872 604 924 675 q 790 462 821 533 q 758 332 758 390 q 792 231 758 269 q 876 193 825 193 q 1003 226 936 193 q 1138 315 1069 258 q 1267 444 1206 372 q 1377 595 1329 515 q 1453 753 1425 675 q 1481 901 1481 832 q 1430 1051 1481 1000 q 1281 1101 1379 1101 q 1107 1063 1193 1101 q 951 963 1021 1025 q 838 824 881 900 q 794 671 794 749 q 888 550 794 550 q 919 558 907 550 q 932 575 932 565 q 902 603 932 592 q 826 614 872 614 q 671 581 747 614 q 526 492 594 549 q 407 360 458 435 q 326 199 356 285 q 296 26 296 114 q 569 -224 296 -224 m 1222 1240 l 1221 1246 q 1277 1271 1239 1253 q 1358 1310 1315 1289 q 1434 1349 1400 1332 q 1479 1374 1468 1367 q 1490 1360 1490 1374 q 1478 1313 1485 1340 q 1472 1260 1472 1285 q 1472 1249 1472 1254 q 1474 1238 1472 1244 q 1468 1235 1474 1235 q 1463 1239 1465 1235 q 1445 1278 1453 1260 q 1433 1321 1438 1297 l 1222 1240 m 1660 1410 l 1469 1489 q 1447 1514 1447 1497 q 1471 1533 1447 1533 q 1485 1531 1478 1533 q 1500 1524 1492 1529 l 1663 1415 l 1660 1410 z "},"Ể":{"ha":1276,"x_min":-222,"x_max":1572,"o":"m 569 -224 q 731 -194 644 -224 q 910 -112 818 -165 q 1090 12 1001 -60 q 1256 168 1179 83 l 1276 192 l 1288 192 l 1267 168 q 1098 6 1188 79 q 915 -122 1008 -68 q 733 -204 822 -175 q 569 -233 644 -233 q 376 -193 458 -233 q 247 -80 293 -153 q 201 92 201 -7 q 251 290 201 194 q 388 460 301 385 q 585 579 475 536 q 813 622 694 622 q 907 610 874 622 q 940 576 940 599 q 925 552 940 563 q 886 542 910 542 q 795 588 831 542 q 760 706 760 633 q 801 856 760 783 q 914 986 843 929 q 1074 1076 985 1043 q 1260 1110 1163 1110 q 1489 901 1489 1110 q 1460 751 1489 832 q 1383 591 1432 671 q 1272 438 1335 511 q 1142 308 1210 365 q 1006 218 1074 251 q 878 185 938 185 q 785 225 819 185 q 750 333 750 265 q 782 465 750 393 q 866 610 814 538 q 981 742 918 682 q 1106 838 1043 801 q 1221 874 1169 874 q 1278 808 1278 874 q 1231 667 1278 742 q 1105 519 1185 593 q 922 379 1025 446 q 704 261 819 313 q 474 180 589 210 q 254 150 358 150 q 10 193 118 150 q -160 310 -99 236 q -222 481 -222 385 q -176 633 -222 564 q -47 755 -131 703 q 149 835 38 807 q 396 864 261 864 q 591 848 489 864 q 793 803 693 832 q 981 738 893 775 q 1135 656 1068 700 q 1240 564 1203 611 l 1233 558 q 1138 643 1201 600 q 989 724 1074 686 q 806 791 904 761 q 603 838 707 821 q 397 856 499 856 q 153 828 264 856 q -40 749 42 800 q -167 628 -122 697 q -212 478 -212 560 q -151 315 -212 388 q 15 201 -90 243 q 254 160 121 160 q 472 189 357 160 q 701 269 588 218 q 916 385 814 319 q 1097 523 1018 450 q 1222 669 1176 596 q 1268 808 1268 742 q 1221 865 1268 865 q 1108 829 1169 865 q 985 734 1047 793 q 872 604 924 675 q 790 462 821 533 q 758 332 758 390 q 792 231 758 269 q 876 193 825 193 q 1003 226 936 193 q 1138 315 1069 258 q 1267 444 1206 372 q 1377 595 1329 515 q 1453 753 1425 675 q 1481 901 1481 832 q 1430 1051 1481 1000 q 1281 1101 1379 1101 q 1107 1063 1193 1101 q 951 963 1021 1025 q 838 824 881 900 q 794 671 794 749 q 888 550 794 550 q 919 558 907 550 q 932 575 932 565 q 902 603 932 592 q 826 614 872 614 q 671 581 747 614 q 526 492 594 549 q 407 360 458 435 q 326 199 356 285 q 296 26 296 114 q 569 -224 296 -224 m 1222 1240 l 1221 1246 q 1277 1271 1239 1253 q 1358 1310 1315 1289 q 1434 1349 1400 1332 q 1479 1374 1468 1367 q 1490 1360 1490 1374 q 1478 1313 1485 1340 q 1472 1260 1472 1285 q 1472 1249 1472 1254 q 1474 1238 1472 1244 q 1468 1235 1474 1235 q 1463 1239 1465 1235 q 1445 1278 1453 1260 q 1433 1321 1438 1297 l 1222 1240 m 1460 1486 l 1461 1496 q 1494 1511 1475 1506 q 1533 1517 1513 1517 q 1571 1490 1571 1517 q 1532 1422 1571 1460 q 1435 1361 1493 1383 l 1435 1365 q 1478 1397 1457 1376 q 1515 1442 1500 1418 q 1531 1481 1531 1465 q 1504 1501 1531 1501 q 1478 1497 1492 1501 q 1460 1486 1465 1492 z "},"Ễ":{"ha":1276,"x_min":-222,"x_max":1661,"o":"m 569 -224 q 731 -194 644 -224 q 910 -112 818 -165 q 1090 12 1001 -60 q 1256 168 1179 83 l 1276 192 l 1288 192 l 1267 168 q 1098 6 1188 79 q 915 -122 1008 -68 q 733 -204 822 -175 q 569 -233 644 -233 q 376 -193 458 -233 q 247 -80 293 -153 q 201 92 201 -7 q 251 290 201 194 q 388 460 301 385 q 585 579 475 536 q 813 622 694 622 q 907 610 874 622 q 940 576 940 599 q 925 552 940 563 q 886 542 910 542 q 795 588 831 542 q 760 706 760 633 q 801 856 760 783 q 914 986 843 929 q 1074 1076 985 1043 q 1260 1110 1163 1110 q 1489 901 1489 1110 q 1460 751 1489 832 q 1383 591 1432 671 q 1272 438 1335 511 q 1142 308 1210 365 q 1006 218 1074 251 q 878 185 938 185 q 785 225 819 185 q 750 333 750 265 q 782 465 750 393 q 866 610 814 538 q 981 742 918 682 q 1106 838 1043 801 q 1221 874 1169 874 q 1278 808 1278 874 q 1231 667 1278 742 q 1105 519 1185 593 q 922 379 1025 446 q 704 261 819 313 q 474 180 589 210 q 254 150 358 150 q 10 193 118 150 q -160 310 -99 236 q -222 481 -222 385 q -176 633 -222 564 q -47 755 -131 703 q 149 835 38 807 q 396 864 261 864 q 591 848 489 864 q 793 803 693 832 q 981 738 893 775 q 1135 656 1068 700 q 1240 564 1203 611 l 1233 558 q 1138 643 1201 600 q 989 724 1074 686 q 806 791 904 761 q 603 838 707 821 q 397 856 499 856 q 153 828 264 856 q -40 749 42 800 q -167 628 -122 697 q -212 478 -212 560 q -151 315 -212 388 q 15 201 -90 243 q 254 160 121 160 q 472 189 357 160 q 701 269 588 218 q 916 385 814 319 q 1097 523 1018 450 q 1222 669 1176 596 q 1268 808 1268 742 q 1221 865 1268 865 q 1108 829 1169 865 q 985 734 1047 793 q 872 604 924 675 q 790 462 821 533 q 758 332 758 390 q 792 231 758 269 q 876 193 825 193 q 1003 226 936 193 q 1138 315 1069 258 q 1267 444 1206 372 q 1377 595 1329 515 q 1453 753 1425 675 q 1481 901 1481 832 q 1430 1051 1481 1000 q 1281 1101 1379 1101 q 1107 1063 1193 1101 q 951 963 1021 1025 q 838 824 881 900 q 794 671 794 749 q 888 550 794 550 q 919 558 907 550 q 932 575 932 565 q 902 603 932 592 q 826 614 872 614 q 671 581 747 614 q 526 492 594 549 q 407 360 458 435 q 326 199 356 285 q 296 26 296 114 q 569 -224 296 -224 m 1222 1240 l 1221 1246 q 1277 1271 1239 1253 q 1358 1310 1315 1289 q 1434 1349 1400 1332 q 1479 1374 1468 1367 q 1490 1360 1490 1374 q 1478 1313 1485 1340 q 1472 1260 1472 1285 q 1472 1249 1472 1254 q 1474 1238 1472 1244 q 1468 1235 1474 1235 q 1463 1239 1465 1235 q 1445 1278 1453 1260 q 1433 1321 1438 1297 l 1222 1240 m 1346 1438 l 1343 1444 q 1394 1497 1360 1479 q 1467 1514 1429 1514 q 1515 1501 1494 1514 q 1557 1478 1536 1489 q 1604 1467 1578 1467 q 1635 1474 1619 1467 q 1657 1508 1651 1482 l 1661 1501 q 1628 1452 1656 1472 q 1563 1432 1600 1432 q 1513 1442 1536 1432 q 1467 1462 1490 1453 q 1410 1471 1443 1471 q 1346 1438 1367 1471 z "},"Ȅ":{"ha":1276,"x_min":-222,"x_max":1542,"o":"m 569 -224 q 731 -194 644 -224 q 910 -112 818 -165 q 1090 12 1001 -60 q 1256 168 1179 83 l 1276 192 l 1288 192 l 1267 168 q 1098 6 1188 79 q 915 -122 1008 -68 q 733 -204 822 -175 q 569 -233 644 -233 q 376 -193 458 -233 q 247 -80 293 -153 q 201 92 201 -7 q 251 290 201 194 q 388 460 301 385 q 585 579 475 536 q 813 622 694 622 q 907 610 874 622 q 940 576 940 599 q 925 552 940 563 q 886 542 910 542 q 795 588 831 542 q 760 706 760 633 q 801 856 760 783 q 914 986 843 929 q 1074 1076 985 1043 q 1260 1110 1163 1110 q 1489 901 1489 1110 q 1460 751 1489 832 q 1383 591 1432 671 q 1272 438 1335 511 q 1142 308 1210 365 q 1006 218 1074 251 q 878 185 938 185 q 785 225 819 185 q 750 333 750 265 q 782 465 750 393 q 866 610 814 538 q 981 742 918 682 q 1106 838 1043 801 q 1221 874 1169 874 q 1278 808 1278 874 q 1231 667 1278 742 q 1105 519 1185 593 q 922 379 1025 446 q 704 261 819 313 q 474 180 589 210 q 254 150 358 150 q 10 193 118 150 q -160 310 -99 236 q -222 481 -222 385 q -176 633 -222 564 q -47 755 -131 703 q 149 835 38 807 q 396 864 261 864 q 591 848 489 864 q 793 803 693 832 q 981 738 893 775 q 1135 656 1068 700 q 1240 564 1203 611 l 1233 558 q 1138 643 1201 600 q 989 724 1074 686 q 806 791 904 761 q 603 838 707 821 q 397 856 499 856 q 153 828 264 856 q -40 749 42 800 q -167 628 -122 697 q -212 478 -212 560 q -151 315 -212 388 q 15 201 -90 243 q 254 160 121 160 q 472 189 357 160 q 701 269 588 218 q 916 385 814 319 q 1097 523 1018 450 q 1222 669 1176 596 q 1268 808 1268 742 q 1221 865 1268 865 q 1108 829 1169 865 q 985 734 1047 793 q 872 604 924 675 q 790 462 821 533 q 758 332 758 390 q 792 231 758 269 q 876 193 825 193 q 1003 226 936 193 q 1138 315 1069 258 q 1267 444 1206 372 q 1377 595 1329 515 q 1453 753 1425 675 q 1481 901 1481 832 q 1430 1051 1481 1000 q 1281 1101 1379 1101 q 1107 1063 1193 1101 q 951 963 1021 1025 q 838 824 881 900 q 794 671 794 749 q 888 550 794 550 q 919 558 907 550 q 932 575 932 565 q 902 603 932 592 q 826 614 872 614 q 671 581 747 614 q 526 492 594 549 q 407 360 458 435 q 326 199 356 285 q 296 26 296 114 q 569 -224 296 -224 m 1539 1240 l 1347 1319 q 1325 1344 1325 1328 q 1349 1364 1325 1364 q 1379 1354 1364 1364 l 1542 1246 l 1539 1240 m 1393 1240 l 1203 1319 q 1181 1344 1181 1328 q 1204 1364 1181 1364 q 1235 1354 1219 1364 l 1396 1246 l 1393 1240 z "},"Ë":{"ha":1276,"x_min":-222,"x_max":1542,"o":"m 569 -224 q 731 -194 644 -224 q 910 -112 818 -165 q 1090 12 1001 -60 q 1256 168 1179 83 l 1276 192 l 1288 192 l 1267 168 q 1098 6 1188 79 q 915 -122 1008 -68 q 733 -204 822 -175 q 569 -233 644 -233 q 376 -193 458 -233 q 247 -80 293 -153 q 201 92 201 -7 q 251 290 201 194 q 388 460 301 385 q 585 579 475 536 q 813 622 694 622 q 907 610 874 622 q 940 576 940 599 q 925 552 940 563 q 886 542 910 542 q 795 588 831 542 q 760 706 760 633 q 801 856 760 783 q 914 986 843 929 q 1074 1076 985 1043 q 1260 1110 1163 1110 q 1489 901 1489 1110 q 1460 751 1489 832 q 1383 591 1432 671 q 1272 438 1335 511 q 1142 308 1210 365 q 1006 218 1074 251 q 878 185 938 185 q 785 225 819 185 q 750 333 750 265 q 782 465 750 393 q 866 610 814 538 q 981 742 918 682 q 1106 838 1043 801 q 1221 874 1169 874 q 1278 808 1278 874 q 1231 667 1278 742 q 1105 519 1185 593 q 922 379 1025 446 q 704 261 819 313 q 474 180 589 210 q 254 150 358 150 q 10 193 118 150 q -160 310 -99 236 q -222 481 -222 385 q -176 633 -222 564 q -47 755 -131 703 q 149 835 38 807 q 396 864 261 864 q 591 848 489 864 q 793 803 693 832 q 981 738 893 775 q 1135 656 1068 700 q 1240 564 1203 611 l 1233 558 q 1138 643 1201 600 q 989 724 1074 686 q 806 791 904 761 q 603 838 707 821 q 397 856 499 856 q 153 828 264 856 q -40 749 42 800 q -167 628 -122 697 q -212 478 -212 560 q -151 315 -212 388 q 15 201 -90 243 q 254 160 121 160 q 472 189 357 160 q 701 269 588 218 q 916 385 814 319 q 1097 523 1018 450 q 1222 669 1176 596 q 1268 808 1268 742 q 1221 865 1268 865 q 1108 829 1169 865 q 985 734 1047 793 q 872 604 924 675 q 790 462 821 533 q 758 332 758 390 q 792 231 758 269 q 876 193 825 193 q 1003 226 936 193 q 1138 315 1069 258 q 1267 444 1206 372 q 1377 595 1329 515 q 1453 753 1425 675 q 1481 901 1481 832 q 1430 1051 1481 1000 q 1281 1101 1379 1101 q 1107 1063 1193 1101 q 951 963 1021 1025 q 838 824 881 900 q 794 671 794 749 q 888 550 794 550 q 919 558 907 550 q 932 575 932 565 q 902 603 932 592 q 826 614 872 614 q 671 581 747 614 q 526 492 594 549 q 407 360 458 435 q 326 199 356 285 q 296 26 296 114 q 569 -224 296 -224 m 1399 1354 q 1413 1344 1413 1354 q 1392 1308 1413 1329 q 1347 1269 1372 1286 q 1301 1253 1321 1253 q 1290 1263 1290 1253 q 1310 1299 1290 1278 q 1356 1338 1331 1321 q 1399 1354 1382 1354 m 1529 1354 q 1543 1344 1543 1354 q 1523 1308 1543 1329 q 1477 1269 1503 1286 q 1432 1253 1451 1253 q 1421 1263 1421 1253 q 1441 1299 1421 1278 q 1487 1338 1461 1321 q 1529 1354 1513 1354 z "},"Ė":{"ha":1276,"x_min":-222,"x_max":1489,"o":"m 569 -224 q 731 -194 644 -224 q 910 -112 818 -165 q 1090 12 1001 -60 q 1256 168 1179 83 l 1276 192 l 1288 192 l 1267 168 q 1098 6 1188 79 q 915 -122 1008 -68 q 733 -204 822 -175 q 569 -233 644 -233 q 376 -193 458 -233 q 247 -80 293 -153 q 201 92 201 -7 q 251 290 201 194 q 388 460 301 385 q 585 579 475 536 q 813 622 694 622 q 907 610 874 622 q 940 576 940 599 q 925 552 940 563 q 886 542 910 542 q 795 588 831 542 q 760 706 760 633 q 801 856 760 783 q 914 986 843 929 q 1074 1076 985 1043 q 1260 1110 1163 1110 q 1489 901 1489 1110 q 1460 751 1489 832 q 1383 591 1432 671 q 1272 438 1335 511 q 1142 308 1210 365 q 1006 218 1074 251 q 878 185 938 185 q 785 225 819 185 q 750 333 750 265 q 782 465 750 393 q 866 610 814 538 q 981 742 918 682 q 1106 838 1043 801 q 1221 874 1169 874 q 1278 808 1278 874 q 1231 667 1278 742 q 1105 519 1185 593 q 922 379 1025 446 q 704 261 819 313 q 474 180 589 210 q 254 150 358 150 q 10 193 118 150 q -160 310 -99 236 q -222 481 -222 385 q -176 633 -222 564 q -47 755 -131 703 q 149 835 38 807 q 396 864 261 864 q 591 848 489 864 q 793 803 693 832 q 981 738 893 775 q 1135 656 1068 700 q 1240 564 1203 611 l 1233 558 q 1138 643 1201 600 q 989 724 1074 686 q 806 791 904 761 q 603 838 707 821 q 397 856 499 856 q 153 828 264 856 q -40 749 42 800 q -167 628 -122 697 q -212 478 -212 560 q -151 315 -212 388 q 15 201 -90 243 q 254 160 121 160 q 472 189 357 160 q 701 269 588 218 q 916 385 814 319 q 1097 523 1018 450 q 1222 669 1176 596 q 1268 808 1268 742 q 1221 865 1268 865 q 1108 829 1169 865 q 985 734 1047 793 q 872 604 924 675 q 790 462 821 533 q 758 332 758 390 q 792 231 758 269 q 876 193 825 193 q 1003 226 936 193 q 1138 315 1069 258 q 1267 444 1206 372 q 1377 595 1329 515 q 1453 753 1425 675 q 1481 901 1481 832 q 1430 1051 1481 1000 q 1281 1101 1379 1101 q 1107 1063 1193 1101 q 951 963 1021 1025 q 838 824 881 900 q 794 671 794 749 q 888 550 794 550 q 919 558 907 550 q 932 575 932 565 q 902 603 932 592 q 826 614 872 614 q 671 581 747 614 q 526 492 594 549 q 407 360 458 435 q 326 199 356 285 q 296 26 296 114 q 569 -224 296 -224 m 1465 1354 q 1479 1344 1479 1354 q 1459 1308 1479 1329 q 1413 1269 1439 1286 q 1368 1253 1388 1253 q 1357 1263 1357 1253 q 1377 1299 1357 1278 q 1423 1338 1397 1321 q 1465 1354 1449 1354 z "},"Ẹ":{"ha":1276,"x_min":-222,"x_max":1489,"o":"m 569 -224 q 731 -194 644 -224 q 910 -112 818 -165 q 1090 12 1001 -60 q 1256 168 1179 83 l 1276 192 l 1288 192 l 1267 168 q 1098 6 1188 79 q 915 -122 1008 -68 q 733 -204 822 -175 q 569 -233 644 -233 q 376 -193 458 -233 q 247 -80 293 -153 q 201 92 201 -7 q 251 290 201 194 q 388 460 301 385 q 585 579 475 536 q 813 622 694 622 q 907 610 874 622 q 940 576 940 599 q 925 552 940 563 q 886 542 910 542 q 795 588 831 542 q 760 706 760 633 q 801 856 760 783 q 914 986 843 929 q 1074 1076 985 1043 q 1260 1110 1163 1110 q 1489 901 1489 1110 q 1460 751 1489 832 q 1383 591 1432 671 q 1272 438 1335 511 q 1142 308 1210 365 q 1006 218 1074 251 q 878 185 938 185 q 785 225 819 185 q 750 333 750 265 q 782 465 750 393 q 866 610 814 538 q 981 742 918 682 q 1106 838 1043 801 q 1221 874 1169 874 q 1278 808 1278 874 q 1231 667 1278 742 q 1105 519 1185 593 q 922 379 1025 446 q 704 261 819 313 q 474 180 589 210 q 254 150 358 150 q 10 193 118 150 q -160 310 -99 236 q -222 481 -222 385 q -176 633 -222 564 q -47 755 -131 703 q 149 835 38 807 q 396 864 261 864 q 591 848 489 864 q 793 803 693 832 q 981 738 893 775 q 1135 656 1068 700 q 1240 564 1203 611 l 1233 558 q 1138 643 1201 600 q 989 724 1074 686 q 806 791 904 761 q 603 838 707 821 q 397 856 499 856 q 153 828 264 856 q -40 749 42 800 q -167 628 -122 697 q -212 478 -212 560 q -151 315 -212 388 q 15 201 -90 243 q 254 160 121 160 q 472 189 357 160 q 701 269 588 218 q 916 385 814 319 q 1097 523 1018 450 q 1222 669 1176 596 q 1268 808 1268 742 q 1221 865 1268 865 q 1108 829 1169 865 q 985 734 1047 793 q 872 604 924 675 q 790 462 821 533 q 758 332 758 390 q 792 231 758 269 q 876 193 825 193 q 1003 226 936 193 q 1138 315 1069 258 q 1267 444 1206 372 q 1377 595 1329 515 q 1453 753 1425 675 q 1481 901 1481 832 q 1430 1051 1481 1000 q 1281 1101 1379 1101 q 1107 1063 1193 1101 q 951 963 1021 1025 q 838 824 881 900 q 794 671 794 749 q 888 550 794 550 q 919 558 907 550 q 932 575 932 565 q 902 603 932 592 q 826 614 872 614 q 671 581 747 614 q 526 492 594 549 q 407 360 458 435 q 326 199 356 285 q 296 26 296 114 q 569 -224 296 -224 m 500 -372 q 514 -382 514 -372 q 494 -419 514 -397 q 448 -457 474 -440 q 403 -474 422 -474 q 392 -464 392 -474 q 412 -427 392 -449 q 458 -389 432 -406 q 500 -372 483 -372 z "},"È":{"ha":1276,"x_min":-222,"x_max":1524,"o":"m 569 -224 q 731 -194 644 -224 q 910 -112 818 -165 q 1090 12 1001 -60 q 1256 168 1179 83 l 1276 192 l 1288 192 l 1267 168 q 1098 6 1188 79 q 915 -122 1008 -68 q 733 -204 822 -175 q 569 -233 644 -233 q 376 -193 458 -233 q 247 -80 293 -153 q 201 92 201 -7 q 251 290 201 194 q 388 460 301 385 q 585 579 475 536 q 813 622 694 622 q 907 610 874 622 q 940 576 940 599 q 925 552 940 563 q 886 542 910 542 q 795 588 831 542 q 760 706 760 633 q 801 856 760 783 q 914 986 843 929 q 1074 1076 985 1043 q 1260 1110 1163 1110 q 1489 901 1489 1110 q 1460 751 1489 832 q 1383 591 1432 671 q 1272 438 1335 511 q 1142 308 1210 365 q 1006 218 1074 251 q 878 185 938 185 q 785 225 819 185 q 750 333 750 265 q 782 465 750 393 q 866 610 814 538 q 981 742 918 682 q 1106 838 1043 801 q 1221 874 1169 874 q 1278 808 1278 874 q 1231 667 1278 742 q 1105 519 1185 593 q 922 379 1025 446 q 704 261 819 313 q 474 180 589 210 q 254 150 358 150 q 10 193 118 150 q -160 310 -99 236 q -222 481 -222 385 q -176 633 -222 564 q -47 755 -131 703 q 149 835 38 807 q 396 864 261 864 q 591 848 489 864 q 793 803 693 832 q 981 738 893 775 q 1135 656 1068 700 q 1240 564 1203 611 l 1233 558 q 1138 643 1201 600 q 989 724 1074 686 q 806 791 904 761 q 603 838 707 821 q 397 856 499 856 q 153 828 264 856 q -40 749 42 800 q -167 628 -122 697 q -212 478 -212 560 q -151 315 -212 388 q 15 201 -90 243 q 254 160 121 160 q 472 189 357 160 q 701 269 588 218 q 916 385 814 319 q 1097 523 1018 450 q 1222 669 1176 596 q 1268 808 1268 742 q 1221 865 1268 865 q 1108 829 1169 865 q 985 734 1047 793 q 872 604 924 675 q 790 462 821 533 q 758 332 758 390 q 792 231 758 269 q 876 193 825 193 q 1003 226 936 193 q 1138 315 1069 258 q 1267 444 1206 372 q 1377 595 1329 515 q 1453 753 1425 675 q 1481 901 1481 832 q 1430 1051 1481 1000 q 1281 1101 1379 1101 q 1107 1063 1193 1101 q 951 963 1021 1025 q 838 824 881 900 q 794 671 794 749 q 888 550 794 550 q 919 558 907 550 q 932 575 932 565 q 902 603 932 592 q 826 614 872 614 q 671 581 747 614 q 526 492 594 549 q 407 360 458 435 q 326 199 356 285 q 296 26 296 114 q 569 -224 296 -224 m 1521 1240 l 1331 1319 q 1308 1344 1308 1328 q 1332 1364 1308 1364 q 1346 1362 1339 1364 q 1361 1354 1353 1360 l 1524 1246 l 1521 1240 z "},"Ẻ":{"ha":1276,"x_min":-222,"x_max":1489,"o":"m 569 -224 q 731 -194 644 -224 q 910 -112 818 -165 q 1090 12 1001 -60 q 1256 168 1179 83 l 1276 192 l 1288 192 l 1267 168 q 1098 6 1188 79 q 915 -122 1008 -68 q 733 -204 822 -175 q 569 -233 644 -233 q 376 -193 458 -233 q 247 -80 293 -153 q 201 92 201 -7 q 251 290 201 194 q 388 460 301 385 q 585 579 475 536 q 813 622 694 622 q 907 610 874 622 q 940 576 940 599 q 925 552 940 563 q 886 542 910 542 q 795 588 831 542 q 760 706 760 633 q 801 856 760 783 q 914 986 843 929 q 1074 1076 985 1043 q 1260 1110 1163 1110 q 1489 901 1489 1110 q 1460 751 1489 832 q 1383 591 1432 671 q 1272 438 1335 511 q 1142 308 1210 365 q 1006 218 1074 251 q 878 185 938 185 q 785 225 819 185 q 750 333 750 265 q 782 465 750 393 q 866 610 814 538 q 981 742 918 682 q 1106 838 1043 801 q 1221 874 1169 874 q 1278 808 1278 874 q 1231 667 1278 742 q 1105 519 1185 593 q 922 379 1025 446 q 704 261 819 313 q 474 180 589 210 q 254 150 358 150 q 10 193 118 150 q -160 310 -99 236 q -222 481 -222 385 q -176 633 -222 564 q -47 755 -131 703 q 149 835 38 807 q 396 864 261 864 q 591 848 489 864 q 793 803 693 832 q 981 738 893 775 q 1135 656 1068 700 q 1240 564 1203 611 l 1233 558 q 1138 643 1201 600 q 989 724 1074 686 q 806 791 904 761 q 603 838 707 821 q 397 856 499 856 q 153 828 264 856 q -40 749 42 800 q -167 628 -122 697 q -212 478 -212 560 q -151 315 -212 388 q 15 201 -90 243 q 254 160 121 160 q 472 189 357 160 q 701 269 588 218 q 916 385 814 319 q 1097 523 1018 450 q 1222 669 1176 596 q 1268 808 1268 742 q 1221 865 1268 865 q 1108 829 1169 865 q 985 734 1047 793 q 872 604 924 675 q 790 462 821 533 q 758 332 758 390 q 792 231 758 269 q 876 193 825 193 q 1003 226 936 193 q 1138 315 1069 258 q 1267 444 1206 372 q 1377 595 1329 515 q 1453 753 1425 675 q 1481 901 1481 832 q 1430 1051 1481 1000 q 1281 1101 1379 1101 q 1107 1063 1193 1101 q 951 963 1021 1025 q 838 824 881 900 q 794 671 794 749 q 888 550 794 550 q 919 558 907 550 q 932 575 932 565 q 902 603 932 592 q 826 614 872 614 q 671 581 747 614 q 526 492 594 549 q 407 360 458 435 q 326 199 356 285 q 296 26 296 114 q 569 -224 296 -224 m 1322 1318 l 1324 1328 q 1356 1343 1338 1338 q 1396 1349 1375 1349 q 1433 1322 1433 1349 q 1394 1253 1433 1290 q 1297 1193 1356 1215 l 1297 1197 q 1342 1228 1319 1207 q 1378 1274 1364 1250 q 1393 1313 1393 1297 q 1367 1332 1393 1332 q 1341 1327 1354 1332 q 1322 1318 1328 1322 z "},"Ȇ":{"ha":1276,"x_min":-222,"x_max":1500,"o":"m 569 -224 q 731 -194 644 -224 q 910 -112 818 -165 q 1090 12 1001 -60 q 1256 168 1179 83 l 1276 192 l 1288 192 l 1267 168 q 1098 6 1188 79 q 915 -122 1008 -68 q 733 -204 822 -175 q 569 -233 644 -233 q 376 -193 458 -233 q 247 -80 293 -153 q 201 92 201 -7 q 251 290 201 194 q 388 460 301 385 q 585 579 475 536 q 813 622 694 622 q 907 610 874 622 q 940 576 940 599 q 925 552 940 563 q 886 542 910 542 q 795 588 831 542 q 760 706 760 633 q 801 856 760 783 q 914 986 843 929 q 1074 1076 985 1043 q 1260 1110 1163 1110 q 1489 901 1489 1110 q 1460 751 1489 832 q 1383 591 1432 671 q 1272 438 1335 511 q 1142 308 1210 365 q 1006 218 1074 251 q 878 185 938 185 q 785 225 819 185 q 750 333 750 265 q 782 465 750 393 q 866 610 814 538 q 981 742 918 682 q 1106 838 1043 801 q 1221 874 1169 874 q 1278 808 1278 874 q 1231 667 1278 742 q 1105 519 1185 593 q 922 379 1025 446 q 704 261 819 313 q 474 180 589 210 q 254 150 358 150 q 10 193 118 150 q -160 310 -99 236 q -222 481 -222 385 q -176 633 -222 564 q -47 755 -131 703 q 149 835 38 807 q 396 864 261 864 q 591 848 489 864 q 793 803 693 832 q 981 738 893 775 q 1135 656 1068 700 q 1240 564 1203 611 l 1233 558 q 1138 643 1201 600 q 989 724 1074 686 q 806 791 904 761 q 603 838 707 821 q 397 856 499 856 q 153 828 264 856 q -40 749 42 800 q -167 628 -122 697 q -212 478 -212 560 q -151 315 -212 388 q 15 201 -90 243 q 254 160 121 160 q 472 189 357 160 q 701 269 588 218 q 916 385 814 319 q 1097 523 1018 450 q 1222 669 1176 596 q 1268 808 1268 742 q 1221 865 1268 865 q 1108 829 1169 865 q 985 734 1047 793 q 872 604 924 675 q 790 462 821 533 q 758 332 758 390 q 792 231 758 269 q 876 193 825 193 q 1003 226 936 193 q 1138 315 1069 258 q 1267 444 1206 372 q 1377 595 1329 515 q 1453 753 1425 675 q 1481 901 1481 832 q 1430 1051 1481 1000 q 1281 1101 1379 1101 q 1107 1063 1193 1101 q 951 963 1021 1025 q 838 824 881 900 q 794 671 794 749 q 888 550 794 550 q 919 558 907 550 q 932 575 932 565 q 902 603 932 592 q 826 614 872 614 q 671 581 747 614 q 526 492 594 549 q 407 360 458 435 q 326 199 356 285 q 296 26 296 114 q 569 -224 296 -224 m 1315 1265 l 1267 1265 q 1312 1312 1283 1292 q 1372 1344 1340 1332 q 1431 1356 1404 1356 q 1483 1343 1465 1356 q 1500 1311 1500 1331 q 1497 1289 1500 1300 q 1486 1265 1493 1278 l 1444 1265 q 1453 1288 1450 1276 q 1457 1311 1457 1300 q 1425 1347 1457 1347 q 1365 1323 1397 1347 q 1315 1265 1333 1299 z "},"Ē":{"ha":1276,"x_min":-222,"x_max":1569,"o":"m 569 -224 q 731 -194 644 -224 q 910 -112 818 -165 q 1090 12 1001 -60 q 1256 168 1179 83 l 1276 192 l 1288 192 l 1267 168 q 1098 6 1188 79 q 915 -122 1008 -68 q 733 -204 822 -175 q 569 -233 644 -233 q 376 -193 458 -233 q 247 -80 293 -153 q 201 92 201 -7 q 251 290 201 194 q 388 460 301 385 q 585 579 475 536 q 813 622 694 622 q 907 610 874 622 q 940 576 940 599 q 925 552 940 563 q 886 542 910 542 q 795 588 831 542 q 760 706 760 633 q 801 856 760 783 q 914 986 843 929 q 1074 1076 985 1043 q 1260 1110 1163 1110 q 1489 901 1489 1110 q 1460 751 1489 832 q 1383 591 1432 671 q 1272 438 1335 511 q 1142 308 1210 365 q 1006 218 1074 251 q 878 185 938 185 q 785 225 819 185 q 750 333 750 265 q 782 465 750 393 q 866 610 814 538 q 981 742 918 682 q 1106 838 1043 801 q 1221 874 1169 874 q 1278 808 1278 874 q 1231 667 1278 742 q 1105 519 1185 593 q 922 379 1025 446 q 704 261 819 313 q 474 180 589 210 q 254 150 358 150 q 10 193 118 150 q -160 310 -99 236 q -222 481 -222 385 q -176 633 -222 564 q -47 755 -131 703 q 149 835 38 807 q 396 864 261 864 q 591 848 489 864 q 793 803 693 832 q 981 738 893 775 q 1135 656 1068 700 q 1240 564 1203 611 l 1233 558 q 1138 643 1201 600 q 989 724 1074 686 q 806 791 904 761 q 603 838 707 821 q 397 856 499 856 q 153 828 264 856 q -40 749 42 800 q -167 628 -122 697 q -212 478 -212 560 q -151 315 -212 388 q 15 201 -90 243 q 254 160 121 160 q 472 189 357 160 q 701 269 588 218 q 916 385 814 319 q 1097 523 1018 450 q 1222 669 1176 596 q 1268 808 1268 742 q 1221 865 1268 865 q 1108 829 1169 865 q 985 734 1047 793 q 872 604 924 675 q 790 462 821 533 q 758 332 758 390 q 792 231 758 269 q 876 193 825 193 q 1003 226 936 193 q 1138 315 1069 258 q 1267 444 1206 372 q 1377 595 1329 515 q 1453 753 1425 675 q 1481 901 1481 832 q 1430 1051 1481 1000 q 1281 1101 1379 1101 q 1107 1063 1193 1101 q 951 963 1021 1025 q 838 824 881 900 q 794 671 794 749 q 888 550 794 550 q 919 558 907 550 q 932 575 932 565 q 902 603 932 592 q 826 614 872 614 q 671 581 747 614 q 526 492 594 549 q 407 360 458 435 q 326 199 356 285 q 296 26 296 114 q 569 -224 296 -224 m 1258 1283 l 1307 1324 l 1569 1324 l 1521 1283 l 1258 1283 z "},"Ḗ":{"ha":1276,"x_min":-222,"x_max":1569,"o":"m 569 -224 q 731 -194 644 -224 q 910 -112 818 -165 q 1090 12 1001 -60 q 1256 168 1179 83 l 1276 192 l 1288 192 l 1267 168 q 1098 6 1188 79 q 915 -122 1008 -68 q 733 -204 822 -175 q 569 -233 644 -233 q 376 -193 458 -233 q 247 -80 293 -153 q 201 92 201 -7 q 251 290 201 194 q 388 460 301 385 q 585 579 475 536 q 813 622 694 622 q 907 610 874 622 q 940 576 940 599 q 925 552 940 563 q 886 542 910 542 q 795 588 831 542 q 760 706 760 633 q 801 856 760 783 q 914 986 843 929 q 1074 1076 985 1043 q 1260 1110 1163 1110 q 1489 901 1489 1110 q 1460 751 1489 832 q 1383 591 1432 671 q 1272 438 1335 511 q 1142 308 1210 365 q 1006 218 1074 251 q 878 185 938 185 q 785 225 819 185 q 750 333 750 265 q 782 465 750 393 q 866 610 814 538 q 981 742 918 682 q 1106 838 1043 801 q 1221 874 1169 874 q 1278 808 1278 874 q 1231 667 1278 742 q 1105 519 1185 593 q 922 379 1025 446 q 704 261 819 313 q 474 180 589 210 q 254 150 358 150 q 10 193 118 150 q -160 310 -99 236 q -222 481 -222 385 q -176 633 -222 564 q -47 755 -131 703 q 149 835 38 807 q 396 864 261 864 q 591 848 489 864 q 793 803 693 832 q 981 738 893 775 q 1135 656 1068 700 q 1240 564 1203 611 l 1233 558 q 1138 643 1201 600 q 989 724 1074 686 q 806 791 904 761 q 603 838 707 821 q 397 856 499 856 q 153 828 264 856 q -40 749 42 800 q -167 628 -122 697 q -212 478 -212 560 q -151 315 -212 388 q 15 201 -90 243 q 254 160 121 160 q 472 189 357 160 q 701 269 588 218 q 916 385 814 319 q 1097 523 1018 450 q 1222 669 1176 596 q 1268 808 1268 742 q 1221 865 1268 865 q 1108 829 1169 865 q 985 734 1047 793 q 872 604 924 675 q 790 462 821 533 q 758 332 758 390 q 792 231 758 269 q 876 193 825 193 q 1003 226 936 193 q 1138 315 1069 258 q 1267 444 1206 372 q 1377 595 1329 515 q 1453 753 1425 675 q 1481 901 1481 832 q 1430 1051 1481 1000 q 1281 1101 1379 1101 q 1107 1063 1193 1101 q 951 963 1021 1025 q 838 824 881 900 q 794 671 794 749 q 888 550 794 550 q 919 558 907 550 q 932 575 932 565 q 902 603 932 592 q 826 614 872 614 q 671 581 747 614 q 526 492 594 549 q 407 360 458 435 q 326 199 356 285 q 296 26 296 114 q 569 -224 296 -224 m 1258 1283 l 1307 1324 l 1569 1324 l 1521 1283 l 1258 1283 m 1308 1410 l 1306 1415 l 1468 1524 q 1499 1533 1483 1533 q 1521 1514 1521 1533 q 1500 1489 1521 1497 l 1308 1410 z "},"Ḕ":{"ha":1276,"x_min":-222,"x_max":1576,"o":"m 569 -224 q 731 -194 644 -224 q 910 -112 818 -165 q 1090 12 1001 -60 q 1256 168 1179 83 l 1276 192 l 1288 192 l 1267 168 q 1098 6 1188 79 q 915 -122 1008 -68 q 733 -204 822 -175 q 569 -233 644 -233 q 376 -193 458 -233 q 247 -80 293 -153 q 201 92 201 -7 q 251 290 201 194 q 388 460 301 385 q 585 579 475 536 q 813 622 694 622 q 907 610 874 622 q 940 576 940 599 q 925 552 940 563 q 886 542 910 542 q 795 588 831 542 q 760 706 760 633 q 801 856 760 783 q 914 986 843 929 q 1074 1076 985 1043 q 1260 1110 1163 1110 q 1489 901 1489 1110 q 1460 751 1489 832 q 1383 591 1432 671 q 1272 438 1335 511 q 1142 308 1210 365 q 1006 218 1074 251 q 878 185 938 185 q 785 225 819 185 q 750 333 750 265 q 782 465 750 393 q 866 610 814 538 q 981 742 918 682 q 1106 838 1043 801 q 1221 874 1169 874 q 1278 808 1278 874 q 1231 667 1278 742 q 1105 519 1185 593 q 922 379 1025 446 q 704 261 819 313 q 474 180 589 210 q 254 150 358 150 q 10 193 118 150 q -160 310 -99 236 q -222 481 -222 385 q -176 633 -222 564 q -47 755 -131 703 q 149 835 38 807 q 396 864 261 864 q 591 848 489 864 q 793 803 693 832 q 981 738 893 775 q 1135 656 1068 700 q 1240 564 1203 611 l 1233 558 q 1138 643 1201 600 q 989 724 1074 686 q 806 791 904 761 q 603 838 707 821 q 397 856 499 856 q 153 828 264 856 q -40 749 42 800 q -167 628 -122 697 q -212 478 -212 560 q -151 315 -212 388 q 15 201 -90 243 q 254 160 121 160 q 472 189 357 160 q 701 269 588 218 q 916 385 814 319 q 1097 523 1018 450 q 1222 669 1176 596 q 1268 808 1268 742 q 1221 865 1268 865 q 1108 829 1169 865 q 985 734 1047 793 q 872 604 924 675 q 790 462 821 533 q 758 332 758 390 q 792 231 758 269 q 876 193 825 193 q 1003 226 936 193 q 1138 315 1069 258 q 1267 444 1206 372 q 1377 595 1329 515 q 1453 753 1425 675 q 1481 901 1481 832 q 1430 1051 1481 1000 q 1281 1101 1379 1101 q 1107 1063 1193 1101 q 951 963 1021 1025 q 838 824 881 900 q 794 671 794 749 q 888 550 794 550 q 919 558 907 550 q 932 575 932 565 q 902 603 932 592 q 826 614 872 614 q 671 581 747 614 q 526 492 594 549 q 407 360 458 435 q 326 199 356 285 q 296 26 296 114 q 569 -224 296 -224 m 1258 1283 l 1307 1324 l 1569 1324 l 1521 1283 l 1258 1283 m 1574 1410 l 1383 1489 q 1361 1514 1361 1497 q 1385 1533 1361 1533 q 1399 1531 1392 1533 q 1414 1524 1406 1529 l 1576 1415 l 1574 1410 z "}}}
